<svg xmlns="http://www.w3.org/2000/svg" width="305.43" height="301.29" viewBox="0 0 305.43 301.29"><defs><style>.cls-1{fill:red;}</style></defs><g id="Layer_2" data-name="Layer 2"><circle cx="152.72" cy="176.52" r="123.47"/><rect x="146.24" y="16.58" width="12.96" height="41.11" rx="6.48"/><circle cx="152.72" cy="16.58" r="14.48"/><path class="cls-1" d="M115.34,162.9c0-23,15.82-41.44,37.1-41.44,21.56,0,37.66,18.4,37.66,41.44v19.84c0,22.88-16.1,41.12-37.66,41.12-21.28,0-37.1-18.24-37.1-41.12Zm37.1,56.48c18.62,0,32.48-16.32,32.48-36.64V162.9c0-20.48-13.86-37-32.48-37-18.34,0-31.92,16.48-31.92,37v19.84C120.52,203.06,134.1,219.38,152.44,219.38Zm-30.52-59.84h7.42l-.14.8h-7.42Zm-.14,3.2h7.28v.8h-7.28Zm0,3.2h7.28v.8h-7.28Zm0,3.2h7.28v.8h-7.28Zm0,3.2h7.28v.8h-7.28Zm0,3.2h7.28v.8h-7.28Zm0,3.2h7.28v.8h-7.28Zm0,3.2h7.28v.8h-7.28Zm.56-25.6h7.56l-.28.8h-7.56Zm.56-3.2h7.84l-.28.8h-7.84Zm.84-3.2H132l-.42.8h-8Zm1.12-3.2h9.24l-.56.8h-9Zm1.68-3.2H136.9l-.84.8H126Zm2-3.2H141l-1.26.8H127.94Zm1.82,23c0-13.76,9-24.48,22.12-24.48,13.44,0,22.4,10.72,22.4,24.48v18.88c0,13.76-9,24.16-22.4,24.16-13.16,0-22.12-10.4-22.12-24.16Zm.84-26.24H174l.84.8H158a31.78,31.78,0,0,0-5.6-.64,31.78,31.78,0,0,0-5.6.64H130.46Zm3.5-3.2H170.5l1,.8h-37.8Zm17.78,68c10.36,0,17.22-8.48,17.22-19.68V163.38c0-11.2-6.86-20-17.22-20-10.08,0-16.94,8.8-16.94,20v18.88C135.5,193.46,142.36,201.94,152.44,201.94Zm-13-71.2H165.6l1.54.8H138Zm13-3.2a32.61,32.61,0,0,1,7,.8h-14A24.9,24.9,0,0,1,152.44,127.54Zm24.08,12.8.7.8H165.46l-1.12-.8Zm2.1,3.2.56.8H169.1l-1-.8Zm-7.7,3.2h9.38l.28.8h-9Zm2,3.2h8.54l.28.8h-8.4Zm1.54,3.2h8l.28.8h-8.12Zm.84,3.2h7.84l.14.8H175.4Zm.56,3.2h7.7v.8H176Zm.28,3.2h7.56v.8H176.1Zm0,3.2h7.56v.8H176.1Zm0,3.2h7.56v.8H176.1Zm0,3.2h7.56v.8H176.1Zm0,3.2h7.56v.8H176.1Zm0,3.2h7.56v.8H176.1Zm0,3.2h7.56v.8H176.1Z"/></g></svg>