<svg xmlns="http://www.w3.org/2000/svg" width="305.43" height="301.29" viewBox="0 0 305.43 301.29"><defs><style>.cls-1{fill:#febb00;stroke:#000;stroke-miterlimit:10;stroke-width:2px;}.cls-2{fill:red;}</style></defs><g id="Layer_2" data-name="Layer 2"><circle cx="152.72" cy="176.52" r="123.47"/><path class="cls-1" d="M152.72,176.52H265.06A112.35,112.35,0,0,1,153.19,288.86Z"/><rect x="146.24" y="16.58" width="12.96" height="41.11" rx="6.48"/><circle cx="152.72" cy="16.58" r="14.48"/><path class="cls-2" d="M110.3,156.34l-5.46,6.08L94.2,148.5l19.6-23.84H131v96H110.3Zm15.54,59.84v-87h-9.38l-16.1,19.36,4.76,6.24,10.36-11.68v73.12Zm-22.4-69.44h6.72l-.7.8h-6.72Zm-.42,3.2h4.34l-.7.8h-2.94Zm3.08-6.4H113l-.7.8H105.4Zm2.66-3.2h7.14l-.7.8h-7.14Zm2.8-3.2h13v.8H110.86Zm2.66-3.2h10.36v.8H113.52Zm2.8-3.2h7.56v.8h-8.26Zm-.28,9.6h7.84v.8h-7.84Zm0,3.2h7.84v.8h-7.84Zm0,3.2h7.84v.8h-7.84Zm0,3.2h7.84v.8h-7.84Zm0,3.2h7.84v.8h-7.84Zm0,3.2h7.84v.8h-7.84Zm0,3.2h7.84v.8h-7.84Zm0,3.2h7.84v.8h-7.84Zm0,3.2h7.84v.8h-7.84Zm0,3.2h7.84v.8h-7.84Zm0,3.2h7.84v.8h-7.84Zm0,3.2h7.84v.8h-7.84Zm0,3.2h7.84v.8h-7.84Zm0,3.2h7.84v.8h-7.84Z"/><path class="cls-2" d="M161.54,194.26c3.92,7,9.38,8.64,13.86,8.64,7.56,0,12.88-5.44,12.88-13.76,0-9.12-5.6-12.32-14.7-12.32h-24.5V124.66h55.58v21.12H169.52V156h3.36c20.44,0,35,10.24,35,32.64,0,19.68-14.28,35-32.48,35-12,0-23.94-7.36-30.1-19Zm13.86,25c15.26,0,27.3-13.44,27.3-30.56,0-19.36-12.46-28.16-29.82-28.16h-8.54V141.3h35.14V129.14H154.26v43.2h21.42c12.32,0,17.78,6.24,17.78,16.8,0,11-7.42,18.24-18.06,18.24a19.82,19.82,0,0,1-15.4-6.72l-8,5.44C157.76,214.58,166.3,219.22,175.4,219.22ZM164.48,131.7h33.74v.8H164.48Zm0,3.2h33.74v.8H164.48Zm0,3.2h33.74v.8H164.48Zm0,24.64H180.3l3.64.8H164.48Zm0,3.2H189.4l1.68.8h-26.6Zm0,3.2H194l.84.8H164.48Zm9.8,41.6h18.06l-.84.8H174.28Zm0,3.2h13.86l-1.4.8H174.28Zm0,3.2h6.3l-3.78.48h-2.52Zm9-9.6h12.18l-.7.8H181Zm13.44-35.2.7.8H186.74l-1.82-.8Zm-8.12,32h8.82l-.56.8h-9.24Zm9.94-28.8.42.8H190.8l-.84-.8Zm-7.28,25.6h7.7l-.42.8h-7.84Zm1.12-22.4h7.56l.28.8h-7.42Zm.56,19.2H200l-.28.8h-7.14Zm.84-16h7l.28.8h-7.14Zm.28,12.8h6.86l-.28.8h-6.72Zm.28-9.6h6.86l.14.8h-6.72Zm.28,6.4h6.72l-.14.8h-6.72Zm.14-3.2h6.72v.8h-6.72Z"/></g></svg>