<svg xmlns="http://www.w3.org/2000/svg" width="305.43" height="301.29" viewBox="0 0 305.43 301.29"><defs><style>.cls-1{fill:#febb00;stroke:#000;stroke-miterlimit:10;stroke-width:2px;}.cls-2{fill:red;}</style></defs><g id="Layer_2" data-name="Layer 2"><circle cx="152.72" cy="176.52" r="123.47"/><path class="cls-1" d="M152.72,176.52H265.06c0,61.63-50.71,112.34-112.34,112.34S40.37,238.15,40.37,176.52H152.72Z"/><rect x="146.24" y="16.58" width="12.96" height="41.11" rx="6.48"/><circle cx="152.72" cy="16.58" r="14.48"/><path class="cls-2" d="M74.46,188.34H94.34v2.56c0,7,5.18,11.84,11.06,11.84,6.44,0,11.34-4.32,11.34-11.36,0-7.36-5.18-10.88-11.34-10.88h-4.76V158.74h4.48c4.9,0,7.42-5,7.42-9a6.59,6.59,0,0,0-6.44-6.88c-3.5,0-5.88,3-5.88,6.88V152H79.64v-2.24c0-15.2,12.18-28.32,26.46-28.32,16.94,0,27.16,13.28,27.16,27a28.93,28.93,0,0,1-8,19,30.56,30.56,0,0,1,11.48,24.32c0,16.16-12.18,32-31.36,32-17.22,0-30.94-14.56-30.94-33Zm30.94,31c16,0,26.18-13.6,26.18-27.52,0-7.36-2.24-17.28-12.18-23.36v-1.6c8.26-6.88,8.68-13.44,8.68-18.4,0-11.52-8.26-22.56-22-22.56-10.78,0-20.16,9.76-21.28,21.6H95.46c1-5.28,4.76-9.12,10.64-9.12,7.28,0,11.48,5.44,11.48,11.84,0,7.52-3.92,12.64-11.76,13V176c8.68.16,16.1,5,16.1,15.36,0,9.76-7.14,15.84-16.52,15.84a15.51,15.51,0,0,1-15.82-14.4H79.36C80.34,207.86,91.68,219.38,105.4,219.38Zm-.56-8.8h17.92l-.84.8H104.84Zm0,3.2H118.7l-1.26.8h-12.6Zm0,3.2h7.28a17.89,17.89,0,0,1-5.6.8h-1.68Zm.28-89.44h1a24.06,24.06,0,0,1,6,.8h-7Zm0,3.2H117.3l1,.8H105.12Zm0,3.2h16.1l.7.8h-16.8Zm2,32H118.7l-.7.8H107.08Zm0,3.2h11.06l1,.8h-12Zm0,3.2h14.7l.7.64h-15.4Zm5.88,35h12.46l-.56.8h-16Zm10.5-70.24.56.8H111.56l-2.24-.8Zm-10.08,25.6h8.26l-.7.8h-9.52Zm11.34,12.64.7.8H113.94l-2.24-.8Zm-9.8-35h10.22l.28.8h-9.66Zm1.54,19.2H124l-.56.8h-7.7Zm.7-16h9l.28.8h-8.82Zm1,60.64h9.1l-.42.8h-9.66Zm-.28-47.84h7.7l-.42.8h-7.56Zm9.1,22.24.42.8h-8.54l-.84-.8Zm-8.68-31.84h8.4l.14.8h-8.26Zm.42,6.4h7.84l-.28.8h-7.84Zm.14-3.2h8l-.14.8h-7.84Zm1.68,51h8.12l-.28.8H120Zm7.84-19.2.28.8h-7.56l-.56-.8Zm-6.3,16h7.56l-.28.8h-7.56Zm.14-12.8h7.28l.28.8h-7.42Zm.7,9.6h7.28l-.14.8h-7.42Zm0-6.4H130l.14.8H123Zm.28,3.2h7.14v.8h-7.14Z"/><path class="cls-2" d="M152.58,162.9c0-23,15.82-41.44,37.1-41.44,21.56,0,37.66,18.4,37.66,41.44v19.84c0,22.88-16.1,41.12-37.66,41.12-21.28,0-37.1-18.24-37.1-41.12Zm37.1,56.48c18.62,0,32.48-16.32,32.48-36.64V162.9c0-20.48-13.86-37-32.48-37-18.34,0-31.92,16.48-31.92,37v19.84C157.76,203.06,171.34,219.38,189.68,219.38Zm-30.52-59.84h7.42l-.14.8H159Zm-.14,3.2h7.28v.8H159Zm0,3.2h7.28v.8H159Zm0,3.2h7.28v.8H159Zm0,3.2h7.28v.8H159Zm0,3.2h7.28v.8H159Zm0,3.2h7.28v.8H159Zm0,3.2h7.28v.8H159Zm.56-25.6h7.56l-.28.8H159.3Zm.56-3.2H168l-.28.8h-7.84Zm.84-3.2h8.26l-.42.8h-8Zm1.12-3.2h9.24l-.56.8h-9Zm1.68-3.2h10.36l-.84.8H163.22Zm2-3.2H178.2l-1.26.8H165.18Zm1.82,23c0-13.76,9-24.48,22.12-24.48,13.44,0,22.4,10.72,22.4,24.48v18.88c0,13.76-9,24.16-22.4,24.16-13.16,0-22.12-10.4-22.12-24.16Zm.84-26.24h42.84l.84.8h-16.8a24.82,24.82,0,0,0-11.2,0H167.7Zm3.5-3.2h35.84l1,.8h-37.8Zm17.78,68c10.36,0,17.22-8.48,17.22-19.68V163.38c0-11.2-6.86-20-17.22-20-10.08,0-16.94,8.8-16.94,20v18.88C172.74,193.46,179.6,201.94,189.68,201.94Zm-13-71.2h26.18l1.54.8H175.26Zm13-3.2a32.61,32.61,0,0,1,7,.8h-14A24.9,24.9,0,0,1,189.68,127.54Zm24.08,12.8.7.8H202.7l-1.12-.8Zm2.1,3.2.56.8H206.34l-1-.8Zm-7.7,3.2h9.38l.28.8h-9Zm2,3.2h8.54l.28.8h-8.4Zm1.54,3.2h8l.28.8H211.8Zm.84,3.2h7.84l.14.8h-7.84Zm.56,3.2h7.7v.8H213.2Zm.28,3.2h7.56v.8h-7.56Zm0,3.2h7.56v.8h-7.56Zm0,3.2h7.56v.8h-7.56Zm0,3.2h7.56v.8h-7.56Zm0,3.2h7.56v.8h-7.56Zm0,3.2h7.56v.8h-7.56Zm0,3.2h7.56v.8h-7.56Z"/></g></svg>