<svg xmlns="http://www.w3.org/2000/svg" width="305.43" height="301.29" viewBox="0 0 305.43 301.29"><defs><style>.cls-1{fill:#febb00;stroke:#000;stroke-miterlimit:10;stroke-width:2px;}.cls-2{fill:red;}</style></defs><g id="Layer_2" data-name="Layer 2"><circle cx="152.72" cy="176.52" r="123.47"/><path class="cls-1" d="M152.72,176.52H265.06c0,61.63-50.71,112.34-112.34,112.34S40.37,238.15,40.37,176.52,91,64.24,152.59,64.17Z"/><rect x="146.24" y="16.58" width="12.96" height="41.11" rx="6.48"/><circle cx="152.72" cy="16.58" r="14.48"/><path class="cls-2" d="M76.49,201.46l39.76-73.6h19.88V184.5h13.72v19.68H136.13v19.68H116.67V204.18H76.49Zm45.36-1.76v19.68H131V199.7h13.72V189H131V132.34H119.61L83.21,199.7ZM86,197.14h57.4v.8h-58Zm1.68-3.2h55.72v.8H87.27Zm1.68-3h54v.8H88.81Zm1.68-3.2h7.28l-.56.8H90.63Zm1.82-3.2H100l-.56.8H92.31Zm1.68-3.2h7.14l-.56.8h-7Zm1.68-3h7l-.28.64H96Zm1.82-3.2h6.86l-.56.8H97.49Zm23.24-28.64h.56V189H99.17ZM99.73,171.86h6.86l-.56.8H99.31Zm1.82-3.2h6.72l-.56.8H101Zm1.68-3.2H110l-.56.8h-6.58Zm1.68-3h6.58l-.42.8h-6.72Zm11.76,22.08V164L106,184.5Zm-10.08-25.28H113l-.42.8h-6.44Zm1.82-3.2h6.3l-.42.8h-6.44Zm1.68-3.2h6.3l-.42.8h-6.3Zm1.68-3h6.16l-.28.64h-6.16Zm1.68-3.2h6.16l-.56.8h-6Zm1.82-3.2H121l-.56.8h-5.74Zm1.68-3.2h5.74l-.56.8h-5.74Zm1.68-3.2h5.74l-.56.8h-5.6Zm1.68-3h5.74l-.56.8h-5.74Z"/><path class="cls-2" d="M175.89,197.46c3.92,7,9.38,8.64,13.86,8.64,7.56,0,12.88-5.44,12.88-13.76,0-9.12-5.6-12.32-14.7-12.32h-24.5V127.86H219V149H183.87v10.24h3.36c20.44,0,35,10.24,35,32.64,0,19.68-14.28,35-32.48,35-12,0-23.94-7.36-30.1-19Zm13.86,25c15.26,0,27.3-13.44,27.3-30.56,0-19.36-12.46-28.16-29.82-28.16h-8.54V144.5h35.14V132.34H168.61v43.2H190c12.32,0,17.78,6.24,17.78,16.8,0,11-7.42,18.24-18.06,18.24a19.82,19.82,0,0,1-15.4-6.72l-8,5.44C172.11,217.78,180.65,222.42,189.75,222.42ZM178.83,134.9h33.74v.8H178.83Zm0,3.2h33.74v.8H178.83Zm0,3.2h33.74v.8H178.83Zm0,24.64h15.82l3.64.8H178.83Zm0,3.2h24.92l1.68.8h-26.6Zm0,3.2h29.54l.84.8H178.83Zm9.8,41.6h18.06l-.84.8H188.63Zm0,3.2h13.86l-1.4.8H188.63Zm0,3.2h6.3l-3.78.48h-2.52Zm9-9.6h12.18l-.7.8H195.35ZM211,175.54l.7.8H201.09l-1.82-.8Zm-8.12,32h8.82l-.56.8h-9.24Zm9.94-28.8.42.8h-8.12l-.84-.8Zm-7.28,25.6h7.7l-.42.8H205Zm1.12-22.4h7.56l.28.8h-7.42Zm.56,19.2h7.14l-.28.8H207Zm.84-16h7l.28.8h-7.14Zm.28,12.8h6.86l-.28.8h-6.72Zm.28-9.6h6.86l.14.8h-6.72Zm.28,6.4h6.72l-.14.8h-6.72Zm.14-3.2h6.72v.8h-6.72Z"/></g></svg>