<svg xmlns="http://www.w3.org/2000/svg" width="305.43" height="301.29" viewBox="0 0 305.43 301.29"><defs><style>.cls-1{fill:#febb00;stroke:#000;stroke-miterlimit:10;stroke-width:2px;}</style></defs><g id="Layer_2" data-name="Layer 2"><circle cx="152.72" cy="176.52" r="123.47"/><circle class="cls-1" cx="152.72" cy="176.52" r="112.34"/><rect x="146.24" y="16.58" width="12.96" height="41.11" rx="6.48"/><circle cx="152.72" cy="16.58" r="14.48"/><path d="M78.38,153.3c0-17.6,13.44-31.84,29.68-31.84,18.34,0,29.54,17.44,29.54,31v1.12h-21v-1c0-5.44-3.78-9.28-8.54-9.28s-9,4.32-9,9.92V164c4.2-2.4,8.4-2.72,12.32-2.72,14.28,0,26.18,14.08,26.18,30.72,0,17.44-13.16,31.84-29.54,31.84-17.64,0-29.68-13.92-29.68-31.84Zm29.68,66.08c13.44,0,24.36-12.32,24.36-27.36,0-14.24-9.52-26.24-21-26.24-8.54,0-13.16,3.2-15.82,7.2H93.92V153.3a14.21,14.21,0,0,1,14.14-14.4c6.86,0,12.6,5,13.3,10.24h10.78c-1.68-12.64-11.34-23.2-24.08-23.2-13.44,0-24.5,12.16-24.5,27.36V192C83.56,208,93.92,219.38,108.06,219.38Zm-23-69.76h8l-.28.8h-8Zm-.28,3.2h7.84v.8H84.82Zm0,3.2h7.84v.8H84.82Zm0,3.2h7.84v.8H84.82Zm0,3.2h7.84v.8H84.82Zm0,3h7.84v.8H84.82Zm0,3.2h7.84v.8H84.82Zm0,3.2h7.84v.8H84.82Zm0,3.2h40.74l.7.8H84.82Zm0,3.2H99l-1.12.8h-13Zm0,3H96l-.84.8H84.82Zm0,3.2h9.1l-.42.8H84.82Zm0,3.2h8.12l-.28.8H84.82Zm0,3.2h7.7v.8h-7.7Zm.7-44.32h8.4l-.28.64H85.38Zm1-3.2H96l-.7.8h-9.1Zm1.4-3.2H99.1L98,141H87.48Zm2.24-3.36L90,137h35.7l.56.8h-14a18.8,18.8,0,0,0-4.2-.48,15.59,15.59,0,0,0-3.92.48H89.3C89.58,137.3,89.72,137.3,90.14,136.82Zm2.66-3H123l.7.8H92Zm15.26,43.36c9.1,0,14.14,7,14.14,14.72,0,8-6.16,14.72-14.14,14.72-8.54,0-14.28-6.4-14.28-14.88C93.78,184,99,177.14,108.06,177.14Zm-11.34-46.4h22.4l.7.64H95.74Zm1.82,41.12h24.08l-.14-.16,1.12,1h-26Zm9.52,30.24c5.32,0,9.52-4.8,9.52-10.4,0-5.28-3.36-10.08-9.52-10.08-5.88,0-9.52,4.8-9.52,10.08C98.54,197.62,102.6,202.1,108.06,202.1Zm-4.62-33.44h14.14l1.68.8H101.62Zm4.62-41.12a22.72,22.72,0,0,1,5.74.8H102A18.43,18.43,0,0,1,108.06,127.54Zm19.46,50.72.56.8h-9.94l-1.12-.8Zm.14-38.08.56.8h-9.66l-1.12-.8Zm1.4,41.12.42.8h-8.82l-.7-.8Zm-8.68-37.92h8.82l.28.8h-8.54Zm1.54,41.12H130l.28.8h-8Zm.14-37.92h8.12l.14.64H122.2Zm.84,41.12h7.84l.28.8h-7.84Zm.56,3.2h7.7v.8h-7.7Z"/><path d="M152.44,162.9c0-23,15.82-41.44,37.1-41.44,21.56,0,37.66,18.4,37.66,41.44v19.84c0,22.88-16.1,41.12-37.66,41.12-21.28,0-37.1-18.24-37.1-41.12Zm37.1,56.48c18.62,0,32.48-16.32,32.48-36.64V162.9c0-20.48-13.86-37-32.48-37-18.34,0-31.92,16.48-31.92,37v19.84C157.62,203.06,171.2,219.38,189.54,219.38ZM159,159.54h7.42l-.14.8h-7.42Zm-.14,3.2h7.28v.8h-7.28Zm0,3.2h7.28v.8h-7.28Zm0,3.2h7.28v.8h-7.28Zm0,3.2h7.28v.8h-7.28Zm0,3.2h7.28v.8h-7.28Zm0,3.2h7.28v.8h-7.28Zm0,3.2h7.28v.8h-7.28Zm.56-25.6H167l-.28.8h-7.56Zm.56-3.2h7.84l-.28.8h-7.84Zm.84-3.2h8.26l-.42.8h-8Zm1.12-3.2h9.24l-.56.8h-9Zm1.68-3.2H174l-.84.8H163.08Zm2-3.2h12.46l-1.26.8H165Zm1.82,23c0-13.76,9-24.48,22.12-24.48,13.44,0,22.4,10.72,22.4,24.48v18.88c0,13.76-9,24.16-22.4,24.16-13.16,0-22.12-10.4-22.12-24.16Zm.84-26.24H211.1l.84.8h-16.8a24.82,24.82,0,0,0-11.2,0H167.56Zm3.5-3.2H207.6l1,.8h-37.8Zm17.78,68c10.36,0,17.22-8.48,17.22-19.68V163.38c0-11.2-6.86-20-17.22-20-10.08,0-16.94,8.8-16.94,20v18.88C172.6,193.46,179.46,201.94,189.54,201.94Zm-13-71.2H202.7l1.54.8H175.12Zm13-3.2a32.61,32.61,0,0,1,7,.8h-14A24.9,24.9,0,0,1,189.54,127.54Zm24.08,12.8.7.8H202.56l-1.12-.8Zm2.1,3.2.56.8H206.2l-1-.8Zm-7.7,3.2h9.38l.28.8h-9Zm2,3.2h8.54l.28.8h-8.4Zm1.54,3.2h8l.28.8h-8.12Zm.84,3.2h7.84l.14.8H212.5Zm.56,3.2h7.7v.8h-7.56Zm.28,3.2h7.56v.8H213.2Zm0,3.2h7.56v.8H213.2Zm0,3.2h7.56v.8H213.2Zm0,3.2h7.56v.8H213.2Zm0,3.2h7.56v.8H213.2Zm0,3.2h7.56v.8H213.2Zm0,3.2h7.56v.8H213.2Z"/></g></svg>