<svg xmlns="http://www.w3.org/2000/svg" width="1920" height="1080" viewBox="0 0 1920 1080"><defs><style>.cls-1{fill:#fffdaa;}.cls-2{fill:#e2ff9f;}.cls-3{fill:#b6ff94;}.cls-4{fill:#8ad594;}.cls-5{fill:#37ac5f;}.cls-6{fill:#379c4f;}.cls-7{fill:#37c55f;}.cls-8{fill:#8a613c;}.cls-9{fill:#fbbc57;}.cls-10{fill:#fbd877;}.cls-11{fill:#534741;}.cls-12{fill:#c7b299;}.cls-13{fill:#dfb73f;}.cls-14{fill:none;}.cls-15{fill:#f0ce68;}.cls-16{fill:#6b5208;}.cls-17{fill:#ffe59f;}.cls-18{fill:#fcf5e1;}.cls-19{fill:#dcd8cc;}</style></defs><g id="fonas"><rect class="cls-1" width="1920" height="1080"/></g><g id="kalnai1"><path class="cls-2" d="M0,220.59s77.51-53.36,250.53-86.87S546.41,238.83,633,238.83s268.29-111.73,379.87-95.54c251.73,36.71,287.73,182.42,433.63,167.83,280.28-28.05,232.77-117.66,315.8-75s109.91-6.39,157.66-18.7V1080H0Z"/></g><g id="kalnai2"><path class="cls-3" d="M0,280.31s225.33-61,543.29,118.31c291.33,164.42,238.77-17.32,402,12s94.07,73,234.93,66.09,218.86-96.2,356.6-82.08,183.34,145,282.68,56.23c0,0,53-101.79,100.55-98.33V1080H0V280.31Z"/><path class="cls-3" d="M277.62,201.3c-.74-10.82-17.23,4-12-4.73s-8.24-10.82-8.24-10.82c1.06-12.45-11-17.1-18.19-18.74.83-.66,1.69-1.39,2.57-2.23,16-15.24,8-.81,24-9s-11.55-23.06-11.55-23.06,20.44,0,15.11-8.83-15.11,8.83-8.89-5.61-23.11-10.43-8.89-16-9.67-18.45-9.67-18.45-25.89-4-8-7.21,0-15.24,0-15.24-1.93-5.62-.15-15.24-13.33-6.42-13.33-6.42A21.16,21.16,0,0,0,224,25.23c-.89-8.82-16-1.61-16-1.61s4.45-8.82,0-12.83-23.11,16-16.89,0S168,10,176,1.17s-11.56-9.62-14.22-12S151.11-6,144-15.41s-16.89,4.55-16.89,4.55-5.34-6.42-16.89-4c-10.1,2.1-11.56,12-11.56,12S96.88-9.26,80-7.65s-7.11,25-7.11,25S70.22,12.4,58.29,14c-7.06.95-4.06,6.13-.44,10.19a56.34,56.34,0,0,0-9-1.37c-18.67-1.6-2.67,16-2.67,16s4.45,19.25-9.77,16.84C27,54.11,31.23,67.61,35.16,76.93c-2,.49-5,2.82-9.39,8.45-15.11,19.25,7.11.8,5.33,16s16,8,18.67,14.43-6.22,4-23.11,6.42c-12.82,1.83-7.21,11-3.76,15.38-4.66-4.85-16.4-14-22,9.48-7.11,29.67,17.78,17.65,17.78,17.65s-16.89,11.22,0,25.66,18.66-8.82,19.55,12.83,29.34,0,29.34,0S62.22,188,79.11,189.64c4.21.4,7,0,8.78-.83,9.41,3.32,22.32,8,24.86,9.38,0,0,14.56,2.24,17.79,30.29s1.52,46.28,1.52,46.28,3.65,84.51.1,87.71-10.07,15.29-10.07,15.29,26.22,5.17,43.42,0c0,0-13.11-110.13-6.55-144.12,0,0,12.29-12.57,23.75-13.31a102.41,102.41,0,0,0,12.68-1.66,7.08,7.08,0,0,1,.58,2.91c0,8.78,10.48,1.35,13.48,16.22s24.72.67,24.72.67c20.23,8.79,21.77-4.73,21.77-4.73s-6.78-14.87,5.95-17.57S278.37,212.11,277.62,201.3Zm-86.75-62.75a37.89,37.89,0,0,1,2.16,4.33,35,35,0,0,0,3.8,7c-5.58,2.79-10.32,4.91-10.91,4.38C184.44,152.89,187.87,142.7,190.87,138.55ZM162.09,117.3c-.82,4.1-2.8,12.74-4.88,11.56-1.62-.91-1.49-5.83-1.13-9.67A13.53,13.53,0,0,1,162.09,117.3Zm-54.32,73a64.78,64.78,0,0,1-17.11-4.49c.83-2.71-.89-5.82-.89-5.82,4.48,1.87,7,.23,8.31-2.46C104.68,182.53,112.21,189.11,107.77,190.32Zm20.81-24-1.27,26.41s0,6.91-27.67-23.32c0-1.79-.09-3.07-.09-3.07C136,149.54,104,135.9,104,135.9s-11.29-16.52,1.09-8.43c4.09,2.67,7.48,3.61,10.19,3.69C120.16,142.42,129.07,163.52,128.58,166.36Zm9.18-2.71c-1.91-.38-14.51-22.07-17.67-33.39a9.16,9.16,0,0,0,3.36-2.4,42.87,42.87,0,0,0,10.84,3.72C135.74,140.16,139.64,164,137.76,163.65Zm7.56-3.22c-5.68-3-4.81-22.05-4.3-29a5,5,0,0,0,2.92-2,61.66,61.66,0,0,1,8.09-7.54C151.77,135.56,150.58,163.21,145.32,160.43Zm8.15,2c2.38-24.83,11.72-38.93,12.74-39.39.44-.2.85-1.47,1.18-2.85a13.79,13.79,0,0,1,1.74,4.2c3.21,12.64,8.62,6,14.86,7.83-.17,7.06-.76,18.44-2.83,20.93-3.06,3.68-.51,10.12-26.33,29.43C154.83,182.58,151.09,187.25,153.47,162.43Zm55.23,3.72c-9.74,1.35,0,7.44-13.48,6.76s-11.24.68-15.74,12.84,18.73,2.71,11.24,16.22a21.11,21.11,0,0,0-2.05,4.85c-9.9,7.53-29.81,22.35-31.46,21-2.21-1.84-3.91-31,3.22-37.55,6.4-5.91,24.28-29.08,38.08-38.54,6,5.19,9-8.11,10.33,1.83.67,4.89,2.27,7.43,4,8.72C212.74,164.23,214.7,165.32,208.7,166.15Z"/><path class="cls-3" d="M956.2,348.79c-.79-16.36-18.16,6.13-12.63-7.16s-8.69-16.35-8.69-16.35c1.12-18.85-11.65-25.87-19.18-28.36.88-1,1.78-2.1,2.72-3.37,16.87-23.05,8.43-1.22,25.3-13.64S931.54,245,931.54,245s21.55,0,15.93-13.34S931.54,245,938.1,223.2s-24.37-15.77-9.37-24.26S918.54,171,918.54,171s-27.3-6.07-8.4-10.92,0-23.05,0-23.05-2-8.49-.16-23-14.05-9.71-14.05-9.71,4.68-8.49,3.75-21.83-16.87-2.43-16.87-2.43,4.69-13.34,0-19.4-24.36,24.26-17.8,0-24.37-1.22-15.93-14.56-12.19-14.56-15-18.19S822.84,35.18,815.34,21s-17.8,6.89-17.8,6.89-5.63-9.71-17.81-6.07C769.08,25,767.55,40,767.55,40s-1.87-9.71-19.68-7.28-7.5,37.79-7.5,37.79-2.81-7.47-15.37-5c-7.45,1.44-4.29,9.27-.48,15.41a42.69,42.69,0,0,0-9.45-2.07c-19.67-2.43-2.81,24.26-2.81,24.26S717,132.22,702,128.58c-9.91-2.4-5.48,18-1.34,32.1-2.11.74-5.24,4.27-9.9,12.78-15.93,29.11,7.5,1.22,5.62,24.26S713.2,209.85,716,219.56s-6.56,6.06-24.36,9.7c-13.52,2.76-7.6,16.7-4,23.26-4.92-7.34-17.29-21.15-23.22,14.34-7.49,44.88,18.74,26.69,18.74,26.69s-17.8,17,0,38.81,19.68-13.34,20.62,19.41,30.92,0,30.92,0-5.62-23,12.18-20.62c4.45.61,7.37,0,9.26-1.24,9.93,5,23.54,12,26.21,14.17,0,0,15.35,3.4,18.75,45.82s1.61,70,1.61,70,3.84,127.81.1,132.66-10.61,23.11-10.61,23.11,27.63,7.83,45.77,0c0,0-13.82-166.55-6.91-218,0,0,12.95-19,25-20.12a78.2,78.2,0,0,0,13.36-2.52,14.78,14.78,0,0,1,.61,4.4c0,13.28,11.06,2,14.22,24.53s26.06,1,26.06,1c21.32,13.29,23-7.15,23-7.15s-7.16-22.49,6.27-26.58S957,365.14,956.2,348.79Zm-91.45-94.9c.75,1.84,1.52,4,2.28,6.54A63.08,63.08,0,0,0,871,271c-5.88,4.22-10.88,7.43-11.5,6.62C858,275.58,861.59,260.16,864.75,253.89Zm-30.34-32.15c-.86,6.2-2.95,19.27-5.15,17.49-1.7-1.38-1.57-8.81-1.18-14.62C830.23,222.92,832.41,221.79,834.41,221.74ZM777.15,332.18a52.08,52.08,0,0,1-18-6.78c.87-4.11-.94-8.81-.94-8.81,4.72,2.83,7.33.35,8.75-3.73C773.89,320.4,781.83,330.35,777.15,332.18ZM799.09,296l-1.34,39.94s0,10.46-29.17-35.27c0-2.71-.09-4.65-.09-4.65,38.42-25.47,4.68-46.09,4.68-46.09s-11.89-25,1.16-12.75c4.31,4,7.88,5.46,10.73,5.57C790.21,259.74,799.6,291.65,799.09,296Zm9.67-4.1c-2-.58-15.29-33.39-18.62-50.5a11,11,0,0,0,3.54-3.64c4.74,3.22,8.48,4.9,11.42,5.64C806.64,256.32,810.74,292.42,808.76,291.85Zm8-4.87c-6-4.53-5.07-33.35-4.53-43.89a6,6,0,0,0,3.08-3.05,83.87,83.87,0,0,1,8.53-11.39C823.53,249.36,822.27,291.18,816.73,287Zm8.59,3c2.51-37.55,12.36-58.87,13.43-59.57.47-.3.9-2.22,1.24-4.3a25.52,25.52,0,0,1,1.84,6.35c3.39,19.12,9.09,9.09,15.66,11.83-.17,10.69-.79,27.9-3,31.67-3.22,5.56-.53,15.3-27.75,44.5C826.76,320.47,822.82,327.54,825.32,290Zm58.23,5.64c-10.27,2.05,0,11.25-14.22,10.22s-11.84,1-16.58,19.43,19.74,4.09,11.84,24.53a40,40,0,0,0-2.16,7.34C852,368.53,831,390.94,829.26,388.86c-2.32-2.79-4.12-46.83,3.41-56.8,6.74-8.94,25.59-44,40.13-58.29,6.35,7.86,9.46-12.27,10.89,2.77.71,7.4,2.39,11.24,4.18,13.19C887.81,292.72,889.88,294.37,883.55,295.63Z"/><path class="cls-3" d="M667.2,254.69s10.31-5.83,5.16-13.85-7.73-8-7.73-8,6.44-13.12-2.8-20.65-20.4-1.46-20.4-1.46,4.29-14.33-7.52-15.55-14.61,2.19-14.61,2.19l-1.07-4.13s29.86-1.46,30.93-24.29-9.24-24.3-9.24-24.3,12.46-12.63,2.37-32.8S616.51,96,616.51,96s3.44-4.37-3.43-6.32,10.52-11.17-6.23-22.83C593.06,57.29,590,63.48,589.4,66c1.09-6.26,6.55-43-15.85-44.77-24.48-1.94-26.2,5.35-26.2,5.35s-4.3-12.32-15.9-5.68c0,0-.21-11.33-9.45-10.36s-9.45,4.86-9.88,5.59.22-8.5-11.81-10c-9.18-1.11-8.48,6.54-7.63,10.23C491.32,12.16,487.26,2.71,478.83,6c-9.22,3.64-10.21,5.41-10.3,5.83.09-1.29.67-15.28-16.33-12-17.83,3.4-15.68,20.41-15.68,20.41s-18.26-3.89-17.19,8-.21-2.19-6.66-.73S407.3,38,407.3,38s-6.44-10.69-18.9-.49,3,30.85,3,30.85-9.7-1.21-7.86,12.64c0,0-7.61-4.13-7.61,6.31,0,0-17-1.7-16.32,9.72s10.1,21.87,10.1,21.87-17.4-1-5.37,15.79-5.63-6.32-4.75,9c.51,8.88,2.89,11,4.81,11.16-2.24.78-5,2.18-3.93,4.14,1.72,3.16-15.9-10.68-14.82,9.24s1.29-16-24.27-4.62-12.89,25-12.89,25-15.25-5.83-13.32,10.94-8.38.48-14.6,2.43S270.27,224.8,286,224.08c0,0-22.34,15.79-1.51,24.53S289,263,289,263s-12.24,13.6,9.45,18c0,0-5.15,8,16.76,5.34,0,0-.86,16,12.89,19.92s18.47-3.88,18.47-3.88,2.79,6.56,14.82,6.31-16.54,3.16-9.67,13.37,13.75,11.66,13.75,11.66-13.75,10.44-.43,15.06c0,0-6.66,11.18,10.31,11.9,0,0-1.07,7.54,10.09,1,0,0,7.09,10,17.4,3.4,0,0,3.87,5.1,9.45-1.7,0,0,15.9,15.06,23.85-4.38,0,0,3.13-2.1,7.11-5.43,9.59,4.29,19.74,13.08,22.74,31.1,6.13,36.85,3.83,73.71,3.83,73.71s32.2,7.37,49.83-3.47c0,0-24.91-88.45-2.68-124.44,0,0,10.73-19.94,34.5-23.85l5.05-.83c1.51,2.46,3.11,4.35,4.81,4.52,0,0,8.86,12,18.27,9.68L591.18,317s2.59-5.41,5.82-3.07,4.52,6.72,9.69,5.26,2.95-4,6-3.5,5.8,5.1,9.45,6.56,23.62,6.56,23.19-19.92,15-16.77,15-16.77,17,5.83,21-14.09S667.2,254.69,667.2,254.69ZM449.89,242.82l-.12-6.48a28.71,28.71,0,0,0,3.23-.16c5.32,16.15,13.38,43.6,11,55.18a129.8,129.8,0,0,1-23.74-13.05c3.12-6.95-1.46-9-1.46-9S467.72,264.16,449.89,242.82Zm-.56,105.08c7.39-7.44,14.08-17.27,8.39-25-10.58-14.42-19.07-3.66-19.07-3.66s8.24-13.76-7.07-12.51c0,0,1.15-4.16-3.67-3.8,0,0,4.3-9.85-12.84-6.3l.5-5.69a19.53,19.53,0,0,0,21.17-7c15,10.45,34.56,32.47,29.2,74.64C465.94,358.56,466.76,365.71,449.33,347.9Zm25.42-90.36c-3.45-2.28-8.19-12.12-11.16-24.94,3,1.73,8.16,6.1,14.73,8.54C477.89,250.5,476.92,259,474.75,257.54Zm11.5,4.77c-2-1.49-1.81-11.4-1.31-19.58a22.51,22.51,0,0,0,5.61-.1,49,49,0,0,0,11-2.68C496.55,249.65,488.56,264.05,486.25,262.31Zm23,44.22c-3.06-2.6-4.21-39.89-3.45-48.12.48-5.11,4.33-10.71,7.2-14.23a5.4,5.4,0,0,0,1.81.57c5.45.67,3.53,24.19,14.1,24.79,0,0-2.84,15.32,10.71,17.17C529.33,294.8,511.42,308.37,509.25,306.53Zm30.29-4.77c-1.92-2.6,2.3-5.2,2.3-5.2l5.9-3.68h.06c1.88-.2,3.87,3.8,6,8C547.67,302.13,540.59,303.19,539.54,301.76Z"/></g><g id="krumai"><path class="cls-4" d="M638.1,784.55c0,33.64-.91,22.63-2.7,28.58-1.78,27.38-4.43,31.58-7.89,27.52-3.45,18.23-7.72,20.75-12.75,26.25-5,16-10.8,19.25-17.28,24.76-6.49,14.69-13.67,19.26-21.5,23.06-7.84,18.83-16.32,5.24-25.39,21.15-9.07-16.31-18.74,35.16-29,19-10.21,12.82-20.95,22.23-32.18,16.69-11.24,8.53-22.95,3.21-35.1,14.12s-24.73,22.47-37.69,11.36c-12.95.24-26.29,7.65-39.94,8.38-13.66,11.92-27.64-2.25-41.89,5.18-14.25-.39-28.76,5.82-43.5,1.78-14.73,14.49-29.24,7.64-43.49-1.78-14.25-2-28.23-8.82-41.89-5.18A227.86,227.86,0,0,0,166,997.06c-13-1.69-25.54-10.2-37.69-11.36-12.15-12.14-23.86-6.47-35.1-14.12-11.23-2.11-22-6-32.18-16.69-10.21-4.2-19.88-1.82-28.95-19-9.07-6.54-17.55-4.41-25.39-21.15-7.83-6.32-15-7.61-21.5-23.06-6.48-33.91-12.26-16-17.28-24.76-5,27.55-9.3-62.1-12.75-26.25-3.46,5.27-6.11-14.83-7.89-27.52-1.79,9.93-2.7,17.53-2.7-28.58,0-36.75.63-4.94,1.88-23.89,1.24-42.15,3.09-40,5.52-23.18,2.43-5.66,5.43-20.37,9-22.34,3.55,17.8,7.64-48.38,12.24-21.38,4.6,18.43,9.72-6.47,15.31-20.3C-5.89,695,.19,734.68,6.71,654.37c3.92-10.6,8-34.46,12.23-10.83,4.23-17.87,8.62-20.94,13.16-10.32,4.54-8.26,9.22-55.55,14-13.82,4.83-2.61,9.79-39.29,14.9-5.2,5.1-8.49,10.34-1.56,15.71-12.47,5.36,11.14,10.86,2.11,16.47-4.22,5.62,4.92,11.36,4,17.21-5.06,5.85-7.31,11.82-5.31,17.89-9.06,6.08,38.75,12.26,37.38,18.54.17,6.28-1.44,12.67-19.1,19.15-11.53,6.47-2.63,13,20.65,19.71-5.24,6.66,15.48,13.41-16.57,20.23-3.14,6.83-36.71,13.74-17.68,20.72-3.12,7,13.69,14-17.92,21.17-2.06,7.12,7.57,14.31,16.21,21.57-1.54,7.25-14.64,14.56-2.8,21.92-.24,14.74-19.48,29.25-25.53,43.5,1.78,14.25-17.9,28.23-.78,41.89,5.18,13.65,11.55,27,32,39.94,8.38,13-16,25.54,26.49,37.69,11.36,12.15-9.2,23.86-12.22,35.1,14.12,11.23,8.09,22,32.93,32.18,16.69,10.21-.8,19.88,19.26,29,19,9.07,37,17.55,26.52,25.39,21.15,7.83,28.28,15,41.44,21.5,23.06,6.48,14,12.26,25.5,17.28,24.76,5-9.19,9.3-.25,12.75,26.25,3.46-2.36,6.11,44.89,7.89,27.52C637.19,747.39,638.1,760.71,638.1,784.55Z"/><path class="cls-4" d="M999.36,784.55c0,33.64-.92,22.63-2.7,28.58-1.78,27.38-4.43,31.58-7.89,27.52-3.46,18.23-7.72,20.75-12.75,26.25-5,16-10.8,19.25-17.29,24.76-6.48,14.69-13.66,19.26-21.5,23.06-7.83,18.83-16.31,5.24-25.38,21.15-9.08-16.31-18.74,35.16-29,19-10.21,12.82-20.95,22.23-32.19,16.69-11.23,8.53-23,3.21-35.09,14.12s-24.73,22.47-37.69,11.36c-13,.24-26.29,7.65-39.95,8.38-13.65,11.92-27.63-2.25-41.88,5.18-14.25-.39-28.77,5.82-43.5,1.78-14.73,14.49-29.25,7.64-43.49-1.78-14.25-2-28.23-8.82-41.89-5.18a227.77,227.77,0,0,0-40-8.38c-12.95-1.69-25.53-10.2-37.68-11.36-12.15-12.14-23.87-6.47-35.1-14.12-11.23-2.11-22-6-32.18-16.69-10.21-4.2-19.88-1.82-28.95-19-9.08-6.54-17.56-4.41-25.39-21.15-7.83-6.32-15-7.61-21.5-23.06-6.48-33.91-12.26-16-17.29-24.76-5,27.55-9.29-62.1-12.75-26.25-3.45,5.27-6.1-14.83-7.88-27.52-1.79,9.93-2.71,17.53-2.71-28.58,0-36.75.64-4.94,1.89-23.89,1.24-42.15,3.09-40,5.52-23.18,2.42-5.66,5.43-20.37,9-22.34,3.55,17.8,7.64-48.38,12.24-21.38,4.6,18.43,9.72-6.47,15.31-20.3,5.6,21.52,11.67,61.22,18.2-19.09,3.92-10.6,8-34.46,12.23-10.83,4.23-17.87,8.62-20.94,13.16-10.32,4.53-8.26,9.22-55.55,14.05-13.82,4.82-2.61,9.79-39.29,14.9-5.2,5.1-8.49,10.34-1.56,15.7-12.47,5.37,11.14,10.87,2.11,16.48-4.22,5.62,4.92,11.36,4,17.21-5.06,5.85-7.31,11.82-5.31,17.89-9.06,6.07,38.75,12.26,37.38,18.54.17,6.28-1.44,12.67-19.1,19.14-11.53,6.48-2.63,13.06,20.65,19.72-5.24,6.66,15.48,13.4-16.57,20.23-3.14,6.83-36.71,13.74-17.68,20.72-3.12,7,13.69,14-17.92,21.17-2.06,7.12,7.57,14.31,16.21,21.56-1.54,7.25-14.64,14.57-2.8,21.93-.24,14.73-19.48,29.25-25.53,43.5,1.78,14.25-17.9,28.23-.78,41.88,5.18,13.66,11.55,27,32,39.95,8.38,13-16,25.54,26.49,37.69,11.36,12.14-9.2,23.86-12.22,35.09,14.12,11.24,8.09,22,32.93,32.19,16.69,10.21-.8,19.87,19.26,29,19,9.07,37,17.55,26.52,25.38,21.15,7.84,28.28,15,41.44,21.5,23.06,6.49,14,12.27,25.5,17.29,24.76,5-9.19,9.29-.25,12.75,26.25,3.46-2.36,6.11,44.89,7.89,27.52C998.44,747.39,999.36,760.71,999.36,784.55Z"/><path class="cls-4" d="M1460.9,773.28c0,33.65-.92,22.63-2.7,28.58-1.78,27.38-4.43,31.59-7.89,27.52-3.46,18.23-7.72,20.75-12.75,26.25-5,16-10.8,19.25-17.29,24.76-6.48,14.7-13.66,19.26-21.5,23.07-7.83,18.82-16.31,5.23-25.38,21.15-9.08-16.31-18.74,35.16-29,19-10.21,12.82-21,22.22-32.19,16.68-11.23,8.53-23,3.21-35.09,14.13s-24.73,22.46-37.69,11.36c-13,.23-26.29,7.65-40,8.37-13.65,11.92-27.63-2.25-41.88,5.19-14.25-.39-28.77,5.82-43.5,1.77-14.73,14.49-29.25,7.65-43.49-1.77-14.25-2.05-28.23-8.83-41.89-5.19a227.72,227.72,0,0,0-40-8.37c-12.95-1.7-25.53-10.21-37.68-11.36C939,962.29,927.26,968,916,960.31c-11.23-2.11-22-6-32.18-16.68-10.21-4.21-19.88-1.83-29-19-9.08-6.54-17.56-4.41-25.39-21.15-7.83-6.33-15-7.62-21.5-23.07-6.48-33.91-12.26-16-17.29-24.76-5,27.55-9.29-62.1-12.75-26.25-3.45,5.27-6.1-14.83-7.88-27.52-1.79,9.93-2.71,17.53-2.71-28.58,0-36.75.64-4.94,1.89-23.89,1.24-42.15,3.09-40,5.52-23.17,2.42-5.67,5.43-20.38,9-22.34,3.55,17.79,7.64-48.39,12.24-21.38,4.6,18.42,9.72-6.48,15.31-20.31,5.6,21.52,11.67,61.22,18.2-19.09,3.92-10.6,8-34.46,12.23-10.83C846,614.4,850.36,611.33,854.9,622c4.53-8.25,9.22-55.55,14.05-13.82,4.82-2.61,9.79-39.28,14.9-5.2,5.1-8.49,10.34-1.56,15.7-12.47,5.37,11.15,10.87,2.11,16.48-4.21,5.62,4.92,11.36,4,17.21-5.07,5.85-7.31,11.82-5.3,17.89-9.06,6.07,38.75,12.26,37.38,18.54.18,6.28-1.45,12.67-19.1,19.14-11.54,6.48-2.62,13.06,20.65,19.72-5.24,6.66,15.48,13.4-16.57,20.23-3.14,6.83-36.7,13.74-17.68,20.72-3.12,7,13.69,14-17.91,21.17-2.06,7.12,7.57,14.31,16.22,21.56-1.54,7.26-14.64,14.57-2.79,21.93-.24,14.73-19.47,29.25-25.52,43.5,1.78,14.25-17.9,28.23-.77,41.88,5.18,13.66,11.56,27,32,40,8.38,13-16,25.54,26.5,37.69,11.36,12.14-9.2,23.86-12.22,35.09,14.13,11.24,8.08,22,32.93,32.19,16.68,10.21-.8,19.87,19.26,29,19,9.07,37,17.55,26.53,25.38,21.15,7.84,28.29,15,41.44,21.5,23.06,6.49,14,12.27,25.51,17.29,24.77,5-9.19,9.29-.26,12.75,26.24,3.46-2.36,6.11,44.89,7.89,27.53C1460,736.13,1460.9,749.45,1460.9,773.28Z"/><path class="cls-4" d="M1946.64,784.55c0,33.64-.91,22.63-2.7,28.58-1.78,27.38-4.43,31.58-7.89,27.52-3.45,18.23-7.72,20.75-12.75,26.25-5,16-10.8,19.25-17.28,24.76-6.49,14.69-13.67,19.26-21.5,23.06-7.84,18.83-16.32,5.24-25.39,21.15-9.07-16.31-18.74,35.16-29,19-10.21,12.82-21,22.23-32.18,16.69-11.24,8.53-23,3.21-35.1,14.12s-24.73,22.47-37.69,11.36c-13,.24-26.29,7.65-39.94,8.38-13.66,11.92-27.64-2.25-41.89,5.18-14.25-.39-28.76,5.82-43.5,1.78-14.73,14.49-29.24,7.64-43.49-1.78-14.25-2-28.23-8.82-41.89-5.18a227.86,227.86,0,0,0-39.94-8.38c-13-1.69-25.54-10.2-37.69-11.36-12.15-12.14-23.86-6.47-35.1-14.12-11.23-2.11-22-6-32.18-16.69-10.21-4.2-19.88-1.82-28.95-19-9.07-6.54-17.55-4.41-25.39-21.15-7.83-6.32-15-7.61-21.5-23.06-6.48-33.91-12.26-16-17.28-24.76-5,27.55-9.3-62.1-12.75-26.25-3.46,5.27-6.11-14.83-7.89-27.52-1.79,9.93-2.7,17.53-2.7-28.58,0-36.75.63-4.94,1.88-23.89,1.24-42.15,3.09-40,5.52-23.18,2.43-5.66,5.43-20.37,9-22.34,3.55,17.8,7.64-48.38,12.24-21.38,4.6,18.43,9.72-6.47,15.31-20.3,5.6,21.52,11.68,61.22,18.2-19.09,3.92-10.6,8-34.46,12.23-10.83,4.23-17.87,8.62-20.94,13.16-10.32,4.54-8.26,9.22-55.55,14-13.82,4.83-2.61,9.79-39.29,14.9-5.2,5.1-8.49,10.34-1.56,15.71-12.47,5.36,11.14,10.86,2.11,16.47-4.22,5.62,4.92,11.36,4,17.21-5.06,5.85-7.31,11.82-5.31,17.89-9.06,6.08,38.75,12.26,37.38,18.54.17,6.28-1.44,12.67-19.1,19.15-11.53,6.47-2.63,13,20.65,19.71-5.24,6.66,15.48,13.41-16.57,20.23-3.14,6.83-36.71,13.74-17.68,20.72-3.12,7,13.69,14-17.92,21.17-2.06,7.12,7.57,14.31,16.21,21.57-1.54,7.25-14.64,14.56-2.8,21.92-.24,14.74-19.48,29.25-25.53,43.5,1.78,14.25-17.9,28.23-.78,41.89,5.18,13.65,11.55,27,32,39.94,8.38,13-16,25.54,26.49,37.69,11.36,12.15-9.2,23.86-12.22,35.1,14.12,11.23,8.09,22,32.93,32.18,16.69,10.21-.8,19.88,19.26,29,19,9.07,37,17.55,26.52,25.39,21.15,7.83,28.28,15,41.44,21.5,23.06,6.48,14,12.26,25.5,17.28,24.76,5-9.19,9.3-.25,12.75,26.25,3.46-2.36,6.11,44.89,7.89,27.52C1945.73,747.39,1946.64,760.71,1946.64,784.55Z"/></g><g id="fonomedziai"><path class="cls-4" d="M2010.83,327.53s14.51-9.52,7.25-22.62-10.88-13.09-10.88-13.09,9.07-21.43-3.94-33.73-28.73-2.39-28.73-2.39,6-23.41-10.59-25.39-20.57,3.57-20.57,3.57l-1.51-6.75s42-2.38,43.56-39.68-13-39.69-13-39.69,17.54-20.63,3.33-53.57-36.3-25.8-36.3-25.8,4.84-7.14-4.84-10.32,14.82-18.25-8.77-37.3c-19.41-15.67-23.67-5.56-24.57-1.48,1.54-10.22,9.22-70.22-22.32-73.13-34.48-3.17-36.9,8.73-36.9,8.73s-6-20.12-22.39-9.26c0,0-.3-18.52-13.3-16.93s-13.31,7.94-13.92,9.13.3-13.89-16.64-16.27c-12.92-1.82-11.93,10.68-10.74,16.71-1.91-6.89-7.63-22.33-19.5-16.89-13,6-14.38,8.83-14.51,9.53.12-2.12,1-25-23-19.67C1682.93-83.2,1686-55.42,1686-55.42s-25.71-6.35-24.2,13.09-.3-3.57-9.38-1.19-7.56,17.07-7.56,17.07-9.08-17.47-26.62-.8,4.24,50.4,4.24,50.4-13.67-2-11.07,20.64c0,0-10.71-6.75-10.71,10.32,0,0-23.9-2.78-23,15.87s14.21,35.72,14.21,35.72-24.5-1.59-7.56,25.79-7.91-10.32-6.68,14.68c.72,14.52,4.08,17.92,6.77,18.23-3.15,1.28-7,3.56-5.53,6.78,2.42,5.16-22.39-17.47-20.87,15.08s1.81-26.2-34.18-7.54-18.15,40.87-18.15,40.87-21.48-9.52-18.76,17.86-11.79.79-20.57,4-14.52,37.3,7.57,36.11c0,0-31.46,25.8-2.12,40.08s6.35,23.42,6.35,23.42-17.24,22.22,13.31,29.36c0,0-7.26,13.1,23.59,8.73,0,0-1.21,26.2,18.15,32.55s26-6.35,26-6.35,3.93,10.71,20.87,10.31-23.29,5.16-13.61,21.83,19.35,19.05,19.35,19.05-19.35,17.06-.6,24.6c0,0-9.38,18.26,14.52,19.45,0,0-1.51,12.3,14.22,1.59,0,0,10,16.27,24.5,5.55,0,0,5.44,8.34,13.31-2.78,0,0,22.38,24.61,33.57-7.14,0,0,4.41-3.43,10-8.87,13.51,7,27.8,21.36,32,50.79,8.64,60.2,5.4,120.4,5.4,120.4s45.34,12,70.18-5.66c0,0-35.09-144.48-3.78-203.27,0,0,15.11-32.58,48.58-38.95l7.11-1.37c2.13,4,4.39,7.12,6.78,7.4,0,0,12.48,19.67,25.73,15.81l16.38-4.78s3.64-8.82,8.19-5,6.37,11,13.65,8.59,4.15-6.51,8.38-5.72,8.17,8.34,13.31,10.72,33.28,10.71,32.67-32.54,21.18-27.39,21.18-27.39,23.89,9.53,29.64-23S2010.83,327.53,2010.83,327.53Zm-306-19.39-.17-10.58a34.87,34.87,0,0,0,4.55-.26c7.49,26.38,18.85,71.21,15.52,90.13,0,0-18.07-8.47-33.44-21.31,4.4-11.35-2-14.64-2-14.64S1729.9,343,1704.79,308.14ZM1704,479.79c10.41-12.15,19.83-28.22,11.82-40.88-14.91-23.54-26.86-6-26.86-6s11.6-22.49-10-20.44c0,0,1.62-6.79-5.16-6.21,0,0,6.06-16.09-18.08-10.29l.7-9.29s17.33,7,29.81-11.43c21.09,17.06,48.67,53,41.12,121.92C1727.39,497.21,1728.55,508.88,1704,479.79Zm35.81-147.6c-4.86-3.72-11.54-19.79-15.72-40.74,4.24,2.84,11.49,10,20.74,13.95C1744.23,320.7,1742.85,334.52,1739.81,332.19ZM1756,340c-2.79-2.44-2.55-18.62-1.85-32a27.74,27.74,0,0,0,7.91-.17,61.43,61.43,0,0,0,15.51-4.38C1770.5,319.31,1759.25,342.83,1756,340Zm32.39,72.24c-4.32-4.25-5.94-65.16-4.86-78.61.67-8.34,6.1-17.48,10.14-23.24a6.86,6.86,0,0,0,2.54.92c7.68,1.1,5,39.52,19.86,40.5,0,0-4,25,15.08,28C1816.66,393.06,1791.45,415.23,1788.39,412.22Zm42.65-7.79c-2.7-4.25,3.24-8.5,3.24-8.5l8.31-6h.09c2.63-.33,5.44,6.2,8.49,13.08C1842.49,405,1832.52,406.77,1831,404.43Z"/><path class="cls-4" d="M1554.74,399.51c-1.07-20.76-24.43,7.78-17-9.08s-11.68-20.76-11.68-20.76c1.51-23.91-15.66-32.81-25.79-36,1.18-1.26,2.4-2.66,3.65-4.28,22.69-29.24,11.35-1.54,34-17.3s-16.38-44.26-16.38-44.26,29,0,21.42-16.93-21.42,16.93-12.6-10.78-32.77-20-12.6-30.78-13.71-35.4-13.71-35.4-36.7-7.69-11.29-13.85,0-29.24,0-29.24-2.73-10.78-.21-29.25-18.9-12.31-18.9-12.31,6.3-10.77,5-27.7S1456,58.53,1456,58.53s6.31-16.93,0-24.63-32.76,30.79-23.94,0-32.77-1.54-21.42-18.47S1394.28-3,1390.5-7.65s-15.12,9.23-25.2-8.73-24,8.73-24,8.73-7.56-12.31-23.94-7.7c-14.32,4-16.39,23.09-16.39,23.09s-2.52-12.31-26.46-9.24-10.08,48-10.08,48-3.78-9.48-20.68-6.4c-10,1.82-5.77,11.76-.64,19.55A61,61,0,0,0,1230.45,57c-26.46-3.08-3.78,30.78-3.78,30.78s6.3,36.94-13.86,32.32c-13.34-3-7.38,22.85-1.81,40.73-2.84.94-7,5.42-13.31,16.22-21.43,36.94,10.08,1.54,7.56,30.78s22.68,15.39,26.46,27.71-8.82,7.69-32.76,12.31c-18.18,3.5-10.22,21.18-5.33,29.51-6.61-9.31-23.25-26.83-31.22,18.2-10.08,56.95,25.2,33.86,25.2,33.86s-23.94,21.55,0,49.25,26.47-16.93,27.73,24.63,41.59,0,41.59,0-7.57-29.24,16.38-26.17c6,.77,9.91,0,12.45-1.57,13.35,6.37,31.65,15.28,35.25,18,0,0,20.64,4.3,25.21,58.13s2.17,88.82,2.17,88.82,5.16,162.18.13,168.32-14.27,29.34-14.27,29.34,37.17,9.92,61.56,0c0,0-18.59-211.34-9.3-276.59,0,0,17.43-24.11,33.68-25.53a110.51,110.51,0,0,0,18-3.19,17.8,17.8,0,0,1,.82,5.58c0,16.86,14.87,2.59,19.12,31.13s35.05,1.3,35.05,1.3c28.67,16.86,30.86-9.08,30.86-9.08s-9.62-28.54,8.43-33.73S1555.8,420.26,1554.74,399.51Zm-123-120.42a85.63,85.63,0,0,1,3.08,8.3,76.7,76.7,0,0,0,5.37,13.37c-7.91,5.36-14.63,9.43-15.47,8.41C1422.63,306.61,1427.5,287.05,1431.74,279.09Zm-40.8-40.79c-1.15,7.87-4,24.44-6.92,22.19-2.29-1.75-2.11-11.18-1.59-18.55C1385.32,239.8,1388.25,238.36,1390.94,238.3Zm-77,140.13a72.61,72.61,0,0,1-24.25-8.61c1.17-5.2-1.27-11.17-1.27-11.17,6.35,3.59,9.86.45,11.77-4.73C1309.55,363.48,1320.23,376.11,1313.94,378.43Zm29.5-46-1.8,50.68s0,13.27-39.22-44.75c0-3.44-.13-5.9-.13-5.9,51.66-32.32,6.3-58.49,6.3-58.49s-16-31.7,1.55-16.18c5.8,5.13,10.6,6.94,14.44,7.08C1331.5,286.52,1344.13,327,1343.44,332.46Zm13-5.2c-2.7-.74-20.56-42.36-25-64.08a14.35,14.35,0,0,0,4.77-4.62c6.38,4.09,11.4,6.22,15.36,7.15C1353.6,282.18,1359.11,328,1356.45,327.26Zm10.71-6.18c-8-5.75-6.81-42.32-6.08-55.69a7.88,7.88,0,0,0,4.14-3.87,106.09,106.09,0,0,1,11.47-14.46C1376.31,273.34,1374.62,326.41,1367.16,321.08Zm11.56,3.82c3.37-47.65,16.62-74.7,18.07-75.59.62-.38,1.21-2.82,1.66-5.45a31.19,31.19,0,0,1,2.47,8c4.56,24.26,12.22,11.54,21.07,15-.24,13.55-1.07,35.39-4,40.18-4.34,7.06-.72,19.41-37.33,56.47C1380.65,363.58,1375.35,372.55,1378.72,324.9Zm78.31,7.16c-13.81,2.59,0,14.26-19.12,13s-15.93,1.29-22.31,24.64,26.56,5.19,15.94,31.13a48.23,48.23,0,0,0-2.91,9.31c-14,14.45-42.26,42.88-44.61,40.23-3.13-3.52-5.54-59.41,4.58-72,9.07-11.35,34.42-55.81,54-74,8.54,10,12.73-15.56,14.65,3.52,1,9.39,3.21,14.27,5.62,16.73C1462.75,328.36,1465.54,330.46,1457,332.06Z"/></g><g id="grass"><path class="cls-5" d="M1992.11,1071.3c-70.33,105.33-486.5,186.25-1073.7,172.71-890.82-20.53-1057-155.62-1050.59-280.88s490-232.24,1073.69-172.72C1671.48,864.84,2201.3,758,1992.11,1071.3Z"/><path class="cls-6" d="M584.11,732.78c0-27.36-20.45-50.62-49-59.19a54.55,54.55,0,0,0,1.57-13c0-34.63-32.76-62.71-73.18-62.71-2.86,0-5.67.15-8.43.42-12.27-19.91-36.66-33.49-64.76-33.49-27.13,0-50.8,12.66-63.44,31.45a86.75,86.75,0,0,0-10.65-.67c-40.42,0-73.19,28.08-73.19,62.72A54.61,54.61,0,0,0,247,678.61c-33.89,5.48-59.53,31-59.53,61.61,0,27,20,50.07,47.94,58.89A54.75,54.75,0,0,0,231,820.5c0,34.64,32.77,62.72,73.19,62.72,18.44,0,35.28-5.86,48.15-15.51,13.43,13.42,33.34,21.94,55.59,21.94,29.49,0,54.89-14.95,66.48-36.49,2.21.18,4.44.28,6.71.28,40.42,0,73.18-28.08,73.18-62.72a52.9,52.9,0,0,0-.49-7.15C572.17,772.18,584.11,753.68,584.11,732.78Z"/><path class="cls-5" d="M568.89,734.38c.35-23.42-17.47-43.59-42.6-51.3A45.16,45.16,0,0,0,527.85,672c.43-29.64-28.22-54.1-64-54.62-2.53,0-5,.05-7.47.25-10.6-17.2-32-29.14-56.89-29.51-24-.35-45.12,10.18-56.54,26.11a78.76,78.76,0,0,0-9.42-.72c-35.78-.52-65.13,23.09-65.56,52.74a45.38,45.38,0,0,0,3.22,17.39c-30.07,4.25-53.08,25.74-53.47,52-.33,23.14,17,43.12,41.7,51a45.36,45.36,0,0,0-4.14,18.26c-.43,29.64,28.21,54.1,64,54.63,16.32.24,31.3-4.56,42.81-12.66,11.71,11.67,29.23,19.22,48.93,19.51,26.09.38,48.76-12.09,59.29-30.37,1.95.17,3.93.29,5.93.32,35.78.52,65.13-23.09,65.56-52.73a44.46,44.46,0,0,0-.34-6.13C557.83,767.94,568.63,752.26,568.89,734.38Z"/><path class="cls-7" d="M509.51,807.24c-14.18,12.29-42.65,14.39-65.07,9s-38-21-16.09-28.58c25.1-8.71,50.49-50.18,72.9-44.77S527.2,791.9,509.51,807.24Z"/><path class="cls-6" d="M344.67,744.46c0-27.36-20.46-50.62-49-59.18a54.68,54.68,0,0,0,1.57-13c0-34.64-32.77-62.72-73.19-62.72-2.85,0-5.66.16-8.43.43-12.26-19.92-36.65-33.5-64.75-33.5-27.13,0-50.8,12.66-63.44,31.46a85,85,0,0,0-10.66-.67C36.38,607.32,3.62,635.4,3.62,670a54.52,54.52,0,0,0,3.92,20.25c-33.89,5.49-59.53,31-59.53,61.62,0,27,20,50.07,47.94,58.88a54.62,54.62,0,0,0-4.37,21.4c0,34.63,34.27,73.65,73.18,62.71,37.12-10.42,62.93-21.3,48.16-15.51,13.42,13.43,33.34,22,55.59,22,29.49,0,54.88-15,66.47-36.49,2.21.17,4.45.27,6.71.27,40.42,0,73.19-28.08,73.19-62.71a54.45,54.45,0,0,0-.49-7.15C332.73,783.86,344.67,765.36,344.67,744.46Z"/><path class="cls-5" d="M329.45,746.06c.34-23.42-17.47-43.59-42.6-51.29a44.81,44.81,0,0,0,1.55-11.07c.44-29.65-28.21-54.11-64-54.63-2.52,0-5,.06-7.46.26-10.61-17.21-32-29.15-56.89-29.51-24-.35-45.12,10.18-56.54,26.1a78.78,78.78,0,0,0-9.43-.71C58.32,624.69,29,648.3,28.53,677.94a45.34,45.34,0,0,0,3.22,17.39c-30.06,4.26-53.07,25.74-53.46,52-.34,23.13,17,43.11,41.7,51a45.32,45.32,0,0,0-4.14,18.25c-.44,29.65,28.21,54.11,64,54.63,16.33.24,31.31-4.56,42.82-12.65,11.71,11.67,29.23,19.22,48.92,19.5,26.1.39,48.77-12.09,59.29-30.37q2.94.27,5.94.32c35.77.53,65.13-23.08,65.56-52.73a45.94,45.94,0,0,0-.34-6.12C318.39,779.63,329.19,764,329.45,746.06Z"/><path class="cls-7" d="M9.61,710.43c17.1-7.73,45.17,21.88,64.92,10,15.85-9.54,19.53,27.08,7.26,32-24.67,9.87-62.72,33.67-82.66,22.08S-11.72,720.08,9.61,710.43Z"/><path class="cls-8" d="M1194.47-58.82h0s142.74-73.77,250.34-126.73c0,0-208.32,213-195.07,126.38s142.07,29.42,140.33-21.58c-.23-6.63,186.74,148.12,188.52,143.35A523.15,523.15,0,0,0,1647.43,71c62.14,3.17,131.06,74.89,131.06,74.89,42.16,196.67-6.86,837.06-6.86,837.06,94,28.34,234.7-4.24,234.7-4.24s-37.6-69.49-57.43-87.72S1932,382,1932,382s-12.8-105.68-.91-268.76,90.13-177.54,90.13-177.54c13.45-8.41,82.31-36.65,132.55-56.83,9.85,4.61,24.93,6.65,47.63,3.92,91-11,65.17,78,65.17,78s158.06,122.89,158.57-2.87,14.74,9,103.17-76.37-5.08-148.95-5.08-148.95,136.93,67.39,92.6-104.13c-35.05-135.63-96.67-81.49-120.94-52.9,17.8-25.51,46.32-79.52-23.34-88.87-91.77-12.31-139.35,2.52-126.2-35s110.67,2.66,98-85.6,111.16,16.62,25.66-93.61c-25-32.23-41.54-45.48-52.43-48.13,19.37-54.47,39.42-133.19-11.12-123-76.41,15.35-56.2-96.79-56.2-96.79s83-104-17.59-92.83c-21.18,2.35-36.74,5.42-48.19,8.8,18.75-23.91,33.94-54.25-4.44-59.08-64.77-8.14-78.2,20.77-78.2,20.77s48.22-136.66-43.4-144.32-99.95,29.75-99.95,29.75-9.84-57.47-64.86-68.69c-62.94-12.83-90.5,24.92-90.5,24.92s-55.62-79.78-92.2-24.76-81.27,13.92-95.21,28.14-119.49,20.79-74.5,71.21-116.59-35.16-79.78,57.32-68.07-22-91.3,1.65,2.55,74.47,2.55,74.47-83.12-40.41-86.18,10.87,22.08,83.44,22.08,83.44-82.32-17.15-70.8,38.53,2.23,88.45,2.23,88.45-94.51,71.57,3,88.43-41.63,42.67-41.63,42.67-126.6,76.8-48.6,108-81.37,10.78-44.87,94-19.86-18.27-46.94,33.45,83.44,49.72,83.44,49.72-146,88.9-57.9,135,42-36.9,131.53,50c5,4.81,9.73,9,14.37,12.69-38.29,10.26-102.83,38.38-94.62,110.58,0,0-72.49,13.08-42.4,63.56s-60-97-62-34.2S1125.09-73.26,1194.47-58.82ZM1617-312.33c-3.1,3.16-29.15-8.69-59.85-24.36,6-9.14,12.34-22.29,19.12-40.81a226.61,226.61,0,0,1,10.86-25.31C1604.15-379,1624.74-320.21,1617-312.33Zm154.32-206.22c2.74,22.25,4.39,50.77-4.16,56.21-11,7-23.46-42.91-28.66-66.61C1748.78-529,1760.1-524.83,1771.34-518.55Zm325.12,333c7.85,15.51,21.53,24.76,45.38,13.5,0,0-8.68,18.2-3.67,33.86-44.9,21.94-91.59,27.7-91.59,27.7C2022.36-117.08,2061.77-156,2096.46-185.55ZM1994.3-453.1c14.62-.69,32.73-6.49,54.3-22.39,65.32-48.15,7.61,48.83,7.61,48.83s-170.29,82.25,30.07,176.44c0,0-.4,7.44.11,17.84-143.52,178.16-144.92,138-144.92,138L1929.35-247.5C1926.17-263.93,1970.14-387.24,1994.3-453.1Zm-102.68,4.32c15-3.09,33.92-9.87,57.83-22.68,0,0,6.29,8.17,18.66,13.64-14.88,66-78.68,193.09-88.89,195.49S1885.44-398.83,1891.62-448.78Zm-97.86-54.67C1818.82-484,1839-460.52,1839-460.52s3.92,7.41,16.19,11.41c4.17,40.4,12.61,150.9-17.46,168.84C1809.83-263.63,1797.92-424,1793.76-503.45Zm-3.07,352.64C1647.28-260.37,1659.78-298,1642.52-319c-11.71-14.28-17.15-80.26-19.43-121.23,33.36-11.13,63.9,26.81,78.76-46.87,2.07-10.27,5-18.33,8.58-24.53,2,7.94,4.49,15.28,6.93,16.39,5.6,2.57,58.9,83.49,76.68,227.35S1790.69-150.81,1790.69-150.81ZM1473.26-263.15c8.93-7.61,17-22.51,19.69-51,5.38-57.82,24,19.12,55.51-11.64,76.43,53.6,177.67,186.3,213.44,220,39.88,37.56,36.47,206.72,24.89,217.61C1778.13,120,1667.55,35.93,1612.56-6.8c-2.12-7.77-5.92-16.9-12-27.95-43.18-77.72,84.23-25.07,57.52-95.23s-14.82-78.23-87.58-73-21.32-31-74.24-37.91C1463.6-245.14,1474-251.66,1473.26-263.15Z"/><polygon class="cls-5" points="1344.28 854.17 1359.13 896.49 1400.78 869.59 1383.16 911.15 1435.7 909.93 1392.34 934.86 1435.7 959.8 1383.16 958.58 1400.78 1000.14 1359.13 973.23 1344.28 1015.55 1329.43 973.23 1287.78 1000.14 1305.39 958.58 1252.85 959.8 1296.21 934.86 1252.85 909.93 1305.39 911.15 1287.78 869.59 1329.43 896.49 1344.28 854.17"/><polygon class="cls-6" points="1851.17 879.67 1866.03 921.99 1907.68 895.08 1890.06 936.64 1942.6 935.42 1899.24 960.36 1942.6 985.29 1890.06 984.07 1907.68 1025.64 1866.03 998.73 1851.17 1041.05 1836.32 998.73 1794.67 1025.64 1812.29 984.07 1759.75 985.29 1803.11 960.36 1759.75 935.42 1812.29 936.64 1794.67 895.08 1836.32 921.99 1851.17 879.67"/><polygon class="cls-6" points="1725.12 823.16 1749.99 860.49 1783.68 824.11 1776.9 868.74 1827.5 854.55 1791.66 889.44 1839.84 902.87 1788.63 914.69 1815.99 950.6 1768.98 934.84 1765.06 979.52 1740.19 942.19 1706.5 978.57 1713.28 933.94 1662.68 948.12 1698.52 913.23 1650.34 899.81 1701.55 887.99 1674.19 852.07 1721.2 867.84 1725.12 823.16"/><polygon class="cls-5" points="1745.32 835.8 1748.52 880.54 1795.78 865.54 1767.85 901 1818.86 913.65 1770.46 926.29 1805.73 961.76 1755.37 946.76 1761.43 991.49 1728.33 954.57 1702.86 991.49 1699.66 946.76 1652.4 961.76 1680.34 926.29 1629.33 913.65 1677.72 901 1642.45 865.54 1692.82 880.54 1686.75 835.8 1719.86 872.72 1745.32 835.8"/><polygon class="cls-5" points="1831.15 901.34 1846 943.66 1887.65 916.75 1870.04 958.31 1922.57 957.09 1879.21 982.03 1922.57 1006.96 1870.04 1005.74 1887.65 1047.31 1846 1020.4 1831.15 1062.71 1816.3 1020.4 1774.65 1047.31 1792.26 1005.74 1739.72 1006.96 1783.08 982.03 1739.72 957.09 1792.26 958.31 1774.65 916.75 1816.3 943.66 1831.15 901.34"/><path class="cls-9" d="M1631.19,166.64c2.92-.59,5.83-1,8.74-1.35a152.28,152.28,0,0,1,48.33,2c1.25,0,7.89.29,13,9a40.07,40.07,0,0,1,5.16,21.27h0c-.18,16.48-8.63,30-18.8,29.87-7-5.22-21.64-13.83-39.75-9.09a55.32,55.32,0,0,0-17.52,8.46c-1.25,0-7.68-.29-13-9a40,40,0,0,1-5.16-21.27h0C1612.37,180,1620.82,166.53,1631.19,166.64Z"/><path class="cls-9" d="M1709.31,556.44c-5,.56-10,.92-15.16,1.27a453.71,453.71,0,0,1-83.62-2.36,34.31,34.31,0,0,1-22.52-9.1,28.73,28.73,0,0,1-9.11-21.32h0c.18-16.48,14.65-29.92,32.29-29.72a129,129,0,0,0,68.8,9.4,125.94,125.94,0,0,0,30.19-8.32,34.37,34.37,0,0,1,22.52,9.11,28.78,28.78,0,0,1,9.11,21.32h0C1741.42,543.4,1727,556.63,1709.31,556.44Z"/><path class="cls-10" d="M1720,531.22c-6.64.54-13.5.88-20.35,1.21a819.8,819.8,0,0,1-112.46-2.67c-2.91,0-18.05-.41-30.2-9.19-7.83-5.45-12.52-13.12-12.43-21.36h0c.18-16.48,19.63-29.86,43.29-29.6a221.85,221.85,0,0,0,132.82,1.46c2.9,0,18,.4,30.2,9.19,7.62,5.44,12.51,13.11,12.42,21.35h0C1763.07,518.09,1743.62,531.48,1720,531.22Z"/><path class="cls-9" d="M1742.33,497.88c-8.72.52-17.65,1-26.58,1.36A1192.9,1192.9,0,0,1,1569.67,496c-3.73-.05-23.45-.47-39.32-10.74-10.09-6.49-16.23-15.21-16.12-24.69h0c.21-19.15,25.49-34.53,56.21-34.2a333,333,0,0,0,120,11.42,300.19,300.19,0,0,0,52.62-9.52c3.73,0,23.44.46,39.31,10.73,10.1,6.29,16.23,15.22,16.13,24.69h0C1798.33,482.84,1773,498.22,1742.33,497.88Z"/><path class="cls-10" d="M1750.15,466.45c-9.35.51-19.11,1-28.87,1.33a1408.2,1408.2,0,0,1-158.73-3.39c-4.15-.05-25.53-.49-42.64-10.77-10.93-6.51-17.68-15.44-17.57-25.12h0c.21-19.36,27.57-34.92,61-34.56a381.55,381.55,0,0,0,130.42,11.74,354.65,354.65,0,0,0,57.18-9.68c4.15.05,25.52.49,42.64,10.77,10.93,6.51,17.68,15.44,17.57,25.12h0C1810.92,451.25,1783.35,466.81,1750.15,466.45Z"/><path class="cls-9" d="M1759,437.71l-31.77,1.5a1469,1469,0,0,1-175.54-3.78c-4.57-.05-28.22-.72-47.19-12.47-12.16-7.55-19.52-17.72-19.4-28.85h0c.25-22.24,30.54-40.24,67.48-39.84a409.66,409.66,0,0,0,144.1,13.33,362.89,362.89,0,0,0,63.21-11.05c4.57.05,28.22.72,47.19,12.47,12,7.54,19.52,17.72,19.4,28.84h0C1826.2,420.11,1795.91,438.11,1759,437.71Z"/><path class="cls-10" d="M1750.85,402.18c-9.34.52-19.1,1-28.86,1.33a1406.07,1406.07,0,0,1-158.74-3.39c-4.15,0-25.52-.48-42.64-10.77-10.92-6.5-17.68-15.43-17.57-25.12h0c.21-19.36,27.57-34.92,61-34.55a381.81,381.81,0,0,0,130.42,11.73,354.75,354.75,0,0,0,57.19-9.67c4.15,0,25.52.48,42.63,10.77,10.93,6.5,17.68,15.43,17.58,25.12h0C1811.62,387,1784.06,402.55,1750.85,402.18Z"/><path class="cls-9" d="M1743.79,365.44c-8.73.52-17.66,1-26.59,1.35a1190.91,1190.91,0,0,1-146.08-3.25c-3.73,0-23.44-.46-39.31-10.53-10.1-6.49-16.23-15.21-16.13-24.69h0c.21-19.15,25.49-34.53,56.21-34.2a333,333,0,0,0,120,11.42,300.19,300.19,0,0,0,52.62-9.52c3.73,0,23.45.46,39.32,10.53C1794,313,1800.1,321.76,1800,331.24h0C1799.78,350.39,1774.5,365.77,1743.79,365.44Z"/><path class="cls-10" d="M1736.5,329.51c-7.89.53-16,.86-24.3,1.18A1152,1152,0,0,1,1579,327.78c-3.32,0-21.37-.44-35.81-9.25-9.07-5.46-14.79-13.14-14.7-21.38h0c.18-16.48,23.15-29.82,51.17-29.51a315.8,315.8,0,0,0,109.27,9.85,293.52,293.52,0,0,0,48-8.13c3.53,0,21.38.44,35.81,9.25,9.07,5.46,14.8,13.14,14.71,21.38h0C1787.49,316.47,1764.52,329.82,1736.5,329.51Z"/><path class="cls-9" d="M1725.3,290.87c-6.23.54-12.67.89-19.11,1.23a727.37,727.37,0,0,1-105.82-2.61c-2.7,0-17-.39-28.33-9.17-7.21-5.43-11.69-13.1-11.6-21.34h0c.18-16.48,18.6-29.87,40.8-29.63A200.82,200.82,0,0,0,1688.1,239a198.22,198.22,0,0,0,38.07-8.24c2.7,0,17,.39,28.54,9.17,7.21,5.44,11.69,13.11,11.6,21.35h0C1765.71,277.92,1747.51,291.11,1725.3,290.87Z"/><path class="cls-10" d="M1707.07,250.29l-15.37,1.07a521.86,521.86,0,0,1-84-2.16,36.12,36.12,0,0,1-22.53-8.29,24.2,24.2,0,0,1-9.13-19h0c.16-14.83,14.82-26.82,32.46-26.63a143.48,143.48,0,0,0,69,8.59,140,140,0,0,0,30.39-7.5,37.18,37.18,0,0,1,22.53,8.08,24.14,24.14,0,0,1,9.13,19h0C1739.37,238.49,1724.71,250.48,1707.07,250.29Z"/><path class="cls-11" d="M1566.52,385.74c.45-40.58,16.58-73.36,30.07-73.22s19.35,33.18,18.91,73.76"/><path class="cls-12" d="M1572.33,385.8c.45-40.58,11.81-73.41,25.3-73.26s24.12,33.22,23.68,73.8"/><path class="cls-8" d="M1626.65,49.06s65.2,124.26,30.89,123-7.14,13.83,21,6.62-46.82-100.34-26.15-116.37c-10.9-19.61-16.26-22.21,10.43-13.22C1683,55.86,1626.65,49.06,1626.65,49.06Z"/></g><g id="Layer_8" data-name="Layer 8"><path class="cls-6" d="M1595.16,1000.51c-12.07,50.89-202,94.7-451.13,94.7s-451.13-42.4-451.13-94.7,29.37-127,451.13-94.71C1392.46,924.8,1637.12,823.49,1595.16,1000.51Z"/><g id="Layer_2" data-name="Layer 2"><g id="Layer_1-2" data-name="Layer 1-2"><g id="Layer_2-2" data-name="Layer 2-2"><ellipse class="cls-13" cx="845.43" cy="971.25" rx="46.74" ry="53.37"/><path class="cls-14" d="M1132.86,808.27v209.61h55a216.11,216.11,0,0,1-9-62.81c0-73.58,34.11-133.24,76.16-133.24,39.37,0,71.69,52.31,75.66,119.33h.41c30.42,0,55.05,26.7,55,59.56a64,64,0,0,1-2.37,17.16h66.19V808.27Z"/><path class="cls-13" d="M1330.69,941.16c-4-67-36.37-119.33-75.66-119.33-42,0-76.16,59.66-76.16,133.24a216.11,216.11,0,0,0,9,62.81h90.57c-8.82-31.44,7.64-64.66,36.75-74.18h0A49.2,49.2,0,0,1,1330.69,941.16Z"/><path class="cls-13" d="M1331.1,941.16h-.41c-30.42.25-54.9,27.08-54.66,59.94a63.83,63.83,0,0,0,2.33,16.68h105.39c8.82-31.45-7.63-64.66-36.75-74.18h0a53.91,53.91,0,0,0-15.87-2.45Z"/><path class="cls-13" d="M1190.22,739.16c-69.27-40.42-115.61-87.84-107.83-108.22,25.52-66.84,80.77-14.09,142.9,38,65.7,55.11,223.19-78.3,107.83,108.21C1320.81,797.07,1259.48,779.49,1190.22,739.16Z"/><path class="cls-13" d="M1151.57,454c-1,35.7-1.86,28-8.75,30.19-8.5,2.62-5.67,11.11-22.19-20.56-15.32-29.4.16-27.47,8.75-30.19S1152.46,420.54,1151.57,454Z"/><path class="cls-15" d="M1177.25,705.82c-10.12-37.35-19.6-69.2-30.21-95-2.35-6.13-.33-11.55,5.59-11.81h0c1.45.26,3,.43,4.61.7h.08l2.19.26c30.87,4.2,56.71-25.11,60.44-57.65V544a7,7,0,0,1,5.42-7h22.12c5.59,0,9.88-6.39,9.88-14.26a19.45,19.45,0,0,0-1.45-7.44h0a27,27,0,0,0,8.66-20v-.7c0-14.47-10.89-26.18-24.28-26.16H1156c-28-.61-67.73,15.05-103.13,42.08-16.61,12.69-30.3,26.33-40.67,39.89h0c-47.31,29.57-98.35,97.29-115.44,184l-32,197.55h0c-21.44-8.44-45.16,3.48-53,26.63-7.47,22.1,2.24,46.66,22.18,56.13a38.12,38.12,0,0,0,15.56,3.24,43.54,43.54,0,0,0,4.7-.26v.26h344.54l.57-.09c12.23-2,16.44-4.9,18.63-5.6a15.42,15.42,0,0,0,2.84-1.13c6.88-3.85,29.08-19.43,28.43-60.72"/><path class="cls-16" d="M1259.72,488.25c-3.32,0-5.42,18.2-12.15,18.2s-12.15-8.14-12.15-18.2,5.43-18.2,12.15-18.2S1269.12,488.25,1259.72,488.25Z"/><path class="cls-15" d="M1114.55,463.32c10,34,6.8,27.12,1,31.58-7.29,5.51-2,12.51-27.22-11.46-23.41-22.31-8.18-26.07-1-31.58S1105.15,431.39,1114.55,463.32Z"/><path class="cls-16" d="M1146.14,451c-2.1,22-2.43,17.41-7.53,18.9-6.32,1.84-4.62,7-15.31-12.16-10-17.85,1.21-17,7.53-18.9S1148.17,430.25,1146.14,451Z"/><path class="cls-16" d="M1108.64,462.53c4.13,21.78,2.43,17.41-2,20.47-5.51,3.76-2.43,8.14-18-6.65-14.42-13.82-3.57-16.62,1.94-20.47S1104.83,442.06,1108.64,462.53Z"/><path class="cls-16" d="M1326.64,697.58c-7.21-6.91,8.1-17.84,18.15-17.84a18,18,0,0,1,18.14,17.84c0,9.89-11.18,24.94-18.14,17.85C1336,706.61,1336,706.61,1326.64,697.58Z"/><ellipse class="cls-15" cx="1183.11" cy="869.09" rx="82.15" ry="149.94" transform="translate(-185.08 337) rotate(-15.05)"/><path class="cls-14" d="M816.91,808.27v209.61h55a215.76,215.76,0,0,1-9-62.81c0-73.58,34.1-133.24,76.15-133.24,39.37,0,71.69,52.31,75.66,119.33h.41c30.42,0,55.09,26.63,55.09,59.49a65,65,0,0,1-2.35,17.23h66.18V808.27Z"/><path class="cls-13" d="M1014.74,941.16c-4-67-36.37-119.33-75.66-119.33C897,821.83,863,881.49,863,955.07a215.76,215.76,0,0,0,9,62.81h90.57c-8.82-31.44,7.64-64.66,36.76-74.18h0A47.83,47.83,0,0,1,1014.74,941.16Z"/><path class="cls-13" d="M1015.15,941.16h-.41c-30.42.25-54.9,27.08-54.66,59.94a63.83,63.83,0,0,0,2.33,16.68h105.4c8.91-31.25-7.31-64.39-36.25-74a51,51,0,0,0-16.41-2.62Z"/><path class="cls-17" d="M1259.32,874.84c0,71.3,0,129-85.23,129-47.06,0-137-80.75-85.22-129,90.25-84.16-11.1-108,85.22-129C1198.4,740.55,1259.32,803.63,1259.32,874.84Z"/><path class="cls-13" d="M981.45,725c-20.74-98.42-4.7-142.33,34.59-145.4,62.54-4.81,29.81,57.39,34.59,145.4,5.51,100.17,81,177.51-34.59,145.4C966.54,856.56,998.78,806.69,981.45,725Z"/><path class="cls-16" d="M1257.37,528.84c-1.45,4.9-7.12,7.26-12.71,5.34s-8.92-7.52-7.46-12.34,8.1-1.48,12.72-5.33C1256.32,511.17,1258.83,523.94,1257.37,528.84Z"/><path class="cls-16" d="M1080.52,871.34l-10.12-7.17a6.26,6.26,0,0,1-2.11-2.54,1.43,1.43,0,0,1-.08-1.13l1.7-2.37c.16-.26.65-.26,1.06-.17a5.58,5.58,0,0,1,2.75,1.57l8.83,8.75a14.36,14.36,0,0,1,4.46,8.23c.16,1.75-.41,1.75-1.54.08A17.38,17.38,0,0,0,1080.52,871.34Z"/><path class="cls-16" d="M1383.75,695.68l-11.82,2.71a5.5,5.5,0,0,1-3.16-.18c-.41-.17-.81-.43-.81-.78l-.33-3a1.24,1.24,0,0,1,.65-1,6.23,6.23,0,0,1,3-1l12-.61a12.58,12.58,0,0,1,8.5,2.36c1.3,1,.9,1.57-1,1.31A17.27,17.27,0,0,0,1383.75,695.68Z"/><path class="cls-16" d="M1377.92,677.22l-9.31,8.31a5.27,5.27,0,0,1-2.84,1.4c-.49.08-.89,0-1-.27l-1.62-2.45a1.2,1.2,0,0,1,.16-1.13,5.87,5.87,0,0,1,2.19-2.36l10.37-6.57c2.91-1.83,6.07-2.71,8.58-2.18,1.62.35,1.46,1-.32,1.66A18.52,18.52,0,0,0,1377.92,677.22Z"/><path class="cls-16" d="M1364.64,666.72l-7.3,10.41a5.73,5.73,0,0,1-2.43,2.1c-.4.17-.81.26-1.05,0l-2-2c-.25-.18-.25-.7-.17-1.14a5.7,5.7,0,0,1,1.62-2.89l8.67-8.92c2.43-2.54,5.35-4.11,7.86-4.2,1.62-.09,1.62.61,0,1.66A18.08,18.08,0,0,0,1364.64,666.72Z"/><ellipse class="cls-17" cx="1187.95" cy="493.5" rx="16.61" ry="17.93"/><path class="cls-16" d="M1063,881.75l-5-11.89a5.85,5.85,0,0,1-.48-3.33,1.58,1.58,0,0,1,.48-1l2.6-1.05a1,1,0,0,1,1,.44,6.59,6.59,0,0,1,1.54,2.89l3.16,12.51c.89,3.5.81,7-.33,9.45-.73,1.57-1.21,1.31-1.37-.79A19,19,0,0,0,1063,881.75Z"/><path class="cls-16" d="M1046.74,886.65l-2.83-12.86a9.53,9.53,0,0,1-.08-3.41c.08-.44.32-.87.56-.87l2.27-.44a1.16,1.16,0,0,1,.81.7,7.46,7.46,0,0,1,1,3.24l1.22,13c.32,3.68-.16,7.17-1.38,9.36-.81,1.4-1.21,1-1-1A24.58,24.58,0,0,0,1046.74,886.65Z"/><ellipse class="cls-13" cx="1145.82" cy="550.19" rx="44.39" ry="47.94"/><ellipse class="cls-18" cx="1188" cy="488.26" rx="11.83" ry="12.77"/><ellipse cx="1191.43" cy="488.25" rx="7.86" ry="8.49"/><ellipse class="cls-19" cx="1187.95" cy="488.25" rx="2.19" ry="2.36"/><ellipse class="cls-15" cx="1151.57" cy="550.19" rx="45.12" ry="48.73"/><ellipse class="cls-17" cx="1249.11" cy="477.49" rx="3.89" ry="4.2"/><path class="cls-17" d="M1104.83,457.88c2.51,12.94-2.84,2.53-4.86,1.66s-3.16-3-2.59-4.73,2.75-2.53,4.86-1.66S1104.5,456,1104.83,457.88Z"/></g></g></g></g></svg>