<?xml version="1.0" encoding="utf-8"?>
<!-- Generator: Adobe Illustrator 25.4.1, SVG Export Plug-In . SVG Version: 6.00 Build 0)  -->
<svg version="1.1" id="Layer_2_00000163792746752595781810000013657393829511361166_"
	 xmlns="http://www.w3.org/2000/svg" xmlns:xlink="http://www.w3.org/1999/xlink" x="0px" y="0px" viewBox="0 0 635.8 652.6"
	 style="enable-background:new 0 0 635.8 652.6;" xml:space="preserve">
<style type="text/css">
	.st0{opacity:0.45;fill:#F48600;enable-background:new    ;}
	.st1{fill:none;stroke:#000000;stroke-width:3;stroke-linecap:round;stroke-miterlimit:10;}
	.st2{fill:#FFCD74;}
	.st3{fill:#4D4D4D;}
	.st4{fill:#FFED74;}
	.st5{fill:none;stroke:#000000;stroke-width:5;stroke-linecap:round;stroke-miterlimit:10;}
	.st6{fill:#FFFFFF;}
</style>
<path class="st0" d="M332,234.5c20.1,2.8,32.5,32.3,27.8,65.8s-8.9,63.6-44.9,55.6c-19.8-4.4-36.7-30.7-27.8-65.8
	C295.5,257.3,312,231.7,332,234.5z"/>
<path class="st0" d="M214.9,259.6c17.2-12,46.8,0.9,66.1,28.7c19.4,27.8,36.7,52.7,4,72c-18,10.6-48.8,3.2-66.1-28.7
	C202.7,301.9,197.7,271.6,214.9,259.6z"/>
<path class="st0" d="M196.3,389.4c15.1-36.1,53.9-68.4,125.9-79.3c68.7-10.4,131.8,0,125.9,79.3c-3.3,43.7-51.8,87.7-125.9,79.3
	C253.1,460.9,179.4,429.8,196.3,389.4z"/>
<path class="st1" d="M427.9,288.6c-23-19.1-15.6,8.7-13.8,25.6c1.6,15.1,0,27.8,5.3,28.6"/>
<circle cx="430.7" cy="291.3" r="4.6"/>
<path class="st2" d="M378.6,464c2.4,0.2,5.4-10.2,6.7-23.3l-8.6-0.9C375.4,452.9,376.2,463.7,378.6,464z"/>
<path class="st2" d="M263.7,461.9c2.4,0.2,5.4-10.2,6.8-23.3l-8.6-0.9C260.5,450.8,261.3,461.6,263.7,461.9z"/>
<path class="st3" d="M342.3,338c-4.5,5.8-9.7,9.9-15.4,11.8c-5.7,1.9-11.9,1.4-17.1-1.5c-5.3-2.9-9.7-7.9-13.1-14.4
	s-5.5-14.5-6.3-23.3c-0.7-9.1,0.1-18.3,2.4-27.1c2.3-8.5,6.5-14.3,10.9-20.1s17.9-12.6,23.5-14.5c2.8-0.9-10.3,61.3-7.3,61.6
	c3,0.3,10.5-61.9,13.1-60.4c5.2,2.9,12.3,9.3,15.7,15.8c3.3,6.5,5.5,14.5,6.3,23.3c0.7,9.1-0.1,18.2-2.4,27.1
	C350.3,324.8,346.8,332.2,342.3,338z"/>
<path class="st4" d="M231.8,431.3c5.7,4.2,11.8,7.8,18.2,10.9c2.6,1.3,5.3,2.5,8.1,3.7c4.3,1.8,8.8,3.4,13.4,4.9
	c5.1,1.6,10.4,3,15.8,4.2c2.6,0.6,5.1,1.1,7.8,1.5c3.1,0.5,6.2,1,9.4,1.3c3.5,0.4,7.1,0.7,10.6,0.9c1.5,0.1,3,0.1,4.5,0.1
	c1,0,2,0,3,0c2.5,0,4.9,0,7.3-0.1c1.6,0,3.1-0.1,4.7-0.1c2.2-0.1,4.4-0.2,6.5-0.3c3.7-0.2,7.2-0.4,10.6-0.7
	c8.7-0.7,17.3-2.1,25.8-4.1c7.5-1.9,13.8-4.3,19.3-7.2c5.2-2.7,9.9-6.3,14-10.4c6-6.1,10.4-13.6,14-22.4c2.7-6.8,5-14.3,7-22.7
	c0.4-1.8,0.8-3.7,1.1-5.5c1.7-9.8,1.6-19.4-0.7-28.1c-1.1-4.5-2.9-8.7-5.2-12.7c-1.4-2.3-2.9-4.5-4.6-6.5c-0.4-0.5-0.8-0.9-1.2-1.4
	c-0.8-0.9-1.6-1.7-2.5-2.5c-4.3-4-9.2-7.2-14.5-9.6c-5.7-2.6-12.7-4.5-20.3-5.7c-8.5-1.3-17.1-1.6-25.7-1.1
	c-3.4,0.2-6.8,0.4-10.4,0.9c-2.1,0.2-4.2,0.5-6.3,0.8c-1.5,0.2-3,0.4-4.5,0.7c-3.3,0.5-6.6,1.2-10.1,1.9c-1.6,0.3-3.2,0.7-4.8,1
	c-3.9,0.9-7.7,1.8-11.4,2.7c-3.3,0.8-6.5,1.7-9.6,2.6c-2.6,0.7-5.1,1.5-7.6,2.3c-5.2,1.7-10.2,3.4-15,5.3c-4.4,1.7-8.6,3.5-12.6,5.4
	c-6.2,3-10.9,6-20.2,11.8c-0.6,0.4-2.6,1.7-4.5,3.1c-1.1,0.9-2.4,1.9-2.4,1.9c-0.4,0.3-0.8,0.7-1.2,1c-1.8,1.5-3.5,3.1-5.1,4.6
	c-2.8,2.7-5.4,5.6-7.8,8.6c-4.5,5.7-8.2,11.9-11.2,18.5c-0.1,0.2-0.2,0.5-0.3,0.7c-2.9,7.1-2,14.4,1.8,21.4
	C218.4,419.5,224.3,425.7,231.8,431.3z"/>
<path d="M364.6,376.1c2.3,3.2,5.2,5.6,8.4,6.8c3.3,1.3,6.9,1.3,10.2,0c3.2-1.2,6.1-3.6,8.4-6.8c2.5-3.5,4.1-7.5,4.9-11.7
	c0.9-4.7,0.9-9.4,0-14.1c-0.8-4.2-2.5-8.2-4.9-11.7c-2.3-3.2-5.2-5.6-8.4-6.8c-3.3-1.3-6.9-1.3-10.2,0c-3.2,1.2-6.1,3.6-8.4,6.8
	c-2.5,3.5-4.1,7.5-4.9,11.7c-0.9,4.7-0.9,9.4,0,14.1C360.4,368.6,362.1,372.6,364.6,376.1z"/>
<path class="st5" d="M405.4,384.1c0.1,4.5-3.6,8.2-8.1,8.3c-4.4,0.1-8-3.3-8.3-7.6"/>
<path class="st1" d="M377.1,288.1c24-17.9,15.1,9.4,12.5,26.3c-2.3,15-1.4,27.8-6.7,28.3"/>
<circle cx="372.6" cy="291.2" r="4.6"/>
<path d="M243.4,354.6c0,0-31.8,44.2,4.2,86.4l5.5,2.7c0,0-32.2-68.3,7.9-99.9L243.4,354.6z"/>
<path d="M274.2,337.6c0,0-38.1,65.8,6.3,116.1l13.9,2.8l6.6,1l4.7,0.6c0,0-40.2-100,0-131l-5.8,1.6l-5.7,1.7l-4.1,1.3l-4.9,1.7
	l-4.6,1.7l-3,1.1l-1.8,0.7L274.2,337.6z"/>
<path d="M322,323c0,0-60.6,47.1,9.4,135.9l7.7-0.3l3.3-0.2l3.9-0.2l2.1-0.2l3.1-0.2c0,0-78-102,1.3-139.7l-10.7,1.2l-7.7,1.2l-5.4,1
	l-3.5,0.7L322,323z"/>
<path d="M239,449.8c2.4,0.2,5.4-10.2,6.7-23.3l-8.6-0.9C235.8,438.7,236.6,449.6,239,449.8z"/>
<path class="st4" d="M349.2,470.1c2.4,0.2,5.4-10.2,6.8-23.3l-8.6-0.9C346,459.1,346.9,469.9,349.2,470.1z"/>
<path d="M404.9,376.1c2.3,3.2,5.2,5.6,8.4,6.8c3.3,1.3,6.9,1.3,10.2,0c3.2-1.2,6.1-3.6,8.5-6.8c2.5-3.5,4.1-7.5,4.9-11.7
	c0.9-4.7,0.9-9.4,0-14.1c-0.8-4.2-2.5-8.2-4.9-11.7c-2.3-3.2-5.2-5.6-8.5-6.8c-3.3-1.3-6.9-1.3-10.2,0c-3.2,1.2-6.1,3.6-8.4,6.8
	c-2.5,3.5-4.1,7.5-4.9,11.7c-0.9,4.7-0.9,9.4,0,14.1C400.8,368.6,402.5,372.6,404.9,376.1z"/>
<circle class="st3" cx="378.1" cy="363.9" r="13"/>
<circle class="st6" cx="372.6" cy="351" r="8.4"/>
<circle class="st3" cx="419.7" cy="363.9" r="13"/>
<circle class="st6" cx="414.2" cy="351" r="8.5"/>
<path class="st3" d="M292.8,330.1c0.3,7.3-1,13.9-4.2,19c-3.1,5.1-8.2,8.7-14.1,9.9c-5.9,1.2-12.5,0.2-19.3-2.6
	c-6.8-2.8-13.6-7.5-19.8-13.7c-6.4-6.5-11.7-14-15.6-22.3c-3.7-8-4.3-15.1-4.6-22.4s5.5-21.2,8.6-26.3c1.6-2.5,31.7,53.5,34.2,51.8
	c2.5-1.7-31.9-54-29-54.6c5.9-1.2,15.4-0.8,22.2,2s13.6,7.5,19.8,13.8c6.4,6.5,11.7,14,15.6,22.3
	C290.3,314.8,292.4,322.8,292.8,330.1z"/>
<circle class="st6" cx="422.7" cy="336.2" r="3.9"/>
</svg>
