<svg id="Layer_1" data-name="Layer 1" xmlns="http://www.w3.org/2000/svg" width="584.23" height="154.08" viewBox="0 0 584.23 154.08"><defs><style>.cls-1{fill:#febb00;stroke:#000;stroke-width:2px;}.cls-1,.cls-2{stroke-miterlimit:10;}.cls-2{fill:none;stroke:#f19b24;stroke-width:0.5px;}</style></defs><rect class="cls-1" x="-48.52" y="-19.02" width="682.48" height="192.12" rx="96.06"/><polygon class="cls-2" points="111.52 168.36 103.63 155.52 111.52 142.68 127.29 142.68 135.18 155.52 127.29 168.36 111.52 168.36"/><polygon class="cls-2" points="111.52 142.68 103.63 129.84 111.52 117 127.29 117 135.18 129.84 127.29 142.68 111.52 142.68"/><polygon class="cls-2" points="111.52 117 103.63 104.16 111.52 91.32 127.29 91.32 135.18 104.16 127.29 117 111.52 117"/><polygon class="cls-2" points="135.13 155.52 127.24 142.68 135.13 129.84 150.91 129.84 158.79 142.68 150.91 155.52 135.13 155.52"/><polygon class="cls-2" points="135.13 129.84 127.24 117 135.13 104.16 150.91 104.16 158.79 117 150.91 129.84 135.13 129.84"/><polygon class="cls-2" points="111.15 91.32 103.26 78.48 111.15 65.64 126.92 65.64 134.81 78.48 126.92 91.32 111.15 91.32"/><polygon class="cls-2" points="111.15 65.64 103.26 52.8 111.15 39.96 126.92 39.97 134.81 52.8 126.92 65.64 111.15 65.64"/><polygon class="cls-2" points="111.15 39.96 103.26 27.13 111.15 14.29 126.92 14.29 134.81 27.13 126.92 39.97 111.15 39.96"/><polygon class="cls-2" points="134.76 78.48 126.88 65.64 134.76 52.8 150.54 52.8 158.43 65.64 150.54 78.48 134.76 78.48"/><polygon class="cls-2" points="134.76 52.8 126.88 39.96 134.76 27.13 150.54 27.13 158.43 39.97 150.54 52.8 134.76 52.8"/><polygon class="cls-2" points="158.79 168.36 150.91 155.52 158.79 142.68 174.57 142.68 182.46 155.52 174.57 168.36 158.79 168.36"/><polygon class="cls-2" points="158.79 142.68 150.91 129.84 158.79 117 174.57 117 182.46 129.84 174.57 142.68 158.79 142.68"/><polygon class="cls-2" points="158.79 117 150.91 104.16 158.79 91.32 174.57 91.32 182.46 104.16 174.57 117 158.79 117"/><polygon class="cls-2" points="182.41 155.52 174.52 142.68 182.41 129.84 198.18 129.84 206.07 142.68 198.18 155.52 182.41 155.52"/><polygon class="cls-2" points="182.41 129.84 174.52 117 182.41 104.16 198.18 104.16 206.07 117 198.18 129.84 182.41 129.84"/><polygon class="cls-2" points="158.68 91.32 150.79 78.48 158.68 65.64 174.45 65.64 182.34 78.48 174.45 91.32 158.68 91.32"/><polygon class="cls-2" points="158.68 65.64 150.79 52.8 158.68 39.97 174.45 39.97 182.34 52.8 174.45 65.64 158.68 65.64"/><polygon class="cls-2" points="158.68 39.97 150.79 27.13 158.68 14.29 174.45 14.29 182.34 27.13 174.45 39.97 158.68 39.97"/><polygon class="cls-2" points="182.29 78.48 174.4 65.64 182.29 52.8 198.07 52.8 205.96 65.64 198.07 78.48 182.29 78.48"/><polygon class="cls-2" points="182.29 52.8 174.4 39.97 182.29 27.13 198.07 27.13 205.96 39.97 198.07 52.8 182.29 52.8"/><polygon class="cls-2" points="206.02 142.68 198.13 129.84 206.02 117 221.79 117 229.68 129.84 221.79 142.68 206.02 142.68"/><polygon class="cls-2" points="206.02 117 198.13 104.16 206.02 91.32 221.79 91.32 229.68 104.16 221.79 117 206.02 117"/><polygon class="cls-2" points="206.02 91.32 198.13 78.48 206.02 65.64 221.79 65.64 229.68 78.48 221.79 91.32 206.02 91.32"/><polygon class="cls-2" points="229.63 129.84 221.75 117 229.63 104.16 245.41 104.16 253.3 117 245.41 129.84 229.63 129.84"/><polygon class="cls-2" points="229.63 104.16 221.75 91.32 229.63 78.48 245.41 78.48 253.3 91.32 245.41 104.16 229.63 104.16"/><polygon class="cls-2" points="103.21 155.52 111.1 142.68 103.21 129.84 87.44 129.84 79.55 142.68 87.44 155.52 103.21 155.52"/><polygon class="cls-2" points="103.21 129.84 111.1 117 103.21 104.16 87.44 104.16 79.55 117 87.44 129.84 103.21 129.84"/><polygon class="cls-2" points="103.21 104.16 111.1 91.32 103.21 78.48 87.44 78.48 79.55 91.32 87.44 104.16 103.21 104.16"/><polygon class="cls-2" points="79.6 142.68 87.49 129.84 79.6 117 63.82 117 55.94 129.84 63.82 142.68 79.6 142.68"/><polygon class="cls-2" points="79.6 117 87.49 104.16 79.6 91.32 63.82 91.32 55.94 104.16 63.82 117 79.6 117"/><polygon class="cls-2" points="103.58 78.48 111.47 65.64 103.58 52.8 87.8 52.8 79.92 65.64 87.8 78.48 103.58 78.48"/><polygon class="cls-2" points="103.58 52.8 111.47 39.96 103.58 27.13 87.8 27.13 79.92 39.97 87.8 52.8 103.58 52.8"/><polygon class="cls-2" points="103.58 27.13 111.47 14.29 103.58 1.45 87.8 1.45 79.92 14.29 87.8 27.13 103.58 27.13"/><polygon class="cls-2" points="79.97 65.64 87.85 52.8 79.97 39.96 64.19 39.97 56.3 52.8 64.19 65.64 79.97 65.64"/><polygon class="cls-2" points="79.97 39.96 87.85 27.13 79.97 14.29 64.19 14.29 56.3 27.13 64.19 39.97 79.97 39.96"/><polygon class="cls-2" points="55.94 155.52 63.82 142.68 55.94 129.84 40.16 129.84 32.27 142.68 40.16 155.52 55.94 155.52"/><polygon class="cls-2" points="55.94 129.84 63.82 117 55.94 104.16 40.16 104.16 32.27 117 40.16 129.84 55.94 129.84"/><polygon class="cls-2" points="55.94 104.16 63.82 91.32 55.94 78.48 40.16 78.48 32.27 91.32 40.16 104.16 55.94 104.16"/><polygon class="cls-2" points="32.32 142.68 40.21 129.84 32.32 117 16.55 117 8.66 129.84 16.55 142.68 32.32 142.68"/><polygon class="cls-2" points="32.32 117 40.21 104.16 32.32 91.32 16.55 91.32 8.66 104.16 16.55 117 32.32 117"/><polygon class="cls-2" points="56.05 78.48 63.94 65.64 56.05 52.8 40.28 52.8 32.39 65.64 40.28 78.48 56.05 78.48"/><polygon class="cls-2" points="56.05 52.8 63.94 39.97 56.05 27.13 40.28 27.13 32.39 39.97 40.28 52.8 56.05 52.8"/><polygon class="cls-2" points="56.05 27.13 63.94 14.29 56.05 1.45 40.28 1.45 32.39 14.29 40.28 27.13 56.05 27.13"/><polygon class="cls-2" points="32.44 65.64 40.33 52.8 32.44 39.97 16.66 39.97 8.77 52.8 16.66 65.64 32.44 65.64"/><polygon class="cls-2" points="32.44 39.97 40.33 27.13 32.44 14.29 16.66 14.29 8.77 27.13 16.66 39.97 32.44 39.97"/><polygon class="cls-2" points="8.71 129.84 16.6 117 8.71 104.16 -7.07 104.16 -14.95 117 -7.07 129.84 8.71 129.84"/><polygon class="cls-2" points="8.71 104.16 16.6 91.32 8.71 78.48 -7.07 78.48 -14.95 91.32 -7.07 104.16 8.71 104.16"/><polygon class="cls-2" points="8.71 78.48 16.6 65.64 8.71 52.8 -7.07 52.8 -14.95 65.64 -7.07 78.48 8.71 78.48"/><polygon class="cls-2" points="474.69 149.1 466.8 136.26 474.69 123.42 490.46 123.42 498.35 136.26 490.46 149.1 474.69 149.1"/><polygon class="cls-2" points="474.69 123.42 466.8 110.58 474.69 97.74 490.46 97.74 498.35 110.58 490.46 123.42 474.69 123.42"/><polygon class="cls-2" points="474.69 97.74 466.8 84.9 474.69 72.06 490.46 72.06 498.35 84.9 490.46 97.74 474.69 97.74"/><polygon class="cls-2" points="498.3 136.26 490.42 123.42 498.3 110.58 514.08 110.58 521.97 123.42 514.08 136.26 498.3 136.26"/><polygon class="cls-2" points="498.3 110.58 490.42 97.74 498.3 84.9 514.08 84.9 521.97 97.74 514.08 110.58 498.3 110.58"/><polygon class="cls-2" points="474.32 72.06 466.44 59.22 474.32 46.38 490.1 46.38 497.99 59.22 490.1 72.06 474.32 72.06"/><polygon class="cls-2" points="474.32 46.38 466.44 33.55 474.32 20.7 490.1 20.7 497.99 33.55 490.1 46.38 474.32 46.38"/><polygon class="cls-2" points="474.32 20.7 466.44 7.87 474.32 -4.97 490.1 -4.97 497.99 7.87 490.1 20.7 474.32 20.7"/><polygon class="cls-2" points="497.94 59.22 490.05 46.38 497.94 33.55 513.71 33.55 521.6 46.38 513.71 59.22 497.94 59.22"/><polygon class="cls-2" points="497.94 33.55 490.05 20.7 497.94 7.87 513.71 7.87 521.6 20.7 513.71 33.55 497.94 33.55"/><polygon class="cls-2" points="521.97 149.1 514.08 136.26 521.97 123.42 537.74 123.42 545.63 136.26 537.74 149.1 521.97 149.1"/><polygon class="cls-2" points="521.97 123.42 514.08 110.58 521.97 97.74 537.74 97.74 545.63 110.58 537.74 123.42 521.97 123.42"/><polygon class="cls-2" points="521.97 97.74 514.08 84.9 521.97 72.06 537.74 72.06 545.63 84.9 537.74 97.74 521.97 97.74"/><polygon class="cls-2" points="545.58 136.26 537.69 123.42 545.58 110.58 561.36 110.58 569.25 123.42 561.36 136.26 545.58 136.26"/><polygon class="cls-2" points="545.58 110.58 537.69 97.74 545.58 84.9 561.36 84.9 569.25 97.74 561.36 110.58 545.58 110.58"/><polygon class="cls-2" points="521.85 72.06 513.96 59.22 521.85 46.38 537.63 46.38 545.51 59.22 537.63 72.06 521.85 72.06"/><polygon class="cls-2" points="521.85 46.38 513.96 33.55 521.85 20.7 537.63 20.7 545.51 33.55 537.63 46.38 521.85 46.38"/><polygon class="cls-2" points="521.85 20.7 513.96 7.87 521.85 -4.97 537.63 -4.97 545.51 7.87 537.63 20.7 521.85 20.7"/><polygon class="cls-2" points="545.47 59.22 537.58 46.38 545.47 33.55 561.24 33.55 569.13 46.38 561.24 59.22 545.47 59.22"/><polygon class="cls-2" points="545.47 33.55 537.58 20.7 545.47 7.87 561.24 7.87 569.13 20.7 561.24 33.55 545.47 33.55"/><polygon class="cls-2" points="569.19 123.42 561.3 110.58 569.19 97.74 584.97 97.74 592.86 110.58 584.97 123.42 569.19 123.42"/><polygon class="cls-2" points="569.19 97.74 561.3 84.9 569.19 72.06 584.97 72.06 592.86 84.9 584.97 97.74 569.19 97.74"/><polygon class="cls-2" points="569.19 72.06 561.3 59.22 569.19 46.38 584.97 46.38 592.86 59.22 584.97 72.06 569.19 72.06"/><polygon class="cls-2" points="466.39 136.26 474.27 123.42 466.39 110.58 450.61 110.58 442.72 123.42 450.61 136.26 466.39 136.26"/><polygon class="cls-2" points="466.39 110.58 474.27 97.74 466.39 84.9 450.61 84.9 442.72 97.74 450.61 110.58 466.39 110.58"/><polygon class="cls-2" points="466.39 84.9 474.27 72.06 466.39 59.22 450.61 59.22 442.72 72.06 450.61 84.9 466.39 84.9"/><polygon class="cls-2" points="442.77 123.42 450.66 110.58 442.77 97.74 427 97.74 419.11 110.58 427 123.42 442.77 123.42"/><polygon class="cls-2" points="442.77 97.74 450.66 84.9 442.77 72.06 427 72.06 419.11 84.9 427 97.74 442.77 97.74"/><polygon class="cls-2" points="466.75 59.22 474.64 46.38 466.75 33.55 450.98 33.55 443.09 46.38 450.98 59.22 466.75 59.22"/><polygon class="cls-2" points="466.75 33.55 474.64 20.7 466.75 7.87 450.98 7.87 443.09 20.7 450.98 33.55 466.75 33.55"/><polygon class="cls-2" points="466.75 7.87 474.64 -4.97 466.75 -17.81 450.98 -17.81 443.09 -4.97 450.98 7.87 466.75 7.87"/><polygon class="cls-2" points="443.14 46.38 451.03 33.55 443.14 20.7 427.36 20.7 419.48 33.55 427.36 46.38 443.14 46.38"/><polygon class="cls-2" points="443.14 20.7 451.03 7.87 443.14 -4.97 427.36 -4.97 419.48 7.87 427.36 20.7 443.14 20.7"/><polygon class="cls-2" points="419.11 136.26 427 123.42 419.11 110.58 403.33 110.58 395.44 123.42 403.33 136.26 419.11 136.26"/><polygon class="cls-2" points="419.11 110.58 427 97.74 419.11 84.9 403.33 84.9 395.44 97.74 403.33 110.58 419.11 110.58"/><polygon class="cls-2" points="419.11 84.9 427 72.06 419.11 59.22 403.33 59.22 395.44 72.06 403.33 84.9 419.11 84.9"/><polygon class="cls-2" points="395.49 123.42 403.38 110.58 395.49 97.74 379.72 97.74 371.83 110.58 379.72 123.42 395.49 123.42"/><polygon class="cls-2" points="395.49 97.74 403.38 84.9 395.49 72.06 379.72 72.06 371.83 84.9 379.72 97.74 395.49 97.74"/><polygon class="cls-2" points="419.23 59.22 427.11 46.38 419.23 33.55 403.45 33.55 395.56 46.38 403.45 59.22 419.23 59.22"/><polygon class="cls-2" points="419.23 33.55 427.11 20.7 419.23 7.87 403.45 7.87 395.56 20.7 403.45 33.55 419.23 33.55"/><polygon class="cls-2" points="419.23 7.87 427.11 -4.97 419.23 -17.81 403.45 -17.81 395.56 -4.97 403.45 7.87 419.23 7.87"/><polygon class="cls-2" points="395.61 46.38 403.5 33.55 395.61 20.7 379.83 20.7 371.95 33.55 379.84 46.38 395.61 46.38"/><polygon class="cls-2" points="395.61 20.7 403.5 7.87 395.61 -4.97 379.83 -4.97 371.95 7.87 379.83 20.7 395.61 20.7"/><polygon class="cls-2" points="371.88 110.58 379.77 97.74 371.88 84.9 356.11 84.9 348.22 97.74 356.11 110.58 371.88 110.58"/><polygon class="cls-2" points="371.88 84.9 379.77 72.06 371.88 59.22 356.11 59.23 348.22 72.06 356.11 84.9 371.88 84.9"/><polygon class="cls-2" points="371.88 59.22 379.77 46.38 371.88 33.55 356.11 33.55 348.22 46.38 356.11 59.23 371.88 59.22"/><polygon class="cls-2" points="348.27 97.74 356.16 84.9 348.27 72.06 332.49 72.06 324.61 84.9 332.49 97.74 348.27 97.74"/><polygon class="cls-2" points="348.27 72.06 356.16 59.23 348.27 46.38 332.49 46.38 324.61 59.23 332.49 72.06 348.27 72.06"/></svg>