<svg xmlns="http://www.w3.org/2000/svg" width="682.48" height="192.12" viewBox="0 0 682.48 192.12"><defs><style>.cls-1{fill:#febb00;stroke:#000;stroke-width:2px;}.cls-1,.cls-2{stroke-miterlimit:10;}.cls-2{fill:none;stroke:#f19b24;stroke-width:0.5px;}</style></defs><g id="Layer_1" data-name="Layer 1"><rect class="cls-1" width="682.48" height="192.12" rx="96.06"/><polygon class="cls-2" points="160.03 187.38 152.15 174.54 160.03 161.7 175.81 161.7 183.7 174.54 175.81 187.38 160.03 187.38"/><polygon class="cls-2" points="160.03 161.7 152.15 148.86 160.03 136.02 175.81 136.02 183.7 148.86 175.81 161.7 160.03 161.7"/><polygon class="cls-2" points="160.03 136.02 152.15 123.18 160.03 110.34 175.81 110.34 183.7 123.18 175.81 136.02 160.03 136.02"/><polygon class="cls-2" points="183.65 174.54 175.76 161.7 183.65 148.86 199.43 148.86 207.31 161.7 199.43 174.54 183.65 174.54"/><polygon class="cls-2" points="183.65 148.86 175.76 136.02 183.65 123.18 199.43 123.18 207.31 136.02 199.43 148.86 183.65 148.86"/><polygon class="cls-2" points="159.67 110.34 151.78 97.5 159.67 84.66 175.44 84.66 183.33 97.5 175.44 110.34 159.67 110.34"/><polygon class="cls-2" points="159.67 84.66 151.78 71.82 159.67 58.98 175.44 58.98 183.33 71.82 175.44 84.66 159.67 84.66"/><polygon class="cls-2" points="159.67 58.98 151.78 46.14 159.67 33.3 175.44 33.3 183.33 46.14 175.44 58.98 159.67 58.98"/><polygon class="cls-2" points="183.28 97.5 175.4 84.66 183.28 71.82 199.06 71.82 206.95 84.66 199.06 97.5 183.28 97.5"/><polygon class="cls-2" points="183.28 71.82 175.4 58.98 183.28 46.14 199.06 46.14 206.95 58.98 199.06 71.82 183.28 71.82"/><polygon class="cls-2" points="207.31 187.38 199.43 174.54 207.31 161.7 223.09 161.7 230.98 174.54 223.09 187.38 207.31 187.38"/><polygon class="cls-2" points="207.31 161.7 199.43 148.86 207.31 136.02 223.09 136.02 230.98 148.86 223.09 161.7 207.31 161.7"/><polygon class="cls-2" points="207.31 136.02 199.43 123.18 207.31 110.34 223.09 110.34 230.98 123.18 223.09 136.02 207.31 136.02"/><polygon class="cls-2" points="230.93 174.54 223.04 161.7 230.93 148.86 246.7 148.86 254.59 161.7 246.7 174.54 230.93 174.54"/><polygon class="cls-2" points="230.93 148.86 223.04 136.02 230.93 123.18 246.7 123.18 254.59 136.02 246.7 148.86 230.93 148.86"/><polygon class="cls-2" points="207.2 110.34 199.31 97.5 207.2 84.66 222.97 84.66 230.86 97.5 222.97 110.34 207.2 110.34"/><polygon class="cls-2" points="207.2 84.66 199.31 71.82 207.2 58.98 222.97 58.98 230.86 71.82 222.97 84.66 207.2 84.66"/><polygon class="cls-2" points="207.2 58.98 199.31 46.14 207.2 33.3 222.97 33.3 230.86 46.14 222.97 58.98 207.2 58.98"/><polygon class="cls-2" points="230.81 97.5 222.92 84.66 230.81 71.82 246.59 71.82 254.47 84.66 246.59 97.5 230.81 97.5"/><polygon class="cls-2" points="230.81 71.82 222.92 58.98 230.81 46.14 246.59 46.15 254.47 58.98 246.59 71.82 230.81 71.82"/><polygon class="cls-2" points="254.54 161.7 246.65 148.86 254.54 136.02 270.31 136.02 278.2 148.86 270.31 161.7 254.54 161.7"/><polygon class="cls-2" points="254.54 136.02 246.65 123.18 254.54 110.34 270.31 110.34 278.2 123.18 270.31 136.02 254.54 136.02"/><polygon class="cls-2" points="254.54 110.34 246.65 97.5 254.54 84.66 270.31 84.66 278.2 97.5 270.31 110.34 254.54 110.34"/><polygon class="cls-2" points="278.15 148.86 270.26 136.02 278.15 123.18 293.93 123.18 301.82 136.02 293.93 148.86 278.15 148.86"/><polygon class="cls-2" points="278.15 123.18 270.26 110.34 278.15 97.5 293.93 97.5 301.82 110.34 293.93 123.18 278.15 123.18"/><polygon class="cls-2" points="151.73 174.54 159.62 161.7 151.73 148.86 135.96 148.86 128.07 161.7 135.96 174.54 151.73 174.54"/><polygon class="cls-2" points="151.73 148.86 159.62 136.02 151.73 123.18 135.96 123.18 128.07 136.02 135.96 148.86 151.73 148.86"/><polygon class="cls-2" points="151.73 123.18 159.62 110.34 151.73 97.5 135.96 97.5 128.07 110.34 135.96 123.18 151.73 123.18"/><polygon class="cls-2" points="128.12 161.7 136 148.86 128.12 136.02 112.34 136.02 104.45 148.86 112.34 161.7 128.12 161.7"/><polygon class="cls-2" points="128.12 136.02 136 123.18 128.12 110.34 112.34 110.34 104.45 123.18 112.34 136.02 128.12 136.02"/><polygon class="cls-2" points="152.1 97.5 159.99 84.66 152.1 71.82 136.32 71.82 128.44 84.66 136.32 97.5 152.1 97.5"/><polygon class="cls-2" points="152.1 71.82 159.99 58.98 152.1 46.14 136.32 46.14 128.44 58.98 136.32 71.82 152.1 71.82"/><polygon class="cls-2" points="152.1 46.14 159.99 33.3 152.1 20.46 136.32 20.46 128.44 33.3 136.32 46.14 152.1 46.14"/><polygon class="cls-2" points="128.48 84.66 136.37 71.82 128.48 58.98 112.71 58.98 104.82 71.82 112.71 84.66 128.48 84.66"/><polygon class="cls-2" points="128.48 58.98 136.37 46.14 128.48 33.3 112.71 33.3 104.82 46.14 112.71 58.98 128.48 58.98"/><polygon class="cls-2" points="104.45 174.54 112.34 161.7 104.45 148.86 88.68 148.86 80.79 161.7 88.68 174.54 104.45 174.54"/><polygon class="cls-2" points="104.45 148.86 112.34 136.02 104.45 123.18 88.68 123.18 80.79 136.02 88.68 148.86 104.45 148.86"/><polygon class="cls-2" points="104.45 123.18 112.34 110.34 104.45 97.5 88.68 97.5 80.79 110.34 88.68 123.18 104.45 123.18"/><polygon class="cls-2" points="80.84 161.7 88.73 148.86 80.84 136.02 65.06 136.02 57.18 148.86 65.06 161.7 80.84 161.7"/><polygon class="cls-2" points="80.84 136.02 88.73 123.18 80.84 110.34 65.06 110.34 57.18 123.18 65.06 136.02 80.84 136.02"/><polygon class="cls-2" points="104.57 97.5 112.46 84.66 104.57 71.82 88.8 71.82 80.91 84.66 88.8 97.5 104.57 97.5"/><polygon class="cls-2" points="104.57 71.82 112.46 58.98 104.57 46.14 88.8 46.15 80.91 58.98 88.8 71.82 104.57 71.82"/><polygon class="cls-2" points="104.57 46.14 112.46 33.3 104.57 20.46 88.8 20.46 80.91 33.3 88.8 46.14 104.57 46.14"/><polygon class="cls-2" points="80.96 84.66 88.84 71.82 80.96 58.98 65.18 58.98 57.29 71.82 65.18 84.66 80.96 84.66"/><polygon class="cls-2" points="80.96 58.98 88.84 46.14 80.96 33.3 65.18 33.3 57.29 46.15 65.18 58.98 80.96 58.98"/><polygon class="cls-2" points="57.23 148.86 65.12 136.02 57.23 123.18 41.45 123.18 33.57 136.02 41.45 148.86 57.23 148.86"/><polygon class="cls-2" points="57.23 123.18 65.12 110.34 57.23 97.5 41.45 97.5 33.57 110.34 41.45 123.18 57.23 123.18"/><polygon class="cls-2" points="57.23 97.5 65.12 84.66 57.23 71.82 41.45 71.82 33.57 84.66 41.45 97.5 57.23 97.5"/><polygon class="cls-2" points="33.61 136.02 41.5 123.18 33.61 110.34 17.84 110.34 9.95 123.18 17.84 136.02 33.61 136.02"/><polygon class="cls-2" points="33.61 110.34 41.5 97.5 33.61 84.66 17.84 84.66 9.95 97.5 17.84 110.34 33.61 110.34"/><polygon class="cls-2" points="523.21 168.12 515.32 155.28 523.21 142.44 538.98 142.44 546.87 155.28 538.98 168.12 523.21 168.12"/><polygon class="cls-2" points="523.21 142.44 515.32 129.6 523.21 116.76 538.98 116.76 546.87 129.6 538.98 142.44 523.21 142.44"/><polygon class="cls-2" points="523.21 116.76 515.32 103.92 523.21 91.08 538.98 91.08 546.87 103.92 538.98 116.76 523.21 116.76"/><polygon class="cls-2" points="546.82 155.28 538.93 142.44 546.82 129.6 562.6 129.6 570.49 142.44 562.6 155.28 546.82 155.28"/><polygon class="cls-2" points="546.82 129.6 538.93 116.76 546.82 103.92 562.6 103.92 570.49 116.76 562.6 129.6 546.82 129.6"/><polygon class="cls-2" points="522.84 91.08 514.95 78.24 522.84 65.4 538.62 65.4 546.5 78.24 538.62 91.08 522.84 91.08"/><polygon class="cls-2" points="522.84 65.4 514.95 52.56 522.84 39.73 538.62 39.73 546.5 52.56 538.62 65.4 522.84 65.4"/><polygon class="cls-2" points="522.84 39.73 514.95 26.89 522.84 14.04 538.62 14.04 546.5 26.89 538.62 39.73 522.84 39.73"/><polygon class="cls-2" points="546.46 78.24 538.57 65.4 546.46 52.56 562.23 52.56 570.12 65.4 562.23 78.24 546.46 78.24"/><polygon class="cls-2" points="546.46 52.56 538.57 39.73 546.46 26.89 562.23 26.89 570.12 39.73 562.23 52.56 546.46 52.56"/><polygon class="cls-2" points="570.49 168.12 562.6 155.28 570.49 142.44 586.26 142.44 594.15 155.28 586.26 168.12 570.49 168.12"/><polygon class="cls-2" points="570.49 142.44 562.6 129.6 570.49 116.76 586.26 116.76 594.15 129.6 586.26 142.44 570.49 142.44"/><polygon class="cls-2" points="570.49 116.76 562.6 103.92 570.49 91.08 586.26 91.08 594.15 103.92 586.26 116.76 570.49 116.76"/><polygon class="cls-2" points="594.1 155.28 586.21 142.44 594.1 129.6 609.88 129.6 617.76 142.44 609.88 155.28 594.1 155.28"/><polygon class="cls-2" points="594.1 129.6 586.21 116.76 594.1 103.92 609.88 103.92 617.76 116.76 609.88 129.6 594.1 129.6"/><polygon class="cls-2" points="570.37 91.08 562.48 78.24 570.37 65.4 586.14 65.4 594.03 78.24 586.14 91.08 570.37 91.08"/><polygon class="cls-2" points="570.37 65.4 562.48 52.56 570.37 39.73 586.14 39.73 594.03 52.56 586.14 65.4 570.37 65.4"/><polygon class="cls-2" points="570.37 39.73 562.48 26.89 570.37 14.04 586.14 14.04 594.03 26.89 586.14 39.73 570.37 39.73"/><polygon class="cls-2" points="593.98 78.24 586.1 65.4 593.98 52.56 609.76 52.56 617.65 65.4 609.76 78.24 593.98 78.24"/><polygon class="cls-2" points="593.98 52.56 586.1 39.73 593.98 26.89 609.76 26.89 617.65 39.73 609.76 52.56 593.98 52.56"/><polygon class="cls-2" points="617.71 142.44 609.82 129.6 617.71 116.76 633.49 116.76 641.37 129.6 633.49 142.44 617.71 142.44"/><polygon class="cls-2" points="617.71 116.76 609.82 103.92 617.71 91.08 633.49 91.08 641.38 103.92 633.49 116.76 617.71 116.76"/><polygon class="cls-2" points="617.71 91.08 609.82 78.24 617.71 65.4 633.49 65.4 641.38 78.24 633.49 91.08 617.71 91.08"/><polygon class="cls-2" points="641.33 129.6 633.44 116.76 641.33 103.92 657.1 103.92 664.99 116.76 657.1 129.6 641.33 129.6"/><polygon class="cls-2" points="641.33 103.92 633.44 91.08 641.33 78.24 657.1 78.24 664.99 91.08 657.1 103.92 641.33 103.92"/><polygon class="cls-2" points="514.9 155.28 522.79 142.44 514.9 129.6 499.13 129.6 491.24 142.44 499.13 155.28 514.9 155.28"/><polygon class="cls-2" points="514.9 129.6 522.79 116.76 514.9 103.92 499.13 103.92 491.24 116.76 499.13 129.6 514.9 129.6"/><polygon class="cls-2" points="514.9 103.92 522.79 91.08 514.9 78.24 499.13 78.24 491.24 91.08 499.13 103.92 514.9 103.92"/><polygon class="cls-2" points="491.29 142.44 499.18 129.6 491.29 116.76 475.51 116.76 467.63 129.6 475.51 142.44 491.29 142.44"/><polygon class="cls-2" points="491.29 116.76 499.18 103.92 491.29 91.08 475.51 91.08 467.63 103.92 475.51 116.76 491.29 116.76"/><polygon class="cls-2" points="515.27 78.24 523.16 65.4 515.27 52.56 499.5 52.56 491.61 65.4 499.5 78.24 515.27 78.24"/><polygon class="cls-2" points="515.27 52.56 523.16 39.73 515.27 26.89 499.5 26.89 491.61 39.73 499.5 52.56 515.27 52.56"/><polygon class="cls-2" points="515.27 26.89 523.16 14.04 515.27 1.21 499.5 1.21 491.61 14.04 499.5 26.89 515.27 26.89"/><polygon class="cls-2" points="491.66 65.4 499.55 52.56 491.66 39.73 475.88 39.73 467.99 52.56 475.88 65.4 491.66 65.4"/><polygon class="cls-2" points="491.66 39.73 499.55 26.89 491.66 14.04 475.88 14.04 467.99 26.89 475.88 39.73 491.66 39.73"/><polygon class="cls-2" points="467.63 155.28 475.51 142.44 467.63 129.6 451.85 129.6 443.96 142.44 451.85 155.28 467.63 155.28"/><polygon class="cls-2" points="467.63 129.6 475.51 116.76 467.63 103.92 451.85 103.92 443.96 116.76 451.85 129.6 467.63 129.6"/><polygon class="cls-2" points="467.63 103.92 475.51 91.08 467.63 78.24 451.85 78.24 443.96 91.08 451.85 103.92 467.63 103.92"/><polygon class="cls-2" points="444.01 142.44 451.9 129.6 444.01 116.76 428.24 116.76 420.35 129.6 428.24 142.44 444.01 142.44"/><polygon class="cls-2" points="444.01 116.76 451.9 103.92 444.01 91.08 428.24 91.08 420.35 103.92 428.24 116.76 444.01 116.76"/><polygon class="cls-2" points="467.75 78.24 475.63 65.4 467.75 52.56 451.97 52.56 444.08 65.4 451.97 78.24 467.75 78.24"/><polygon class="cls-2" points="467.75 52.56 475.63 39.73 467.74 26.89 451.97 26.89 444.08 39.73 451.97 52.56 467.75 52.56"/><polygon class="cls-2" points="467.74 26.89 475.63 14.04 467.74 1.21 451.97 1.21 444.08 14.04 451.97 26.89 467.74 26.89"/><polygon class="cls-2" points="444.13 65.4 452.02 52.56 444.13 39.73 428.35 39.73 420.47 52.56 428.35 65.4 444.13 65.4"/><polygon class="cls-2" points="444.13 39.73 452.02 26.89 444.13 14.04 428.35 14.04 420.47 26.89 428.35 39.73 444.13 39.73"/><polygon class="cls-2" points="420.4 129.6 428.29 116.76 420.4 103.92 404.63 103.92 396.74 116.76 404.63 129.6 420.4 129.6"/><polygon class="cls-2" points="420.4 103.92 428.29 91.08 420.4 78.24 404.63 78.24 396.74 91.08 404.63 103.92 420.4 103.92"/><polygon class="cls-2" points="420.4 78.24 428.29 65.4 420.4 52.56 404.63 52.56 396.74 65.4 404.63 78.24 420.4 78.24"/><polygon class="cls-2" points="396.79 116.76 404.68 103.92 396.79 91.08 381.01 91.08 373.12 103.92 381.01 116.76 396.79 116.76"/><polygon class="cls-2" points="396.79 91.08 404.68 78.24 396.79 65.4 381.01 65.4 373.12 78.24 381.01 91.08 396.79 91.08"/></g><g id="Layer_2" data-name="Layer 2"><path d="M256.88,67.84h31.76v10.4h-20v8.64h18.48V97.12H268.64v8.64h20.88v10.08H256.88Zm29.68,45.76V108H265.68V94.88h18.48V89.12H265.68V76h20V70.08H259.84V113.6Zm-25.28-1.35h24.48v.39H260.88Zm-.32-41h23.92v.4H261.36Zm1.6,1.6h22.32v.4H263Zm.4,37.84h22.8v.41h-23.2Zm1.2-36.24h20.72v.4H264.56Zm.48,34.65h21.12v.39h-21.6Zm1-18.89h17.68v.4H265.68Zm0,1.6h17.68v.4H265.68Zm0,1.6h17.68v.4H265.68Z"/><path d="M325,90.88l-15.44-23H323.2l9,14.32,8.56-14.32h13.52L338.72,91.6l16.4,24.24H341.68l-9.92-15.12-9.52,15.12H308.8ZM320.4,113.6l11-16.8h1l11.2,16.8h6.88l-15-21.92,14.24-21.6h-7.12l-9.92,16.48h-.8L321.36,70.08h-7L328.24,90.8l-14.8,22.8Zm-5.12-1.28h5l-.32.4h-5ZM315.92,71h4.88l.24.4h-4.88Zm.4,39.76h5l-.32.41h-5ZM317,72.56h4.8l.32.4H317.2Zm.32,36.64h5l-.32.4h-5Zm1-1.6h5l-.32.4h-5Zm-.24-33.44h4.72l.24.4h-4.72ZM319.36,106h5l-.32.4h-5Zm-.24-30.24h4.64l.32.4h-4.72Zm1.28,28.64h5l-.32.4h-5Zm-.24-27.12h4.56l.32.4H320.4Zm1.28,25.52h5l-.32.4h-5Zm-.24-23.92h4.56l.32.4h-4.64Zm1.28,22.32h5l-.32.4h-5Zm-.16-20.72h4.48l.32.4h-4.56Zm1.2,19.12h5l-.32.4h-5Zm-.16-17.52h4.48l.24.4H323.6ZM324.56,98h5l-.32.4h-5Zm-.08-14.32h4.32l.32.4h-4.4ZM325.6,96.4h5l-.32.4h-5Zm-.08-11.12h4.32l.32.4h-4.4Zm1.12,9.52h5l-.32.4h-5Zm-.08-7.92h4.32l.32.4h-4.4Zm1,6.4h5l-.16.32h-5Zm.08-4.8h4.24l.32.4h-4.32Zm1,3.2h5l-.32.4h-5Zm0-1.6H333l.24.4H329Z"/><path d="M376.4,67.84h11.76v48H376.4Zm8.8,45.76V70.08h-5.84V113.6Zm-5-42.8h4.24v.4h-4.24Zm0,1.6h4.24v.4h-4.24Zm0,1.6h4.24v.4h-4.24Zm0,1.6h4.24V76h-4.24Zm0,1.6h4.24v.4h-4.24Zm0,1.6h4.24v.4h-4.24Zm0,1.6h4.24v.4h-4.24Zm0,1.6h4.24v.4h-4.24Zm0,1.6h4.24V84h-4.24Zm0,1.6h4.24v.4h-4.24Zm0,1.6h4.24v.4h-4.24Zm0,1.6h4.24v.4h-4.24Zm0,1.6h4.24v.4h-4.24Zm0,1.6h4.24V92h-4.24Zm0,1.6h4.24v.4h-4.24Z"/><path d="M420.4,78.24H409.6V67.84H443v10.4H432.16v37.6H420.4Zm8.8,35.36V76h10.88V70.08H412.56V76h10.8v37.6ZM413.36,71.28h25.92v.4H413.36Zm0,1.6h25.92v.4H413.36Zm0,1.6h25.92v.4H413.36Z"/></g></svg>