<svg xmlns="http://www.w3.org/2000/svg" width="682.48" height="192.12" viewBox="0 0 682.48 192.12"><defs><style>.cls-1{fill:#febb00;stroke:#000;stroke-width:2px;}.cls-1,.cls-2{stroke-miterlimit:10;}.cls-2{fill:none;stroke:#f19b24;stroke-width:0.5px;}</style></defs><g id="Layer_1" data-name="Layer 1"><rect class="cls-1" width="682.48" height="192.12" rx="96.06"/><polygon class="cls-2" points="160.03 187.38 152.15 174.54 160.03 161.7 175.81 161.7 183.7 174.54 175.81 187.38 160.03 187.38"/><polygon class="cls-2" points="160.03 161.7 152.15 148.86 160.03 136.02 175.81 136.02 183.7 148.86 175.81 161.7 160.03 161.7"/><polygon class="cls-2" points="160.03 136.02 152.15 123.18 160.03 110.34 175.81 110.34 183.7 123.18 175.81 136.02 160.03 136.02"/><polygon class="cls-2" points="183.65 174.54 175.76 161.7 183.65 148.86 199.43 148.86 207.31 161.7 199.43 174.54 183.65 174.54"/><polygon class="cls-2" points="183.65 148.86 175.76 136.02 183.65 123.18 199.43 123.18 207.31 136.02 199.43 148.86 183.65 148.86"/><polygon class="cls-2" points="159.67 110.34 151.78 97.5 159.67 84.66 175.44 84.66 183.33 97.5 175.44 110.34 159.67 110.34"/><polygon class="cls-2" points="159.67 84.66 151.78 71.82 159.67 58.98 175.44 58.98 183.33 71.82 175.44 84.66 159.67 84.66"/><polygon class="cls-2" points="159.67 58.98 151.78 46.14 159.67 33.3 175.44 33.3 183.33 46.14 175.44 58.98 159.67 58.98"/><polygon class="cls-2" points="183.28 97.5 175.4 84.66 183.28 71.82 199.06 71.82 206.95 84.66 199.06 97.5 183.28 97.5"/><polygon class="cls-2" points="183.28 71.82 175.4 58.98 183.28 46.14 199.06 46.14 206.95 58.98 199.06 71.82 183.28 71.82"/><polygon class="cls-2" points="207.31 187.38 199.43 174.54 207.31 161.7 223.09 161.7 230.98 174.54 223.09 187.38 207.31 187.38"/><polygon class="cls-2" points="207.31 161.7 199.43 148.86 207.31 136.02 223.09 136.02 230.98 148.86 223.09 161.7 207.31 161.7"/><polygon class="cls-2" points="207.31 136.02 199.43 123.18 207.31 110.34 223.09 110.34 230.98 123.18 223.09 136.02 207.31 136.02"/><polygon class="cls-2" points="230.93 174.54 223.04 161.7 230.93 148.86 246.7 148.86 254.59 161.7 246.7 174.54 230.93 174.54"/><polygon class="cls-2" points="230.93 148.86 223.04 136.02 230.93 123.18 246.7 123.18 254.59 136.02 246.7 148.86 230.93 148.86"/><polygon class="cls-2" points="207.2 110.34 199.31 97.5 207.2 84.66 222.97 84.66 230.86 97.5 222.97 110.34 207.2 110.34"/><polygon class="cls-2" points="207.2 84.66 199.31 71.82 207.2 58.98 222.97 58.98 230.86 71.82 222.97 84.66 207.2 84.66"/><polygon class="cls-2" points="207.2 58.98 199.31 46.14 207.2 33.3 222.97 33.3 230.86 46.14 222.97 58.98 207.2 58.98"/><polygon class="cls-2" points="230.81 97.5 222.92 84.66 230.81 71.82 246.59 71.82 254.47 84.66 246.59 97.5 230.81 97.5"/><polygon class="cls-2" points="230.81 71.82 222.92 58.98 230.81 46.14 246.59 46.15 254.47 58.98 246.59 71.82 230.81 71.82"/><polygon class="cls-2" points="254.54 161.7 246.65 148.86 254.54 136.02 270.31 136.02 278.2 148.86 270.31 161.7 254.54 161.7"/><polygon class="cls-2" points="254.54 136.02 246.65 123.18 254.54 110.34 270.31 110.34 278.2 123.18 270.31 136.02 254.54 136.02"/><polygon class="cls-2" points="254.54 110.34 246.65 97.5 254.54 84.66 270.31 84.66 278.2 97.5 270.31 110.34 254.54 110.34"/><polygon class="cls-2" points="278.15 148.86 270.26 136.02 278.15 123.18 293.93 123.18 301.82 136.02 293.93 148.86 278.15 148.86"/><polygon class="cls-2" points="278.15 123.18 270.26 110.34 278.15 97.5 293.93 97.5 301.82 110.34 293.93 123.18 278.15 123.18"/><polygon class="cls-2" points="151.73 174.54 159.62 161.7 151.73 148.86 135.96 148.86 128.07 161.7 135.96 174.54 151.73 174.54"/><polygon class="cls-2" points="151.73 148.86 159.62 136.02 151.73 123.18 135.96 123.18 128.07 136.02 135.96 148.86 151.73 148.86"/><polygon class="cls-2" points="151.73 123.18 159.62 110.34 151.73 97.5 135.96 97.5 128.07 110.34 135.96 123.18 151.73 123.18"/><polygon class="cls-2" points="128.12 161.7 136 148.86 128.12 136.02 112.34 136.02 104.45 148.86 112.34 161.7 128.12 161.7"/><polygon class="cls-2" points="128.12 136.02 136 123.18 128.12 110.34 112.34 110.34 104.45 123.18 112.34 136.02 128.12 136.02"/><polygon class="cls-2" points="152.1 97.5 159.99 84.66 152.1 71.82 136.32 71.82 128.44 84.66 136.32 97.5 152.1 97.5"/><polygon class="cls-2" points="152.1 71.82 159.99 58.98 152.1 46.14 136.32 46.14 128.44 58.98 136.32 71.82 152.1 71.82"/><polygon class="cls-2" points="152.1 46.14 159.99 33.3 152.1 20.46 136.32 20.46 128.44 33.3 136.32 46.14 152.1 46.14"/><polygon class="cls-2" points="128.48 84.66 136.37 71.82 128.48 58.98 112.71 58.98 104.82 71.82 112.71 84.66 128.48 84.66"/><polygon class="cls-2" points="128.48 58.98 136.37 46.14 128.48 33.3 112.71 33.3 104.82 46.14 112.71 58.98 128.48 58.98"/><polygon class="cls-2" points="104.45 174.54 112.34 161.7 104.45 148.86 88.68 148.86 80.79 161.7 88.68 174.54 104.45 174.54"/><polygon class="cls-2" points="104.45 148.86 112.34 136.02 104.45 123.18 88.68 123.18 80.79 136.02 88.68 148.86 104.45 148.86"/><polygon class="cls-2" points="104.45 123.18 112.34 110.34 104.45 97.5 88.68 97.5 80.79 110.34 88.68 123.18 104.45 123.18"/><polygon class="cls-2" points="80.84 161.7 88.73 148.86 80.84 136.02 65.06 136.02 57.18 148.86 65.06 161.7 80.84 161.7"/><polygon class="cls-2" points="80.84 136.02 88.73 123.18 80.84 110.34 65.06 110.34 57.18 123.18 65.06 136.02 80.84 136.02"/><polygon class="cls-2" points="104.57 97.5 112.46 84.66 104.57 71.82 88.8 71.82 80.91 84.66 88.8 97.5 104.57 97.5"/><polygon class="cls-2" points="104.57 71.82 112.46 58.98 104.57 46.14 88.8 46.15 80.91 58.98 88.8 71.82 104.57 71.82"/><polygon class="cls-2" points="104.57 46.14 112.46 33.3 104.57 20.46 88.8 20.46 80.91 33.3 88.8 46.14 104.57 46.14"/><polygon class="cls-2" points="80.96 84.66 88.84 71.82 80.96 58.98 65.18 58.98 57.29 71.82 65.18 84.66 80.96 84.66"/><polygon class="cls-2" points="80.96 58.98 88.84 46.14 80.96 33.3 65.18 33.3 57.29 46.15 65.18 58.98 80.96 58.98"/><polygon class="cls-2" points="57.23 148.86 65.12 136.02 57.23 123.18 41.45 123.18 33.57 136.02 41.45 148.86 57.23 148.86"/><polygon class="cls-2" points="57.23 123.18 65.12 110.34 57.23 97.5 41.45 97.5 33.57 110.34 41.45 123.18 57.23 123.18"/><polygon class="cls-2" points="57.23 97.5 65.12 84.66 57.23 71.82 41.45 71.82 33.57 84.66 41.45 97.5 57.23 97.5"/><polygon class="cls-2" points="33.61 136.02 41.5 123.18 33.61 110.34 17.84 110.34 9.95 123.18 17.84 136.02 33.61 136.02"/><polygon class="cls-2" points="33.61 110.34 41.5 97.5 33.61 84.66 17.84 84.66 9.95 97.5 17.84 110.34 33.61 110.34"/><polygon class="cls-2" points="523.21 168.12 515.32 155.28 523.21 142.44 538.98 142.44 546.87 155.28 538.98 168.12 523.21 168.12"/><polygon class="cls-2" points="523.21 142.44 515.32 129.6 523.21 116.76 538.98 116.76 546.87 129.6 538.98 142.44 523.21 142.44"/><polygon class="cls-2" points="523.21 116.76 515.32 103.92 523.21 91.08 538.98 91.08 546.87 103.92 538.98 116.76 523.21 116.76"/><polygon class="cls-2" points="546.82 155.28 538.93 142.44 546.82 129.6 562.6 129.6 570.49 142.44 562.6 155.28 546.82 155.28"/><polygon class="cls-2" points="546.82 129.6 538.93 116.76 546.82 103.92 562.6 103.92 570.49 116.76 562.6 129.6 546.82 129.6"/><polygon class="cls-2" points="522.84 91.08 514.95 78.24 522.84 65.4 538.62 65.4 546.5 78.24 538.62 91.08 522.84 91.08"/><polygon class="cls-2" points="522.84 65.4 514.95 52.56 522.84 39.73 538.62 39.73 546.5 52.56 538.62 65.4 522.84 65.4"/><polygon class="cls-2" points="522.84 39.73 514.95 26.89 522.84 14.04 538.62 14.04 546.5 26.89 538.62 39.73 522.84 39.73"/><polygon class="cls-2" points="546.46 78.24 538.57 65.4 546.46 52.56 562.23 52.56 570.12 65.4 562.23 78.24 546.46 78.24"/><polygon class="cls-2" points="546.46 52.56 538.57 39.73 546.46 26.89 562.23 26.89 570.12 39.73 562.23 52.56 546.46 52.56"/><polygon class="cls-2" points="570.49 168.12 562.6 155.28 570.49 142.44 586.26 142.44 594.15 155.28 586.26 168.12 570.49 168.12"/><polygon class="cls-2" points="570.49 142.44 562.6 129.6 570.49 116.76 586.26 116.76 594.15 129.6 586.26 142.44 570.49 142.44"/><polygon class="cls-2" points="570.49 116.76 562.6 103.92 570.49 91.08 586.26 91.08 594.15 103.92 586.26 116.76 570.49 116.76"/><polygon class="cls-2" points="594.1 155.28 586.21 142.44 594.1 129.6 609.88 129.6 617.76 142.44 609.88 155.28 594.1 155.28"/><polygon class="cls-2" points="594.1 129.6 586.21 116.76 594.1 103.92 609.88 103.92 617.76 116.76 609.88 129.6 594.1 129.6"/><polygon class="cls-2" points="570.37 91.08 562.48 78.24 570.37 65.4 586.14 65.4 594.03 78.24 586.14 91.08 570.37 91.08"/><polygon class="cls-2" points="570.37 65.4 562.48 52.56 570.37 39.73 586.14 39.73 594.03 52.56 586.14 65.4 570.37 65.4"/><polygon class="cls-2" points="570.37 39.73 562.48 26.89 570.37 14.04 586.14 14.04 594.03 26.89 586.14 39.73 570.37 39.73"/><polygon class="cls-2" points="593.98 78.24 586.1 65.4 593.98 52.56 609.76 52.56 617.65 65.4 609.76 78.24 593.98 78.24"/><polygon class="cls-2" points="593.98 52.56 586.1 39.73 593.98 26.89 609.76 26.89 617.65 39.73 609.76 52.56 593.98 52.56"/><polygon class="cls-2" points="617.71 142.44 609.82 129.6 617.71 116.76 633.49 116.76 641.37 129.6 633.49 142.44 617.71 142.44"/><polygon class="cls-2" points="617.71 116.76 609.82 103.92 617.71 91.08 633.49 91.08 641.38 103.92 633.49 116.76 617.71 116.76"/><polygon class="cls-2" points="617.71 91.08 609.82 78.24 617.71 65.4 633.49 65.4 641.38 78.24 633.49 91.08 617.71 91.08"/><polygon class="cls-2" points="641.33 129.6 633.44 116.76 641.33 103.92 657.1 103.92 664.99 116.76 657.1 129.6 641.33 129.6"/><polygon class="cls-2" points="641.33 103.92 633.44 91.08 641.33 78.24 657.1 78.24 664.99 91.08 657.1 103.92 641.33 103.92"/><polygon class="cls-2" points="514.9 155.28 522.79 142.44 514.9 129.6 499.13 129.6 491.24 142.44 499.13 155.28 514.9 155.28"/><polygon class="cls-2" points="514.9 129.6 522.79 116.76 514.9 103.92 499.13 103.92 491.24 116.76 499.13 129.6 514.9 129.6"/><polygon class="cls-2" points="514.9 103.92 522.79 91.08 514.9 78.24 499.13 78.24 491.24 91.08 499.13 103.92 514.9 103.92"/><polygon class="cls-2" points="491.29 142.44 499.18 129.6 491.29 116.76 475.51 116.76 467.63 129.6 475.51 142.44 491.29 142.44"/><polygon class="cls-2" points="491.29 116.76 499.18 103.92 491.29 91.08 475.51 91.08 467.63 103.92 475.51 116.76 491.29 116.76"/><polygon class="cls-2" points="515.27 78.24 523.16 65.4 515.27 52.56 499.5 52.56 491.61 65.4 499.5 78.24 515.27 78.24"/><polygon class="cls-2" points="515.27 52.56 523.16 39.73 515.27 26.89 499.5 26.89 491.61 39.73 499.5 52.56 515.27 52.56"/><polygon class="cls-2" points="515.27 26.89 523.16 14.04 515.27 1.21 499.5 1.21 491.61 14.04 499.5 26.89 515.27 26.89"/><polygon class="cls-2" points="491.66 65.4 499.55 52.56 491.66 39.73 475.88 39.73 467.99 52.56 475.88 65.4 491.66 65.4"/><polygon class="cls-2" points="491.66 39.73 499.55 26.89 491.66 14.04 475.88 14.04 467.99 26.89 475.88 39.73 491.66 39.73"/><polygon class="cls-2" points="467.63 155.28 475.51 142.44 467.63 129.6 451.85 129.6 443.96 142.44 451.85 155.28 467.63 155.28"/><polygon class="cls-2" points="467.63 129.6 475.51 116.76 467.63 103.92 451.85 103.92 443.96 116.76 451.85 129.6 467.63 129.6"/><polygon class="cls-2" points="467.63 103.92 475.51 91.08 467.63 78.24 451.85 78.24 443.96 91.08 451.85 103.92 467.63 103.92"/><polygon class="cls-2" points="444.01 142.44 451.9 129.6 444.01 116.76 428.24 116.76 420.35 129.6 428.24 142.44 444.01 142.44"/><polygon class="cls-2" points="444.01 116.76 451.9 103.92 444.01 91.08 428.24 91.08 420.35 103.92 428.24 116.76 444.01 116.76"/><polygon class="cls-2" points="467.75 78.24 475.63 65.4 467.75 52.56 451.97 52.56 444.08 65.4 451.97 78.24 467.75 78.24"/><polygon class="cls-2" points="467.75 52.56 475.63 39.73 467.74 26.89 451.97 26.89 444.08 39.73 451.97 52.56 467.75 52.56"/><polygon class="cls-2" points="467.74 26.89 475.63 14.04 467.74 1.21 451.97 1.21 444.08 14.04 451.97 26.89 467.74 26.89"/><polygon class="cls-2" points="444.13 65.4 452.02 52.56 444.13 39.73 428.35 39.73 420.47 52.56 428.35 65.4 444.13 65.4"/><polygon class="cls-2" points="444.13 39.73 452.02 26.89 444.13 14.04 428.35 14.04 420.47 26.89 428.35 39.73 444.13 39.73"/><polygon class="cls-2" points="420.4 129.6 428.29 116.76 420.4 103.92 404.63 103.92 396.74 116.76 404.63 129.6 420.4 129.6"/><polygon class="cls-2" points="420.4 103.92 428.29 91.08 420.4 78.24 404.63 78.24 396.74 91.08 404.63 103.92 420.4 103.92"/><polygon class="cls-2" points="420.4 78.24 428.29 65.4 420.4 52.56 404.63 52.56 396.74 65.4 404.63 78.24 420.4 78.24"/><polygon class="cls-2" points="396.79 116.76 404.68 103.92 396.79 91.08 381.01 91.08 373.12 103.92 381.01 116.76 396.79 116.76"/><polygon class="cls-2" points="396.79 91.08 404.68 78.24 396.79 65.4 381.01 65.4 373.12 78.24 381.01 91.08 396.79 91.08"/></g><g id="Layer_2" data-name="Layer 2"><path d="M26.28,75.18H38V94.06h18.8V75.18H68.52v48H56.84v-19H38v19H26.28Zm8.8,45.76V102H59.8v19h5.76V77.42H59.8V96.3H35.08V77.42H29.24v43.52Zm-5-42.8h4.24v.4H30Zm0,1.6h4.24v.4H30Zm0,1.6h4.24v.4H30Zm0,1.6h4.24v.4H30Zm0,1.6h4.24v.4H30Zm0,1.6h4.24v.4H30Zm0,1.6h4.24v.4H30Zm0,1.6h4.24v.4H30Zm0,1.6h4.24v.4H30Zm0,1.6h4.24v.4H30Zm0,1.6h4.24v.4H30Zm0,1.6h4.24v.4H30Zm0,1.6H64.76v.4H30Zm0,1.6H64.76v.4H30Zm0,1.6H64.76v.4H30Zm30.48-22.4h4.24v.4H60.52Zm0,1.6h4.24v.4H60.52Zm0,1.6h4.24v.4H60.52Zm0,1.6h4.24v.4H60.52Zm0,1.6h4.24v.4H60.52Zm0,1.6h4.24v.4H60.52Zm0,1.6h4.24v.4H60.52Zm0,1.6h4.24v.4H60.52Zm0,1.6h4.24v.4H60.52Zm0,1.6h4.24v.4H60.52Zm0,1.6h4.24v.4H60.52Zm0,1.6h4.24v.4H60.52Z"/><path d="M118.52,73.58c15.12,0,25.84,11.28,25.84,25.6s-10.72,25.6-25.84,25.6S92.68,113.5,92.68,99.18,103.32,73.58,118.52,73.58Zm0,48.8c13.28,0,22.88-10.16,22.88-23.2s-9.6-23.36-22.88-23.36S95.64,86.14,95.64,99.18,105.16,122.38,118.52,122.38Zm-22-25h4.32l-.08.4H96.44ZM96.44,99h4.32v.4H96.44Zm0,1.6h4.32l.08.4H96.52Zm.24-4.8h4.4l-.16.4H96.6Zm-.08,6.4h4.32l.16.4h-4.4Zm.32-8h4.48l-.16.4h-4.4Zm-.08,9.6h4.4l.16.4H97Zm.48-11.2h4.56l-.16.4H97.24ZM97.8,91h4.8l-.24.4H97.72Zm.64-1.6h5l-.32.4H98.28Zm.8-1.6h5.44l-.32.4H99Zm1-1.6h5.92l-.48.4H100Zm1.12-1.6h6.72l-.56.4h-6.48Zm17.12-2.16c10.24,0,17,7.36,17,16.72s-6.72,17-17,17-17-7.6-17-17S108.2,82.46,118.52,82.46Zm-15.6.56h8.4l-1,.4h-7.76Zm1.84-1.6h27.6l.4.4h-11l-3.2-.24-3,.24H104.12Zm13.76,32.24c8.48,0,13.92-6.4,13.92-14.48S127,84.7,118.52,84.7,104.6,91.1,104.6,99.18,110,113.66,118.52,113.66ZM107.08,79.82H130l.48.4h-24Zm3.28-1.6h16.32l1,.4h-18.4Zm8.16-1.52,4.24.32H114.6ZM134.12,83l-.08-.08.48.48h-7.76l-.88-.4Zm1.36,1.6.4.4h-6.4l-.56-.4Zm1.2,1.6.32.4h-5.68l-.48-.4Zm1,1.6.24.4h-5.2l-.4-.4Zm-4.16,1.6h5l.16.4h-4.88Zm.88,1.6h4.72l.16.4H134.6Zm.72,1.6h4.56l.16.4h-4.48Zm.48,1.6H140l.16.4h-4.48Zm.16,9.6h4.4l-.08.4h-4.48Zm.24-8h4.4l.08.4H136Zm.08,6.4h4.4l-.16.4H136Zm.16-1.6h4.32v.4h-4.4Zm0-3.2h4.32v.4H136.2Zm.08,1.6h4.32v.4h-4.32Z"/><path d="M163.08,75.18H175.4l9.68,22.64,5.84-15-3-7.6H200l9.6,22.56,8.8-22.56h12.24l-20,49.6h-1.6L197.24,97.1,185.8,124.78h-1.52Zm33.6,16h1.12l12,28.16,17-41.92h-6.08l-10.24,26h-1.28l-11.28-26h-6L194,82.7l-7.84,20.56h-1.6L173.24,77.42h-6.16L185,119.26ZM168.28,78.3h4.4l.16.4h-4.32Zm.64,1.6h4.48l.16.4h-4.4Zm.72,1.6h4.48l.16.4h-4.4Zm.64,1.6h4.56l.16.4h-4.48Zm.72,1.6h4.48l.16.4h-4.4Zm.64,1.6h4.56l.16.4h-4.48Zm.72,1.6h4.56l.16.4H172.6Zm.72,1.6h4.48l.16.4h-4.4Zm.72,1.6h4.48l.16.4H174Zm.64,1.6H179l.16.4h-4.48Zm.72,1.6h4.48l.16.4h-4.4Zm.64,1.6h4.56l.16.4H176Zm.72,1.6H181l.16.4h-4.4Zm.64,1.6h4.56l.16.4H177.4Zm.72,1.6h4.56l.16.4h-4.48Zm.64,1.6h4.56l.16.4h-4.48Zm.72,1.6h4.56l.16.4h-4.48Zm.72,1.6h4.56l.16.4H180.2Zm.64,1.6h4.56l.16.4h-4.48Zm.72,1.6h4.56l.16.4h-4.48Zm.64,1.6h4.64l.16.4H182.2Zm5.12,1.6-.16.4h-4l-.24-.4Zm-.64,1.6-.16.4h-2.72l-.24-.4Zm-.64,1.6-.16.4h-1.36l-.24-.4Zm-.64,1.6-.16.48-.24-.48Zm7.92-38.4h4.24l.16.4h-4.16Zm.64,1.6H198l.16.4H194Zm.72,1.6h4.32l.16.4h-4.24Zm.64,1.6h4.4l.16.4h-4.32Zm.72,1.6h4.32l.16.4H196Zm.72,1.6h4.32l.16.4h-4.24Zm.64,1.6h4.32l.16.4H197.4Zm.64,1.6h4.4l.16.4H198Zm.72,1.6h4.4l.16.4h-4.32Zm.72,1.6h4.4l.16.4h-4.32Zm.64,1.6h4.4l.16.4h-4.32Zm.72,1.6H205l.16.4h-4.32Zm.64,1.6h4.48l.16.4h-4.4Zm5.2,1.6.16.4h-4.4l-.24-.4Zm.64,1.6.16.4h-4.4l-.24-.4Zm.72,1.6.16.4h-4.4l-.24-.4Zm.72,1.6.16.4h-4.4l-.24-.4Zm.64,1.6.16.4H205l-.24-.4Zm.72,1.6.16.4h-4.4l-.24-.4Zm.72,1.6.16.4h-4.4l-.24-.4Zm.64,1.6.16.4H207l-.24-.4Zm.72,1.6-.16.4h-4.08l-.24-.4Zm-.64,1.6-.24.4h-2.72l-.24-.4Zm-.64,1.6-.24.4h-1.36l-.24-.4Zm-.64,1.6-.24.48-.24-.48Z"/><path d="M293.08,85.58h-10.8V75.18h33.44v10.4H304.84v37.6H293.08Zm8.8,35.36V83.34h10.88V77.42H285.24v5.92H296v37.6ZM286,78.62H312V79H286Zm0,1.6H312v.4H286Zm0,1.6H312v.4H286Z"/><path d="M360.28,73.58c15.12,0,25.84,11.28,25.84,25.6s-10.72,25.6-25.84,25.6-25.84-11.28-25.84-25.6S345.08,73.58,360.28,73.58Zm0,48.8c13.28,0,22.88-10.16,22.88-23.2s-9.6-23.36-22.88-23.36S337.4,86.14,337.4,99.18,346.92,122.38,360.28,122.38Zm-22-25h4.32l-.08.4H338.2ZM338.2,99h4.32v.4H338.2Zm0,1.6h4.32l.08.4h-4.32Zm.24-4.8h4.4l-.16.4h-4.32Zm-.08,6.4h4.32l.16.4h-4.4Zm.32-8h4.48l-.16.4h-4.4Zm-.08,9.6H343l.16.4h-4.4Zm.48-11.2h4.56l-.16.4H339Zm.48-1.6h4.8l-.24.4h-4.64Zm.64-1.6h5l-.32.4H340Zm.8-1.6h5.44l-.32.4h-5.36Zm1-1.6H348l-.48.4h-5.76Zm1.12-1.6h6.72l-.56.4h-6.48Zm17.12-2.16c10.24,0,17,7.36,17,16.72s-6.72,17-17,17-17-7.6-17-17S350,82.46,360.28,82.46Zm-15.6.56h8.4l-1,.4h-7.76Zm1.84-1.6h27.6l.4.4h-11l-3.2-.24-3,.24H345.88Zm13.76,32.24c8.48,0,13.92-6.4,13.92-14.48S368.76,84.7,360.28,84.7s-13.92,6.4-13.92,14.48S351.72,113.66,360.28,113.66ZM348.84,79.82h22.88l.48.4h-24Zm3.28-1.6h16.32l1,.4h-18.4Zm8.16-1.52,4.24.32h-8.16ZM375.88,83l-.08-.08.48.48h-7.76l-.88-.4Zm1.36,1.6.4.4h-6.4l-.56-.4Zm1.2,1.6.32.4h-5.68l-.48-.4Zm1,1.6.24.4h-5.2l-.4-.4Zm-4.16,1.6h5l.16.4h-4.88Zm.88,1.6h4.72l.16.4h-4.64Zm.72,1.6h4.56l.16.4h-4.48Zm.48,1.6h4.48l.16.4h-4.48Zm.16,9.6h4.4l-.08.4h-4.48Zm.24-8h4.4l.08.4h-4.4Zm.08,6.4h4.4l-.16.4h-4.32Zm.16-1.6h4.32v.4h-4.4Zm0-3.2h4.32v.4H378ZM378,99h4.32v.4H378Z"/><path d="M445.08,75.18h20.08c9.84,0,15.6,7.28,15.6,15.36,0,9-6.72,15.36-15.6,15.36h-8.4v17.28H445.08Zm8.72,45.76V103.66h11.52c7.28,0,12.48-5.68,12.48-13.36,0-6.88-4.48-12.88-12.48-12.88H448v43.52Zm0-38.16h10.56c4.56,0,7.12,3.52,7.12,7.6,0,4.4-2.56,7.68-7.12,7.68H453.8Zm.08-4.48h12c.88.08,2,.24,2.8.4h-14.8Zm0,1.6H471.4l.56.4H453.88Zm0,1.6h19.6l.4.4h-20Zm0,17.6h20l-.4.4h-19.6Zm0,1.6H472l-.72.4H453.88Zm0,1.6h15a19.05,19.05,0,0,1-2.08.4h-13ZM464,95.82c3,0,4.72-2.8,4.72-5.6,0-2.64-1.6-5-4.72-5h-7.28V95.82Zm4.88,1.68H475l-.32.4h-6.4Zm-.16-14.4h6.08l.32.4h-5.84Zm1.84,12.8h5.28l-.24.4h-5.36Zm-.16-11.2h5.28l.16.4h-5.2Zm1.12,9.6h4.88l-.16.4h-5Zm-.16-8h5l.16.4h-4.88Zm.56,1.6h4.8v.4h-4.64Zm.08,4.8h4.8l-.16.4H472Zm.24-1.6H477l-.08.24v.16H472.2Zm0-1.6h4.64v.4h-4.64Z"/><path d="M504.28,75.18H516V113.1h20.88v10.08H504.28ZM534,120.94v-5.6H513.08V77.42h-5.84v43.52Zm-25.28-1.36h24.48v.4H508.28Zm1.68-1.6h22.8v.4H510Zm1.68-1.6h21.12v.4h-21.6Z"/><path d="M579.4,73.58h2.08L605,123.18H592.36l-2.4-5H571l-2.32,5H556Zm-12.88,47.36L580,92h1.12l13.28,29h6.48l-20.4-43-20.24,43Zm-1-9.52h4.4l-.24.4h-4.4Zm.72-1.6h4.4l-.24.4H566Zm.8-1.6h4.32l-.24.4h-4.32Zm.72-1.6H572l-.24.4h-4.24Zm.8-1.6h4.32l-.24.4h-4.32Zm.72-1.6h4.32l-.24.4h-4.24Zm.72-1.6h4.32l-.24.4H569.8Zm.8-1.6h4.32l-.24.4h-4.32Zm.72-1.6h4.32l-.24.4h-4.24ZM589,116.06l-1.84-4H573.64l-1.76,4ZM572.28,97h4.32l-.24.4H572Zm.72-1.6h4.32l-.24.4h-4.24Zm.8-1.6h4.32l-.24.4h-4.32Zm0,20.8h13l.16.4H573.64Zm.72-22.4h4.32l-.24.4h-4.24Zm0,20.8h11.6l.24.4h-12Zm11.36-3.28-5.44-12.08h-.16l-5.52,12.08ZM575.32,90.62h10.16l.24.4H575.08ZM576,89h8.72l.16.4h-9Zm.72-1.6H584l.24.4h-7.6Zm.8-1.6h5.68l.16.4h-6.08Zm.72-1.6h4.16l.24.4h-4.56Zm.8-1.6h2.64l.16.4h-3Zm.72-1.6h1.12l.24.4h-1.52Zm.64-1.36.16.32h-.32Zm1.68,12.56h4.16l.16.4h-4.08Zm.72,1.6H587l.24.4h-4.16Zm.72,1.6h4.24l.16.4H583.8Zm.72,1.6h4.24l.24.4h-4.24Zm.72,1.6h4.32l.16.4h-4.24Zm.72,1.6H590l.24.4H586Zm.72,1.6h4.4l.16.4h-4.32Zm.72,1.6h4.4l.24.4h-4.4Zm5.2,1.6.16.4h-4.4l-.24-.4Zm.72,1.6.24.4h-4.56l-.24-.4Zm.8,1.6.16.4h-4.56l-.24-.4Zm.72,1.6.24.4H590.2l-.24-.4Zm.8,1.6.16.4h-4.72l-.24-.4Z"/><path d="M631.08,100l-17-24.8h13.28l9.6,14.4,9.6-14.4H659.8l-17,24.8v23.2H631.08Zm8.72,21V99.42l15.12-22h-6.56L637.48,93.5h-1.12L625.48,77.42h-6.56l15.12,22v21.52ZM620.52,78.3h4.56l.32.4h-4.64Zm1,1.6h4.56l.32.4H621.8Zm1.12,1.6h4.56l.32.4h-4.64Zm1.12,1.6h4.48l.32.4H624Zm1,1.52h4.48l.32.4h-4.56Zm1.12,1.6h4.4l.32.4H626.2Zm1.12,1.6h4.4l.32.4h-4.48Zm1.12,1.6h4.32l.32.4h-4.4Zm1,1.6h4.4l.32.4h-4.4Zm1.12,1.6h4.32l.32.4h-4.4Zm1,1.6h4.4l.32.4h-4.4Zm1.2,1.6h4.24l.32.4h-4.32Zm1,1.6H638l.32.4h-4.4Zm1.12,1.6h4.08l.16.4h-4.16Zm.08,1.6H639v.32h-4.16Zm0,1.52H639v.4h-4.16Zm0,1.6H639v.4h-4.16Zm0,1.6H639v.4h-4.16Zm0,1.6H639v.4h-4.16Zm0,1.6H639v.4h-4.16Zm0,1.6H639v.4h-4.16Zm0,1.6H639v.4h-4.16Zm0,1.6H639v.4h-4.16Zm0,1.6H639v.4h-4.16Zm0,1.6H639v.4h-4.16Zm0,1.52H639v.4h-4.16Zm0,1.6H639v.4h-4.16Z"/></g></svg>