<?xml version="1.0" encoding="utf-8"?>
<!-- Generator: Adobe Illustrator 25.4.1, SVG Export Plug-In . SVG Version: 6.00 Build 0)  -->
<svg version="1.1" id="Layer_2_00000111173712848907261950000015579659326353763250_"
	 xmlns="http://www.w3.org/2000/svg" xmlns:xlink="http://www.w3.org/1999/xlink" x="0px" y="0px" viewBox="0 0 620.5 652.6"
	 style="enable-background:new 0 0 620.5 652.6;" xml:space="preserve">
<style type="text/css">
	.st0{opacity:0.45;fill:#8A0036;enable-background:new    ;}
	.st1{fill:none;stroke:#000000;stroke-width:3;stroke-linecap:round;stroke-miterlimit:10;}
	.st2{fill:#FFCD74;}
	.st3{fill:#D14D4D;}
	.st4{fill:#FFED74;}
	.st5{fill:none;stroke:#000000;stroke-width:3;stroke-miterlimit:10;}
	.st6{fill:#FFFFFF;}
</style>
<path class="st0" d="M283.9,361c-21.5-13.4-29.8-40.7-17.8-72.3c12-31.6,44-57.8,61.3-42.2c14.6,13.1,24.8,36.7,17.8,72.3
	C338.7,352,314.6,380.1,283.9,361z"/>
<path class="st0" d="M258.1,373.4c-24.6,6.1-49.9-7.1-64.1-37.8c-14.2-30.7-10.6-71.8,12.7-73.3c19.6-1.3,43.6,8,64.1,37.8
	C289.9,327.9,293.3,364.7,258.1,373.4z"/>
<path class="st0" d="M430.9,395.6c-9.8,48.4-55.5,82.4-124,82.4s-141-40.1-124-82.4c14.3-35.7,51.7-70.5,124-82.4
	C374.4,302.1,444.9,326.4,430.9,395.6z"/>
<path class="st1" d="M409.2,293.2c-23-19.1-15.6,8.7-13.8,25.6c1.6,15.1,0,27.8,5.3,28.6"/>
<circle cx="412" cy="295.9" r="4.6"/>
<path class="st2" d="M359.9,468.6c2.4,0.2,5.4-10.2,6.8-23.3l-8.6-0.9C356.7,457.5,357.5,468.3,359.9,468.6z"/>
<path class="st2" d="M245,466.5c2.4,0.2,5.4-10.2,6.8-23.3l-8.6-0.9C241.8,455.4,242.6,466.3,245,466.5z"/>
<path class="st3" d="M323.6,342.6c-4.4,5.8-9.7,9.9-15.4,11.8c-5.7,1.9-11.9,1.4-17.1-1.5s-9.7-7.9-13.1-14.4
	c-3.3-6.5-5.5-14.5-6.3-23.2c-0.7-9.1,0.1-18.3,2.4-27.1c2.3-8.5,6.5-14.3,10.9-20.1c4.4-5.8,17.9-12.6,23.5-14.5
	c2.8-0.9-10.3,61.3-7.3,61.6c3,0.3,10.5-61.9,13.1-60.4c5.2,2.9,12.3,9.3,15.7,15.8c3.3,6.5,5.5,14.5,6.3,23.3
	c0.7,9.1-0.1,18.3-2.5,27.1C331.6,329.4,328,336.8,323.6,342.6z"/>
<path class="st4" d="M213.1,436c5.7,4.2,11.8,7.9,18.2,10.9c2.6,1.3,5.3,2.5,8.1,3.7c4.3,1.8,8.8,3.4,13.4,4.9
	c5.1,1.6,10.4,3,15.8,4.2c2.6,0.6,5.1,1.1,7.8,1.5c3.1,0.5,6.2,1,9.4,1.3c3.5,0.4,7.1,0.7,10.6,0.9c1.5,0.1,3,0.1,4.5,0.2
	c1,0,2,0,3,0c2.5,0,4.9,0,7.3-0.1c1.6,0,3.1-0.1,4.7-0.1c2.2-0.1,4.4-0.1,6.5-0.3c3.7-0.2,7.2-0.4,10.6-0.7
	c9.8-0.9,18.4-2.2,25.8-4.1c7.5-1.9,13.8-4.3,19.3-7.2c5.2-2.7,9.9-6.3,14-10.4c6-6.1,10.4-13.6,14-22.4c2.7-6.8,5-14.3,7-22.7
	c0.4-1.8,0.8-3.7,1.2-5.5c1.7-9.8,1.6-19.4-0.7-28.1c-1.1-4.5-2.9-8.7-5.2-12.7c-1.4-2.3-2.9-4.5-4.6-6.5c-0.4-0.5-0.8-0.9-1.2-1.4
	c-0.8-0.9-1.6-1.7-2.5-2.5c-4.3-4-9.2-7.2-14.5-9.6c-5.7-2.6-12.7-4.5-20.3-5.7c-8.5-1.3-17.1-1.6-25.7-1.1
	c-3.4,0.2-6.8,0.5-10.4,0.9c-2.1,0.2-4.2,0.5-6.3,0.8c-1.5,0.2-3,0.5-4.5,0.7c-3.3,0.5-6.6,1.2-10.1,1.9c-1.6,0.3-3.2,0.7-4.8,1
	c-3.9,0.9-7.7,1.8-11.4,2.7c-3.3,0.8-6.5,1.7-9.6,2.6c-2.6,0.7-5.1,1.5-7.6,2.3c-5.2,1.7-10.2,3.4-15,5.3c-4.4,1.7-8.6,3.5-12.6,5.4
	c-6.2,3-10.9,6-20.2,11.8c-0.6,0.4-2.6,1.7-4.5,3.1c-1.1,0.9-2.4,1.9-2.4,1.9l-1.2,1c-1.8,1.5-3.5,3.1-5.1,4.6
	c-2.8,2.7-5.4,5.6-7.8,8.6c-4.5,5.7-8.2,11.9-11.2,18.5c-0.1,0.2-0.2,0.5-0.3,0.7c-2.9,7.1-2,14.4,1.8,21.4
	C199.7,424.1,205.6,430.3,213.1,436z"/>
<path class="st5" d="M398.6,379.3c0.2,4.5-7.4,8.4-16.9,8.8s-17.4-2.9-17.6-7.4"/>
<path class="st1" d="M358.4,292.7c24-17.9,15.1,9.4,12.5,26.3c-2.3,15-1.4,27.8-6.7,28.3"/>
<circle cx="353.9" cy="295.8" r="4.6"/>
<path d="M224.7,359.2c0,0-31.8,44.2,4.2,86.4l5.5,2.7c0,0-32.2-68.3,7.8-99.9L224.7,359.2z"/>
<path class="st3" d="M255.5,342.2c0,0-38.1,65.8,6.3,116.1l13.9,2.8l6.6,1l4.7,0.6c0,0-40.2-100,0-131l-5.8,1.6l-5.7,1.7l-4.1,1.3
	l-4.9,1.7l-4.6,1.7l-3,1.1l-1.8,0.8L255.5,342.2z"/>
<path d="M303.3,327.7c0,0-60.6,47.1,9.4,135.9l7.7-0.3l3.3-0.2l3.9-0.2l2.1-0.2l3.1-0.2c0,0-77.9-102,1.3-139.7l-10.7,1.2l-7.7,1.2
	l-5.4,1l-3.5,0.7L303.3,327.7z"/>
<path d="M220.2,454.4c2.4,0.2,5.4-10.2,6.8-23.3l-8.6-0.9C217.1,443.3,217.9,454.2,220.2,454.4z"/>
<path class="st4" d="M330.5,474.8c2.4,0.2,5.4-10.2,6.8-23.3l-8.6-0.9C327.3,463.7,328.2,474.5,330.5,474.8z"/>
<circle cx="360.5" cy="364" r="19.7"/>
<path class="st3" d="M274,334.7c0.3,7.3-1,13.9-4.1,19s-8.2,8.7-14.1,9.9c-5.9,1.2-12.5,0.2-19.3-2.6c-6.8-2.8-13.6-7.5-19.8-13.7
	c-6.4-6.5-11.7-14-15.6-22.3c-3.7-8-4.3-15.1-4.6-22.4s5.5-21.2,8.6-26.3c1.6-2.5,31.7,53.5,34.2,51.8c2.4-1.7-31.9-54-29-54.6
	c5.9-1.2,15.4-0.8,22.2,2s13.6,7.5,19.8,13.8c6.4,6.5,11.7,14,15.6,22.3C271.6,319.4,273.7,327.4,274,334.7z"/>
<circle cx="401" cy="362.2" r="19.7"/>
<circle class="st3" cx="360.5" cy="368.6" r="13"/>
<ellipse class="st3" cx="401.1" cy="366.8" rx="13" ry="13"/>
<circle class="st6" cx="395.1" cy="358.3" r="8.4"/>
<circle class="st6" cx="352.1" cy="362.2" r="8.5"/>
<path d="M358.4,338.6l17.9,8.2c0.9,0.4,1.3,1.5,0.9,2.4l0,0c-0.4,0.9-1.5,1.3-2.4,0.9l-17.9-8.2c-0.9-0.4-1.3-1.5-0.9-2.4l0,0
	C356.4,338.6,357.5,338.2,358.4,338.6z"/>
<path d="M383.2,346.8l17.9-8.2c0.9-0.4,1.9,0,2.4,0.9l0,0c0.4,0.9,0,1.9-0.9,2.4l-17.9,8.2c-0.9,0.4-1.9,0-2.4-0.9l0,0
	C381.9,348.3,382.3,347.2,383.2,346.8z"/>
<circle class="st6" cx="409.8" cy="349.9" r="3.9"/>
</svg>
