<svg xmlns="http://www.w3.org/2000/svg" width="682.48" height="192.12" viewBox="0 0 682.48 192.12"><defs><style>.cls-1{fill:#febb00;stroke:#000;stroke-width:2px;}.cls-1,.cls-2{stroke-miterlimit:10;}.cls-2{fill:none;stroke:#f19b24;stroke-width:0.5px;}</style></defs><g id="Layer_1" data-name="Layer 1"><rect class="cls-1" width="682.48" height="192.12" rx="96.06"/><polygon class="cls-2" points="160.03 187.38 152.15 174.54 160.03 161.7 175.81 161.7 183.7 174.54 175.81 187.38 160.03 187.38"/><polygon class="cls-2" points="160.03 161.7 152.15 148.86 160.03 136.02 175.81 136.02 183.7 148.86 175.81 161.7 160.03 161.7"/><polygon class="cls-2" points="160.03 136.02 152.15 123.18 160.03 110.34 175.81 110.34 183.7 123.18 175.81 136.02 160.03 136.02"/><polygon class="cls-2" points="183.65 174.54 175.76 161.7 183.65 148.86 199.43 148.86 207.31 161.7 199.43 174.54 183.65 174.54"/><polygon class="cls-2" points="183.65 148.86 175.76 136.02 183.65 123.18 199.43 123.18 207.31 136.02 199.43 148.86 183.65 148.86"/><polygon class="cls-2" points="159.67 110.34 151.78 97.5 159.67 84.66 175.44 84.66 183.33 97.5 175.44 110.34 159.67 110.34"/><polygon class="cls-2" points="159.67 84.66 151.78 71.82 159.67 58.98 175.44 58.98 183.33 71.82 175.44 84.66 159.67 84.66"/><polygon class="cls-2" points="159.67 58.98 151.78 46.14 159.67 33.3 175.44 33.3 183.33 46.14 175.44 58.98 159.67 58.98"/><polygon class="cls-2" points="183.28 97.5 175.4 84.66 183.28 71.82 199.06 71.82 206.95 84.66 199.06 97.5 183.28 97.5"/><polygon class="cls-2" points="183.28 71.82 175.4 58.98 183.28 46.14 199.06 46.14 206.95 58.98 199.06 71.82 183.28 71.82"/><polygon class="cls-2" points="207.31 187.38 199.43 174.54 207.31 161.7 223.09 161.7 230.98 174.54 223.09 187.38 207.31 187.38"/><polygon class="cls-2" points="207.31 161.7 199.43 148.86 207.31 136.02 223.09 136.02 230.98 148.86 223.09 161.7 207.31 161.7"/><polygon class="cls-2" points="207.31 136.02 199.43 123.18 207.31 110.34 223.09 110.34 230.98 123.18 223.09 136.02 207.31 136.02"/><polygon class="cls-2" points="230.93 174.54 223.04 161.7 230.93 148.86 246.7 148.86 254.59 161.7 246.7 174.54 230.93 174.54"/><polygon class="cls-2" points="230.93 148.86 223.04 136.02 230.93 123.18 246.7 123.18 254.59 136.02 246.7 148.86 230.93 148.86"/><polygon class="cls-2" points="207.2 110.34 199.31 97.5 207.2 84.66 222.97 84.66 230.86 97.5 222.97 110.34 207.2 110.34"/><polygon class="cls-2" points="207.2 84.66 199.31 71.82 207.2 58.98 222.97 58.98 230.86 71.82 222.97 84.66 207.2 84.66"/><polygon class="cls-2" points="207.2 58.98 199.31 46.14 207.2 33.3 222.97 33.3 230.86 46.14 222.97 58.98 207.2 58.98"/><polygon class="cls-2" points="230.81 97.5 222.92 84.66 230.81 71.82 246.59 71.82 254.47 84.66 246.59 97.5 230.81 97.5"/><polygon class="cls-2" points="230.81 71.82 222.92 58.98 230.81 46.14 246.59 46.15 254.47 58.98 246.59 71.82 230.81 71.82"/><polygon class="cls-2" points="254.54 161.7 246.65 148.86 254.54 136.02 270.31 136.02 278.2 148.86 270.31 161.7 254.54 161.7"/><polygon class="cls-2" points="254.54 136.02 246.65 123.18 254.54 110.34 270.31 110.34 278.2 123.18 270.31 136.02 254.54 136.02"/><polygon class="cls-2" points="254.54 110.34 246.65 97.5 254.54 84.66 270.31 84.66 278.2 97.5 270.31 110.34 254.54 110.34"/><polygon class="cls-2" points="278.15 148.86 270.26 136.02 278.15 123.18 293.93 123.18 301.82 136.02 293.93 148.86 278.15 148.86"/><polygon class="cls-2" points="278.15 123.18 270.26 110.34 278.15 97.5 293.93 97.5 301.82 110.34 293.93 123.18 278.15 123.18"/><polygon class="cls-2" points="151.73 174.54 159.62 161.7 151.73 148.86 135.96 148.86 128.07 161.7 135.96 174.54 151.73 174.54"/><polygon class="cls-2" points="151.73 148.86 159.62 136.02 151.73 123.18 135.96 123.18 128.07 136.02 135.96 148.86 151.73 148.86"/><polygon class="cls-2" points="151.73 123.18 159.62 110.34 151.73 97.5 135.96 97.5 128.07 110.34 135.96 123.18 151.73 123.18"/><polygon class="cls-2" points="128.12 161.7 136 148.86 128.12 136.02 112.34 136.02 104.45 148.86 112.34 161.7 128.12 161.7"/><polygon class="cls-2" points="128.12 136.02 136 123.18 128.12 110.34 112.34 110.34 104.45 123.18 112.34 136.02 128.12 136.02"/><polygon class="cls-2" points="152.1 97.5 159.99 84.66 152.1 71.82 136.32 71.82 128.44 84.66 136.32 97.5 152.1 97.5"/><polygon class="cls-2" points="152.1 71.82 159.99 58.98 152.1 46.14 136.32 46.14 128.44 58.98 136.32 71.82 152.1 71.82"/><polygon class="cls-2" points="152.1 46.14 159.99 33.3 152.1 20.46 136.32 20.46 128.44 33.3 136.32 46.14 152.1 46.14"/><polygon class="cls-2" points="128.48 84.66 136.37 71.82 128.48 58.98 112.71 58.98 104.82 71.82 112.71 84.66 128.48 84.66"/><polygon class="cls-2" points="128.48 58.98 136.37 46.14 128.48 33.3 112.71 33.3 104.82 46.14 112.71 58.98 128.48 58.98"/><polygon class="cls-2" points="104.45 174.54 112.34 161.7 104.45 148.86 88.68 148.86 80.79 161.7 88.68 174.54 104.45 174.54"/><polygon class="cls-2" points="104.45 148.86 112.34 136.02 104.45 123.18 88.68 123.18 80.79 136.02 88.68 148.86 104.45 148.86"/><polygon class="cls-2" points="104.45 123.18 112.34 110.34 104.45 97.5 88.68 97.5 80.79 110.34 88.68 123.18 104.45 123.18"/><polygon class="cls-2" points="80.84 161.7 88.73 148.86 80.84 136.02 65.06 136.02 57.18 148.86 65.06 161.7 80.84 161.7"/><polygon class="cls-2" points="80.84 136.02 88.73 123.18 80.84 110.34 65.06 110.34 57.18 123.18 65.06 136.02 80.84 136.02"/><polygon class="cls-2" points="104.57 97.5 112.46 84.66 104.57 71.82 88.8 71.82 80.91 84.66 88.8 97.5 104.57 97.5"/><polygon class="cls-2" points="104.57 71.82 112.46 58.98 104.57 46.14 88.8 46.15 80.91 58.98 88.8 71.82 104.57 71.82"/><polygon class="cls-2" points="104.57 46.14 112.46 33.3 104.57 20.46 88.8 20.46 80.91 33.3 88.8 46.14 104.57 46.14"/><polygon class="cls-2" points="80.96 84.66 88.84 71.82 80.96 58.98 65.18 58.98 57.29 71.82 65.18 84.66 80.96 84.66"/><polygon class="cls-2" points="80.96 58.98 88.84 46.14 80.96 33.3 65.18 33.3 57.29 46.15 65.18 58.98 80.96 58.98"/><polygon class="cls-2" points="57.23 148.86 65.12 136.02 57.23 123.18 41.45 123.18 33.57 136.02 41.45 148.86 57.23 148.86"/><polygon class="cls-2" points="57.23 123.18 65.12 110.34 57.23 97.5 41.45 97.5 33.57 110.34 41.45 123.18 57.23 123.18"/><polygon class="cls-2" points="57.23 97.5 65.12 84.66 57.23 71.82 41.45 71.82 33.57 84.66 41.45 97.5 57.23 97.5"/><polygon class="cls-2" points="33.61 136.02 41.5 123.18 33.61 110.34 17.84 110.34 9.95 123.18 17.84 136.02 33.61 136.02"/><polygon class="cls-2" points="33.61 110.34 41.5 97.5 33.61 84.66 17.84 84.66 9.95 97.5 17.84 110.34 33.61 110.34"/><polygon class="cls-2" points="523.21 168.12 515.32 155.28 523.21 142.44 538.98 142.44 546.87 155.28 538.98 168.12 523.21 168.12"/><polygon class="cls-2" points="523.21 142.44 515.32 129.6 523.21 116.76 538.98 116.76 546.87 129.6 538.98 142.44 523.21 142.44"/><polygon class="cls-2" points="523.21 116.76 515.32 103.92 523.21 91.08 538.98 91.08 546.87 103.92 538.98 116.76 523.21 116.76"/><polygon class="cls-2" points="546.82 155.28 538.93 142.44 546.82 129.6 562.6 129.6 570.49 142.44 562.6 155.28 546.82 155.28"/><polygon class="cls-2" points="546.82 129.6 538.93 116.76 546.82 103.92 562.6 103.92 570.49 116.76 562.6 129.6 546.82 129.6"/><polygon class="cls-2" points="522.84 91.08 514.95 78.24 522.84 65.4 538.62 65.4 546.5 78.24 538.62 91.08 522.84 91.08"/><polygon class="cls-2" points="522.84 65.4 514.95 52.56 522.84 39.73 538.62 39.73 546.5 52.56 538.62 65.4 522.84 65.4"/><polygon class="cls-2" points="522.84 39.73 514.95 26.89 522.84 14.04 538.62 14.04 546.5 26.89 538.62 39.73 522.84 39.73"/><polygon class="cls-2" points="546.46 78.24 538.57 65.4 546.46 52.56 562.23 52.56 570.12 65.4 562.23 78.24 546.46 78.24"/><polygon class="cls-2" points="546.46 52.56 538.57 39.73 546.46 26.89 562.23 26.89 570.12 39.73 562.23 52.56 546.46 52.56"/><polygon class="cls-2" points="570.49 168.12 562.6 155.28 570.49 142.44 586.26 142.44 594.15 155.28 586.26 168.12 570.49 168.12"/><polygon class="cls-2" points="570.49 142.44 562.6 129.6 570.49 116.76 586.26 116.76 594.15 129.6 586.26 142.44 570.49 142.44"/><polygon class="cls-2" points="570.49 116.76 562.6 103.92 570.49 91.08 586.26 91.08 594.15 103.92 586.26 116.76 570.49 116.76"/><polygon class="cls-2" points="594.1 155.28 586.21 142.44 594.1 129.6 609.88 129.6 617.76 142.44 609.88 155.28 594.1 155.28"/><polygon class="cls-2" points="594.1 129.6 586.21 116.76 594.1 103.92 609.88 103.92 617.76 116.76 609.88 129.6 594.1 129.6"/><polygon class="cls-2" points="570.37 91.08 562.48 78.24 570.37 65.4 586.14 65.4 594.03 78.24 586.14 91.08 570.37 91.08"/><polygon class="cls-2" points="570.37 65.4 562.48 52.56 570.37 39.73 586.14 39.73 594.03 52.56 586.14 65.4 570.37 65.4"/><polygon class="cls-2" points="570.37 39.73 562.48 26.89 570.37 14.04 586.14 14.04 594.03 26.89 586.14 39.73 570.37 39.73"/><polygon class="cls-2" points="593.98 78.24 586.1 65.4 593.98 52.56 609.76 52.56 617.65 65.4 609.76 78.24 593.98 78.24"/><polygon class="cls-2" points="593.98 52.56 586.1 39.73 593.98 26.89 609.76 26.89 617.65 39.73 609.76 52.56 593.98 52.56"/><polygon class="cls-2" points="617.71 142.44 609.82 129.6 617.71 116.76 633.49 116.76 641.37 129.6 633.49 142.44 617.71 142.44"/><polygon class="cls-2" points="617.71 116.76 609.82 103.92 617.71 91.08 633.49 91.08 641.38 103.92 633.49 116.76 617.71 116.76"/><polygon class="cls-2" points="617.71 91.08 609.82 78.24 617.71 65.4 633.49 65.4 641.38 78.24 633.49 91.08 617.71 91.08"/><polygon class="cls-2" points="641.33 129.6 633.44 116.76 641.33 103.92 657.1 103.92 664.99 116.76 657.1 129.6 641.33 129.6"/><polygon class="cls-2" points="641.33 103.92 633.44 91.08 641.33 78.24 657.1 78.24 664.99 91.08 657.1 103.92 641.33 103.92"/><polygon class="cls-2" points="514.9 155.28 522.79 142.44 514.9 129.6 499.13 129.6 491.24 142.44 499.13 155.28 514.9 155.28"/><polygon class="cls-2" points="514.9 129.6 522.79 116.76 514.9 103.92 499.13 103.92 491.24 116.76 499.13 129.6 514.9 129.6"/><polygon class="cls-2" points="514.9 103.92 522.79 91.08 514.9 78.24 499.13 78.24 491.24 91.08 499.13 103.92 514.9 103.92"/><polygon class="cls-2" points="491.29 142.44 499.18 129.6 491.29 116.76 475.51 116.76 467.63 129.6 475.51 142.44 491.29 142.44"/><polygon class="cls-2" points="491.29 116.76 499.18 103.92 491.29 91.08 475.51 91.08 467.63 103.92 475.51 116.76 491.29 116.76"/><polygon class="cls-2" points="515.27 78.24 523.16 65.4 515.27 52.56 499.5 52.56 491.61 65.4 499.5 78.24 515.27 78.24"/><polygon class="cls-2" points="515.27 52.56 523.16 39.73 515.27 26.89 499.5 26.89 491.61 39.73 499.5 52.56 515.27 52.56"/><polygon class="cls-2" points="515.27 26.89 523.16 14.04 515.27 1.21 499.5 1.21 491.61 14.04 499.5 26.89 515.27 26.89"/><polygon class="cls-2" points="491.66 65.4 499.55 52.56 491.66 39.73 475.88 39.73 467.99 52.56 475.88 65.4 491.66 65.4"/><polygon class="cls-2" points="491.66 39.73 499.55 26.89 491.66 14.04 475.88 14.04 467.99 26.89 475.88 39.73 491.66 39.73"/><polygon class="cls-2" points="467.63 155.28 475.51 142.44 467.63 129.6 451.85 129.6 443.96 142.44 451.85 155.28 467.63 155.28"/><polygon class="cls-2" points="467.63 129.6 475.51 116.76 467.63 103.92 451.85 103.92 443.96 116.76 451.85 129.6 467.63 129.6"/><polygon class="cls-2" points="467.63 103.92 475.51 91.08 467.63 78.24 451.85 78.24 443.96 91.08 451.85 103.92 467.63 103.92"/><polygon class="cls-2" points="444.01 142.44 451.9 129.6 444.01 116.76 428.24 116.76 420.35 129.6 428.24 142.44 444.01 142.44"/><polygon class="cls-2" points="444.01 116.76 451.9 103.92 444.01 91.08 428.24 91.08 420.35 103.92 428.24 116.76 444.01 116.76"/><polygon class="cls-2" points="467.75 78.24 475.63 65.4 467.75 52.56 451.97 52.56 444.08 65.4 451.97 78.24 467.75 78.24"/><polygon class="cls-2" points="467.75 52.56 475.63 39.73 467.74 26.89 451.97 26.89 444.08 39.73 451.97 52.56 467.75 52.56"/><polygon class="cls-2" points="467.74 26.89 475.63 14.04 467.74 1.21 451.97 1.21 444.08 14.04 451.97 26.89 467.74 26.89"/><polygon class="cls-2" points="444.13 65.4 452.02 52.56 444.13 39.73 428.35 39.73 420.47 52.56 428.35 65.4 444.13 65.4"/><polygon class="cls-2" points="444.13 39.73 452.02 26.89 444.13 14.04 428.35 14.04 420.47 26.89 428.35 39.73 444.13 39.73"/><polygon class="cls-2" points="420.4 129.6 428.29 116.76 420.4 103.92 404.63 103.92 396.74 116.76 404.63 129.6 420.4 129.6"/><polygon class="cls-2" points="420.4 103.92 428.29 91.08 420.4 78.24 404.63 78.24 396.74 91.08 404.63 103.92 420.4 103.92"/><polygon class="cls-2" points="420.4 78.24 428.29 65.4 420.4 52.56 404.63 52.56 396.74 65.4 404.63 78.24 420.4 78.24"/><polygon class="cls-2" points="396.79 116.76 404.68 103.92 396.79 91.08 381.01 91.08 373.12 103.92 381.01 116.76 396.79 116.76"/><polygon class="cls-2" points="396.79 91.08 404.68 78.24 396.79 65.4 381.01 65.4 373.12 78.24 381.01 91.08 396.79 91.08"/></g><g id="Layer_2" data-name="Layer 2"><path d="M51.18,72H71.69c10,0,15.93,7.28,15.93,15.36,0,9-6.86,15.36-15.93,15.36H63.11v17.29H51.18Zm8.91,45.76V100.52H71.85c7.44,0,12.75-5.68,12.75-13.36,0-6.88-4.58-12.88-12.75-12.88H54.2V117.8Zm0-38.16H70.87c4.66,0,7.27,3.52,7.27,7.6,0,4.4-2.61,7.68-7.27,7.68H60.09Zm.08-4.48H72.42c.9.08,2,.24,2.86.4H60.17Zm0,1.6H78.06l.57.4H60.17Zm0,1.6h20l.41.4H60.17Zm0,17.6H80.6l-.41.4h-20Zm0,1.6H78.72L78,98H60.17Zm0,1.6H75.53a19.47,19.47,0,0,1-2.13.4H60.17Zm10.37-6.48c3.11,0,4.83-2.8,4.83-5.6,0-2.64-1.64-5-4.83-5H63.11V92.68Zm5,1.68h6.21l-.33.4H74.88ZM75.37,80h6.21l.32.4h-6Zm1.88,12.8h5.39l-.25.4H76.92Zm-.17-11.2h5.4l.16.4H77.33Zm1.15,9.6h5l-.16.4H78Zm-.17-8h5.07l.16.4h-5Zm.57,1.6h4.91v.4H78.8Zm.09,4.8h4.9l-.16.4H78.63ZM79,88h4.82l-.08.24v.16H78.88Zm0-1.6H83.7v.4H79Z"/><path d="M111.64,72h12V110H145v10.09H111.64ZM142,117.8v-5.59H120.63V74.28h-6V117.8Zm-25.83-1.35h25v.39H115.73Zm1.72-1.61h23.29v.41h-23.7Zm1.72-1.59h21.57v.39H119.08Z"/><path d="M188.36,70.44h2.12l24,49.61H201.6l-2.45-5H179.78l-2.37,5H164.5ZM175.21,117.8l13.72-29h1.15l13.56,29h6.62l-20.84-43-20.67,43Zm-1.07-9.52h4.5l-.25.4H173.9Zm.74-1.6h4.49l-.24.41h-4.41Zm.82-1.59h4.41l-.25.39h-4.41Zm.73-1.61h4.41l-.24.4h-4.33Zm.82-1.6h4.41l-.24.4H177Zm.73-1.6h4.42l-.25.4h-4.33Zm.74-1.6h4.41l-.24.4h-4.33Zm.82-1.6H184l-.25.4h-4.41Zm.73-1.6h4.41l-.24.4h-4.33Zm17.9,17.44-1.88-4H182.48l-1.8,4Zm-17.08-19h4.41l-.24.4h-4.42Zm.73-1.6h4.42l-.25.4h-4.33Zm.82-1.6h4.41l-.24.4H182.4Zm0,20.8h13.24l.16.4H182.48Zm.74-22.4h4.41l-.25.4h-4.33Zm0,20.8h11.84l.25.41H183.21ZM195,106.6l-5.56-12.08h-.16l-5.64,12.08ZM184.19,87.48h10.38l.25.4H184Zm.74-1.6h8.91l.16.4h-9.23Zm.73-1.6H193l.24.4H185.5Zm.82-1.6h5.8l.17.4h-6.21Zm.74-1.6h4.25l.24.4h-4.66Zm.81-1.6h2.7l.16.4h-3.1Zm.74-1.6h1.14l.25.4h-1.55Zm.65-1.36.17.32h-.33Zm1.72,12.56h4.25l.16.4h-4.17Zm.73,1.6h4.25l.25.4h-4.25Zm.74,1.6h4.33l.16.4h-4.25Zm.74,1.6h4.33l.24.4h-4.33Zm.73,1.6h4.41l.17.4h-4.33Zm.74,1.6h4.41l.24.4h-4.41Zm.73,1.6h4.5l.16.4H195.8Zm.74,1.6h4.49l.25.4h-4.5Zm5.31,1.6.16.4h-4.49l-.25-.4Zm.73,1.6.25.4h-4.66l-.24-.4Zm.82,1.61.16.39h-4.65l-.25-.39Zm.74,1.59.24.41h-4.74l-.24-.41Zm.81,1.6.17.4h-4.82l-.25-.4Z"/><path d="M241.14,96.84,223.74,72H237.3l9.81,14.4,9.8-14.4h13.57l-17.41,24.8v23.21H241.14Zm8.91,21V96.28l15.44-22h-6.7L247.68,90.36h-1.15L235.42,74.28h-6.7l15.44,22V117.8ZM230.36,75.16H235l.33.4H230.6Zm1.06,1.6h4.66l.32.4h-4.74Zm1.14,1.6h4.66l.33.4h-4.74Zm1.15,1.6h4.57l.33.4H234Zm1.06,1.52h4.57l.33.4H235Zm1.14,1.6h4.5l.32.4h-4.57Zm1.15,1.6h4.49l.33.4H237.3Zm1.14,1.6h4.41l.33.4h-4.5Zm1.06,1.6h4.5l.32.4h-4.49Zm1.15,1.6h4.41l.32.4h-4.49Zm1.06,1.6H246l.33.4H241.8Zm1.22,1.6H247l.33.4h-4.41Zm1.07,1.6h4.41l.33.4H244Zm1.14,1.6h4.17l.16.4H245Zm.08,1.6h4.25v.32H245ZM245,99h4.25v.4H245Zm0,1.6h4.25v.4H245Zm0,1.6h4.25v.4H245Zm0,1.6h4.25v.4H245Zm0,1.6h4.25v.4H245Zm0,1.6h4.25v.4H245Zm0,1.6h4.25v.4H245Zm0,1.61h4.25v.39H245Zm0,1.59h4.25v.41H245Zm0,1.6h4.25v.4H245Zm0,1.52h4.25v.41H245Zm0,1.6h4.25v.4H245Z"/><path d="M347.77,70.44h2.12l24,49.61H361l-2.45-5H339.19l-2.37,5H323.91ZM334.61,117.8l13.73-29h1.14l13.57,29h6.62l-20.84-43-20.67,43Zm-1.06-9.52H338l-.24.4h-4.5Zm.73-1.6h4.5l-.25.41h-4.41Zm.82-1.59h4.41l-.24.39h-4.41Zm.74-1.61h4.41l-.25.4h-4.33Zm.81-1.6h4.42l-.25.4h-4.41Zm.74-1.6h4.41l-.24.4h-4.33Zm.74-1.6h4.41l-.25.4H338Zm.81-1.6h4.41l-.24.4H338.7Zm.74-1.6h4.41l-.24.4h-4.34Zm17.89,17.44-1.88-4H341.88l-1.79,4Zm-17.08-19h4.42l-.25.4h-4.41Zm.74-1.6h4.41l-.24.4h-4.33Zm.82-1.6h4.41l-.25.4H341.8Zm0,20.8h13.23l.17.4H341.88Zm.73-22.4h4.41l-.24.4h-4.33Zm0,20.8h11.85l.25.41H342.62Zm11.61-3.28-5.56-12.08h-.16L343,106.6ZM343.6,87.48H354l.24.4H343.35Zm.74-1.6h8.9l.16.4h-9.23Zm.73-1.6h7.35l.25.4h-7.76Zm.82-1.6h5.8l.16.4h-6.21Zm.73-1.6h4.25l.25.4h-4.66Zm.82-1.6h2.7l.16.4h-3.11Zm.74-1.6h1.14l.24.4H348Zm.65-1.36.16.32h-.32Zm1.72,12.56h4.24l.17.4h-4.17Zm.73,1.6h4.25l.24.4h-4.24Zm.74,1.6h4.33l.16.4h-4.25Zm.73,1.6h4.33l.25.4H353Zm.74,1.6h4.41l.16.4h-4.33Zm.73,1.6h4.41l.25.4h-4.41Zm.74,1.6h4.49l.16.4H355.2Zm.73,1.6h4.5l.24.4h-4.49Zm5.31,1.6.17.4h-4.5l-.24-.4Zm.74,1.6.24.4h-4.65l-.25-.4Zm.82,1.61.16.39h-4.66l-.24-.39Zm.73,1.59.25.41H358.8l-.25-.41Zm.82,1.6.16.4h-4.82l-.24-.4Z"/><path d="M414.44,70.44A27.4,27.4,0,0,1,435,78.84l-8.34,7.52a18.24,18.24,0,0,0-12.17-4.8c-8.75,0-14.38,6.4-14.38,14.48,0,8.88,6.45,14.48,14.62,14.48,8.58,0,12.75-4.64,13.08-9.28h-14V91.08h27v4.56c0,14.16-8.5,26-26.31,26-15.53,0-26.56-11.28-26.56-25.6S398.91,70.44,414.44,70.44Zm0,49c15.77,0,23.29-10,23.29-23.29v-2.8H416.81V99H431c-.08,6.56-5.06,13.76-16.58,13.76C403.9,112.76,397,105.4,397,96s6.95-16.72,17.49-16.72a21.8,21.8,0,0,1,12,3.84l4.74-4.48c-4.25-3.92-9.73-6-16.75-6C400.79,72.68,390.9,83,390.9,96S400.79,119.41,414.44,119.41ZM391.8,94.28h4.42l-.09.4h-4.41Zm-.08,1.6h4.41v.4h-4.41Zm0,1.6h4.41l.09.4H391.8Zm.25-4.8h4.49l-.16.4h-4.41Zm-.08,6.4h4.41l.16.4H392Zm.32-8h4.58l-.17.4h-4.49Zm-.08,9.6h4.49l.17.41h-4.5Zm.41,1.6h4.57l.17.4h-4.66Zm.49,1.6h4.74l.24.4h-4.9Zm.57,1.6h5.07l.32.4h-5.14Zm.82,1.61h5.39l.41.39h-5.56Zm1,1.59h5.88l.41.41h-6.05Zm1.22,1.61h6.54l.49.39h-6.78Zm9.4,1.59.82.41h-8.42l-.41-.41Zm5.72,1.6a25.66,25.66,0,0,0,2.7.16,21.45,21.45,0,0,0,2.61-.16h12.83l-.49.4h-29l-.49-.4Zm16.1,1.61-.57.39H402.75l-.57-.39Zm-3,1.59-1.06.41H406.1l-1.06-.41Zm-6.61,1.61a18,18,0,0,1-3.76.23,29,29,0,0,1-3.84-.23Zm-.33-24h18.87v.4H417.87Zm0,1.6h18.87v.4H417.87Zm0,1.6h18.87v.4H417.87Zm5.31,14.4h8.5l-.41.41h-8.91Zm3.11-1.59h6.61l-.32.39h-6.95Zm1.79-1.61h5.72l-.32.41h-5.81Zm1.39-1.59h5.07l-.25.39h-5.23Zm.9-1.61h4.9l-.24.4h-5Zm.65-1.6h4.66l-.16.4h-4.66Zm.58-1.6h4.49l-.16.4h-4.41Zm.32-1.6h4.42l-.09.41h-4.49Zm.17-1.6h4.41v.4H432Z"/><path d="M482.09,70.44h2.12l24,49.61H495.33l-2.46-5H473.51l-2.37,5H458.23ZM468.93,117.8l13.73-29h1.14l13.57,29H504l-20.84-43-20.67,43Zm-1.06-9.52h4.49l-.24.4h-4.49Zm.74-1.6h4.49l-.25.41h-4.41Zm.81-1.59h4.42l-.25.39h-4.41Zm.74-1.61h4.41l-.24.4H470Zm.82-1.6h4.41l-.25.4h-4.41Zm.73-1.6h4.41l-.24.4h-4.33Zm.74-1.6h4.41l-.25.4h-4.33Zm.81-1.6h4.42l-.25.4H473Zm.74-1.6h4.41l-.24.4h-4.33Zm17.89,17.44-1.88-4h-13.8l-1.8,4Zm-17.07-19h4.41l-.25.4h-4.41Zm.73-1.6H480l-.24.4h-4.33Zm.82-1.6h4.41l-.24.4h-4.42Zm0,20.8h13.24l.16.4H476.21Zm.73-22.4h4.42l-.25.4h-4.33Zm0,20.8H489l.25.41H476.94Zm11.61-3.28-5.56-12.08H483l-5.64,12.08ZM477.92,87.48H488.3l.24.4H477.68Zm.74-1.6h8.9l.17.4h-9.24Zm.73-1.6h7.36l.24.4h-7.76Zm.82-1.6H486l.16.4H480Zm.73-1.6h4.25l.25.4h-4.66Zm.82-1.6h2.7l.16.4h-3.1Zm.74-1.6h1.14l.25.4h-1.56Zm.65-1.36.16.32H483Zm1.72,12.56h4.25l.16.4h-4.17Zm.73,1.6h4.25l.25.4h-4.25Zm.74,1.6h4.33l.16.4h-4.25Zm.73,1.6h4.33l.25.4h-4.33Zm.74,1.6h4.41l.16.4h-4.33Zm.73,1.6H493l.24.4h-4.41Zm.74,1.6h4.49l.17.4h-4.42Zm.73,1.6h4.5l.24.4h-4.49Zm5.32,1.6.16.4H491l-.24-.4Zm.73,1.6.25.4h-4.66l-.25-.4Zm.82,1.61.16.39h-4.66l-.24-.39Zm.73,1.59.25.41h-4.74l-.25-.41Zm.82,1.6.16.4h-4.82l-.24-.4Z"/><path d="M529.8,72h12v48h-12Zm9,45.76V74.28h-6V117.8ZM533.64,75H538v.4h-4.33Zm0,1.6H538V77h-4.33Zm0,1.6H538v.4h-4.33Zm0,1.6H538v.4h-4.33Zm0,1.6H538v.4h-4.33Zm0,1.6H538v.4h-4.33Zm0,1.6H538V85h-4.33Zm0,1.6H538v.4h-4.33Zm0,1.6H538v.4h-4.33Zm0,1.6H538v.4h-4.33Zm0,1.6H538v.4h-4.33Zm0,1.6H538V93h-4.33Zm0,1.6H538v.4h-4.33Zm0,1.6H538v.4h-4.33Zm0,1.6H538v.4h-4.33Z"/><path d="M566,72h12.66l19,28.48V72h11.93v48h-12.5L578,91.56v28.49H566Zm9,45.76V84h1.23L599,117.8h7.6V74.28h-5.89v33.44h-1.47L576.78,74.28H569V117.8Zm-3.84-42.64h5.15l.33.4h-5.23Zm1.15,1.6h5.06l.33.4h-5.15Zm1.06,1.6h5.07l.32.4H573.6Zm1.14,1.6h5l.33.4h-5.07Zm1.07,1.6h5l.33.4H575.8Zm1.14,1.6h4.9l.33.4h-5Zm1.06,1.6h5l.32.4H578Zm1.07,1.6h5l.33.4h-5.07ZM580,88h4.9l.33.4h-5Zm1.06,1.6h4.9l.33.4h-5Zm1.06,1.6H587l.32.4h-5Zm1.07,1.6h5l.33.4H583.4Zm1.06,1.6h5l.33.4h-5.07Zm1.06,1.6h5l.32.4h-5.06Zm1.14,1.6h4.91l.32.4h-5Zm1.07,1.6h4.9l.33.4h-5Zm1.06,1.6h4.9l.33.4h-5Zm1.06,1.6h5l.32.4h-5.06Zm6,1.6.32.4h-5.06l-.25-.4Zm1.06,1.6.33.4h-5l-.24-.4Zm1.06,1.61.33.39h-5l-.24-.39Zm1.23,1.59.32.41h-5.14l-.25-.41Zm1.14,1.6.41.4h-5.31l-.25-.4Zm1.23,1.6.41.4h-5.48l-.24-.4Zm1.22,1.6.33.4h-5.56l-.24-.4Zm1.23,1.61.41.39h-5.72l-.25-.39ZM605,116.6l.41.4h-6l-.25-.4Z"/></g></svg>