<svg xmlns="http://www.w3.org/2000/svg" width="682.48" height="192.12" viewBox="0 0 682.48 192.12"><defs><style>.cls-1{fill:#febb00;stroke:#000;stroke-width:2px;}.cls-1,.cls-2{stroke-miterlimit:10;}.cls-2{fill:none;stroke:#f19b24;stroke-width:0.5px;}</style></defs><g id="Layer_1" data-name="Layer 1"><rect class="cls-1" width="682.48" height="192.12" rx="96.06"/><polygon class="cls-2" points="160.03 187.38 152.15 174.54 160.03 161.7 175.81 161.7 183.7 174.54 175.81 187.38 160.03 187.38"/><polygon class="cls-2" points="160.03 161.7 152.15 148.86 160.03 136.02 175.81 136.02 183.7 148.86 175.81 161.7 160.03 161.7"/><polygon class="cls-2" points="160.03 136.02 152.15 123.18 160.03 110.34 175.81 110.34 183.7 123.18 175.81 136.02 160.03 136.02"/><polygon class="cls-2" points="183.65 174.54 175.76 161.7 183.65 148.86 199.43 148.86 207.31 161.7 199.43 174.54 183.65 174.54"/><polygon class="cls-2" points="183.65 148.86 175.76 136.02 183.65 123.18 199.43 123.18 207.31 136.02 199.43 148.86 183.65 148.86"/><polygon class="cls-2" points="159.67 110.34 151.78 97.5 159.67 84.66 175.44 84.66 183.33 97.5 175.44 110.34 159.67 110.34"/><polygon class="cls-2" points="159.67 84.66 151.78 71.82 159.67 58.98 175.44 58.98 183.33 71.82 175.44 84.66 159.67 84.66"/><polygon class="cls-2" points="159.67 58.98 151.78 46.14 159.67 33.3 175.44 33.3 183.33 46.14 175.44 58.98 159.67 58.98"/><polygon class="cls-2" points="183.28 97.5 175.4 84.66 183.28 71.82 199.06 71.82 206.95 84.66 199.06 97.5 183.28 97.5"/><polygon class="cls-2" points="183.28 71.82 175.4 58.98 183.28 46.14 199.06 46.14 206.95 58.98 199.06 71.82 183.28 71.82"/><polygon class="cls-2" points="207.31 187.38 199.43 174.54 207.31 161.7 223.09 161.7 230.98 174.54 223.09 187.38 207.31 187.38"/><polygon class="cls-2" points="207.31 161.7 199.43 148.86 207.31 136.02 223.09 136.02 230.98 148.86 223.09 161.7 207.31 161.7"/><polygon class="cls-2" points="207.31 136.02 199.43 123.18 207.31 110.34 223.09 110.34 230.98 123.18 223.09 136.02 207.31 136.02"/><polygon class="cls-2" points="230.93 174.54 223.04 161.7 230.93 148.86 246.7 148.86 254.59 161.7 246.7 174.54 230.93 174.54"/><polygon class="cls-2" points="230.93 148.86 223.04 136.02 230.93 123.18 246.7 123.18 254.59 136.02 246.7 148.86 230.93 148.86"/><polygon class="cls-2" points="207.2 110.34 199.31 97.5 207.2 84.66 222.97 84.66 230.86 97.5 222.97 110.34 207.2 110.34"/><polygon class="cls-2" points="207.2 84.66 199.31 71.82 207.2 58.98 222.97 58.98 230.86 71.82 222.97 84.66 207.2 84.66"/><polygon class="cls-2" points="207.2 58.98 199.31 46.14 207.2 33.3 222.97 33.3 230.86 46.14 222.97 58.98 207.2 58.98"/><polygon class="cls-2" points="230.81 97.5 222.92 84.66 230.81 71.82 246.59 71.82 254.47 84.66 246.59 97.5 230.81 97.5"/><polygon class="cls-2" points="230.81 71.82 222.92 58.98 230.81 46.14 246.59 46.15 254.47 58.98 246.59 71.82 230.81 71.82"/><polygon class="cls-2" points="254.54 161.7 246.65 148.86 254.54 136.02 270.31 136.02 278.2 148.86 270.31 161.7 254.54 161.7"/><polygon class="cls-2" points="254.54 136.02 246.65 123.18 254.54 110.34 270.31 110.34 278.2 123.18 270.31 136.02 254.54 136.02"/><polygon class="cls-2" points="254.54 110.34 246.65 97.5 254.54 84.66 270.31 84.66 278.2 97.5 270.31 110.34 254.54 110.34"/><polygon class="cls-2" points="278.15 148.86 270.26 136.02 278.15 123.18 293.93 123.18 301.82 136.02 293.93 148.86 278.15 148.86"/><polygon class="cls-2" points="278.15 123.18 270.26 110.34 278.15 97.5 293.93 97.5 301.82 110.34 293.93 123.18 278.15 123.18"/><polygon class="cls-2" points="151.73 174.54 159.62 161.7 151.73 148.86 135.96 148.86 128.07 161.7 135.96 174.54 151.73 174.54"/><polygon class="cls-2" points="151.73 148.86 159.62 136.02 151.73 123.18 135.96 123.18 128.07 136.02 135.96 148.86 151.73 148.86"/><polygon class="cls-2" points="151.73 123.18 159.62 110.34 151.73 97.5 135.96 97.5 128.07 110.34 135.96 123.18 151.73 123.18"/><polygon class="cls-2" points="128.12 161.7 136 148.86 128.12 136.02 112.34 136.02 104.45 148.86 112.34 161.7 128.12 161.7"/><polygon class="cls-2" points="128.12 136.02 136 123.18 128.12 110.34 112.34 110.34 104.45 123.18 112.34 136.02 128.12 136.02"/><polygon class="cls-2" points="152.1 97.5 159.99 84.66 152.1 71.82 136.32 71.82 128.44 84.66 136.32 97.5 152.1 97.5"/><polygon class="cls-2" points="152.1 71.82 159.99 58.98 152.1 46.14 136.32 46.14 128.44 58.98 136.32 71.82 152.1 71.82"/><polygon class="cls-2" points="152.1 46.14 159.99 33.3 152.1 20.46 136.32 20.46 128.44 33.3 136.32 46.14 152.1 46.14"/><polygon class="cls-2" points="128.48 84.66 136.37 71.82 128.48 58.98 112.71 58.98 104.82 71.82 112.71 84.66 128.48 84.66"/><polygon class="cls-2" points="128.48 58.98 136.37 46.14 128.48 33.3 112.71 33.3 104.82 46.14 112.71 58.98 128.48 58.98"/><polygon class="cls-2" points="104.45 174.54 112.34 161.7 104.45 148.86 88.68 148.86 80.79 161.7 88.68 174.54 104.45 174.54"/><polygon class="cls-2" points="104.45 148.86 112.34 136.02 104.45 123.18 88.68 123.18 80.79 136.02 88.68 148.86 104.45 148.86"/><polygon class="cls-2" points="104.45 123.18 112.34 110.34 104.45 97.5 88.68 97.5 80.79 110.34 88.68 123.18 104.45 123.18"/><polygon class="cls-2" points="80.84 161.7 88.73 148.86 80.84 136.02 65.06 136.02 57.18 148.86 65.06 161.7 80.84 161.7"/><polygon class="cls-2" points="80.84 136.02 88.73 123.18 80.84 110.34 65.06 110.34 57.18 123.18 65.06 136.02 80.84 136.02"/><polygon class="cls-2" points="104.57 97.5 112.46 84.66 104.57 71.82 88.8 71.82 80.91 84.66 88.8 97.5 104.57 97.5"/><polygon class="cls-2" points="104.57 71.82 112.46 58.98 104.57 46.14 88.8 46.15 80.91 58.98 88.8 71.82 104.57 71.82"/><polygon class="cls-2" points="104.57 46.14 112.46 33.3 104.57 20.46 88.8 20.46 80.91 33.3 88.8 46.14 104.57 46.14"/><polygon class="cls-2" points="80.96 84.66 88.84 71.82 80.96 58.98 65.18 58.98 57.29 71.82 65.18 84.66 80.96 84.66"/><polygon class="cls-2" points="80.96 58.98 88.84 46.14 80.96 33.3 65.18 33.3 57.29 46.15 65.18 58.98 80.96 58.98"/><polygon class="cls-2" points="57.23 148.86 65.12 136.02 57.23 123.18 41.45 123.18 33.57 136.02 41.45 148.86 57.23 148.86"/><polygon class="cls-2" points="57.23 123.18 65.12 110.34 57.23 97.5 41.45 97.5 33.57 110.34 41.45 123.18 57.23 123.18"/><polygon class="cls-2" points="57.23 97.5 65.12 84.66 57.23 71.82 41.45 71.82 33.57 84.66 41.45 97.5 57.23 97.5"/><polygon class="cls-2" points="33.61 136.02 41.5 123.18 33.61 110.34 17.84 110.34 9.95 123.18 17.84 136.02 33.61 136.02"/><polygon class="cls-2" points="33.61 110.34 41.5 97.5 33.61 84.66 17.84 84.66 9.95 97.5 17.84 110.34 33.61 110.34"/><polygon class="cls-2" points="523.21 168.12 515.32 155.28 523.21 142.44 538.98 142.44 546.87 155.28 538.98 168.12 523.21 168.12"/><polygon class="cls-2" points="523.21 142.44 515.32 129.6 523.21 116.76 538.98 116.76 546.87 129.6 538.98 142.44 523.21 142.44"/><polygon class="cls-2" points="523.21 116.76 515.32 103.92 523.21 91.08 538.98 91.08 546.87 103.92 538.98 116.76 523.21 116.76"/><polygon class="cls-2" points="546.82 155.28 538.93 142.44 546.82 129.6 562.6 129.6 570.49 142.44 562.6 155.28 546.82 155.28"/><polygon class="cls-2" points="546.82 129.6 538.93 116.76 546.82 103.92 562.6 103.92 570.49 116.76 562.6 129.6 546.82 129.6"/><polygon class="cls-2" points="522.84 91.08 514.95 78.24 522.84 65.4 538.62 65.4 546.5 78.24 538.62 91.08 522.84 91.08"/><polygon class="cls-2" points="522.84 65.4 514.95 52.56 522.84 39.73 538.62 39.73 546.5 52.56 538.62 65.4 522.84 65.4"/><polygon class="cls-2" points="522.84 39.73 514.95 26.89 522.84 14.04 538.62 14.04 546.5 26.89 538.62 39.73 522.84 39.73"/><polygon class="cls-2" points="546.46 78.24 538.57 65.4 546.46 52.56 562.23 52.56 570.12 65.4 562.23 78.24 546.46 78.24"/><polygon class="cls-2" points="546.46 52.56 538.57 39.73 546.46 26.89 562.23 26.89 570.12 39.73 562.23 52.56 546.46 52.56"/><polygon class="cls-2" points="570.49 168.12 562.6 155.28 570.49 142.44 586.26 142.44 594.15 155.28 586.26 168.12 570.49 168.12"/><polygon class="cls-2" points="570.49 142.44 562.6 129.6 570.49 116.76 586.26 116.76 594.15 129.6 586.26 142.44 570.49 142.44"/><polygon class="cls-2" points="570.49 116.76 562.6 103.92 570.49 91.08 586.26 91.08 594.15 103.92 586.26 116.76 570.49 116.76"/><polygon class="cls-2" points="594.1 155.28 586.21 142.44 594.1 129.6 609.88 129.6 617.76 142.44 609.88 155.28 594.1 155.28"/><polygon class="cls-2" points="594.1 129.6 586.21 116.76 594.1 103.92 609.88 103.92 617.76 116.76 609.88 129.6 594.1 129.6"/><polygon class="cls-2" points="570.37 91.08 562.48 78.24 570.37 65.4 586.14 65.4 594.03 78.24 586.14 91.08 570.37 91.08"/><polygon class="cls-2" points="570.37 65.4 562.48 52.56 570.37 39.73 586.14 39.73 594.03 52.56 586.14 65.4 570.37 65.4"/><polygon class="cls-2" points="570.37 39.73 562.48 26.89 570.37 14.04 586.14 14.04 594.03 26.89 586.14 39.73 570.37 39.73"/><polygon class="cls-2" points="593.98 78.24 586.1 65.4 593.98 52.56 609.76 52.56 617.65 65.4 609.76 78.24 593.98 78.24"/><polygon class="cls-2" points="593.98 52.56 586.1 39.73 593.98 26.89 609.76 26.89 617.65 39.73 609.76 52.56 593.98 52.56"/><polygon class="cls-2" points="617.71 142.44 609.82 129.6 617.71 116.76 633.49 116.76 641.37 129.6 633.49 142.44 617.71 142.44"/><polygon class="cls-2" points="617.71 116.76 609.82 103.92 617.71 91.08 633.49 91.08 641.38 103.92 633.49 116.76 617.71 116.76"/><polygon class="cls-2" points="617.71 91.08 609.82 78.24 617.71 65.4 633.49 65.4 641.38 78.24 633.49 91.08 617.71 91.08"/><polygon class="cls-2" points="641.33 129.6 633.44 116.76 641.33 103.92 657.1 103.92 664.99 116.76 657.1 129.6 641.33 129.6"/><polygon class="cls-2" points="641.33 103.92 633.44 91.08 641.33 78.24 657.1 78.24 664.99 91.08 657.1 103.92 641.33 103.92"/><polygon class="cls-2" points="514.9 155.28 522.79 142.44 514.9 129.6 499.13 129.6 491.24 142.44 499.13 155.28 514.9 155.28"/><polygon class="cls-2" points="514.9 129.6 522.79 116.76 514.9 103.92 499.13 103.92 491.24 116.76 499.13 129.6 514.9 129.6"/><polygon class="cls-2" points="514.9 103.92 522.79 91.08 514.9 78.24 499.13 78.24 491.24 91.08 499.13 103.92 514.9 103.92"/><polygon class="cls-2" points="491.29 142.44 499.18 129.6 491.29 116.76 475.51 116.76 467.63 129.6 475.51 142.44 491.29 142.44"/><polygon class="cls-2" points="491.29 116.76 499.18 103.92 491.29 91.08 475.51 91.08 467.63 103.92 475.51 116.76 491.29 116.76"/><polygon class="cls-2" points="515.27 78.24 523.16 65.4 515.27 52.56 499.5 52.56 491.61 65.4 499.5 78.24 515.27 78.24"/><polygon class="cls-2" points="515.27 52.56 523.16 39.73 515.27 26.89 499.5 26.89 491.61 39.73 499.5 52.56 515.27 52.56"/><polygon class="cls-2" points="515.27 26.89 523.16 14.04 515.27 1.21 499.5 1.21 491.61 14.04 499.5 26.89 515.27 26.89"/><polygon class="cls-2" points="491.66 65.4 499.55 52.56 491.66 39.73 475.88 39.73 467.99 52.56 475.88 65.4 491.66 65.4"/><polygon class="cls-2" points="491.66 39.73 499.55 26.89 491.66 14.04 475.88 14.04 467.99 26.89 475.88 39.73 491.66 39.73"/><polygon class="cls-2" points="467.63 155.28 475.51 142.44 467.63 129.6 451.85 129.6 443.96 142.44 451.85 155.28 467.63 155.28"/><polygon class="cls-2" points="467.63 129.6 475.51 116.76 467.63 103.92 451.85 103.92 443.96 116.76 451.85 129.6 467.63 129.6"/><polygon class="cls-2" points="467.63 103.92 475.51 91.08 467.63 78.24 451.85 78.24 443.96 91.08 451.85 103.92 467.63 103.92"/><polygon class="cls-2" points="444.01 142.44 451.9 129.6 444.01 116.76 428.24 116.76 420.35 129.6 428.24 142.44 444.01 142.44"/><polygon class="cls-2" points="444.01 116.76 451.9 103.92 444.01 91.08 428.24 91.08 420.35 103.92 428.24 116.76 444.01 116.76"/><polygon class="cls-2" points="467.75 78.24 475.63 65.4 467.75 52.56 451.97 52.56 444.08 65.4 451.97 78.24 467.75 78.24"/><polygon class="cls-2" points="467.75 52.56 475.63 39.73 467.74 26.89 451.97 26.89 444.08 39.73 451.97 52.56 467.75 52.56"/><polygon class="cls-2" points="467.74 26.89 475.63 14.04 467.74 1.21 451.97 1.21 444.08 14.04 451.97 26.89 467.74 26.89"/><polygon class="cls-2" points="444.13 65.4 452.02 52.56 444.13 39.73 428.35 39.73 420.47 52.56 428.35 65.4 444.13 65.4"/><polygon class="cls-2" points="444.13 39.73 452.02 26.89 444.13 14.04 428.35 14.04 420.47 26.89 428.35 39.73 444.13 39.73"/><polygon class="cls-2" points="420.4 129.6 428.29 116.76 420.4 103.92 404.63 103.92 396.74 116.76 404.63 129.6 420.4 129.6"/><polygon class="cls-2" points="420.4 103.92 428.29 91.08 420.4 78.24 404.63 78.24 396.74 91.08 404.63 103.92 420.4 103.92"/><polygon class="cls-2" points="420.4 78.24 428.29 65.4 420.4 52.56 404.63 52.56 396.74 65.4 404.63 78.24 420.4 78.24"/><polygon class="cls-2" points="396.79 116.76 404.68 103.92 396.79 91.08 381.01 91.08 373.12 103.92 381.01 116.76 396.79 116.76"/><polygon class="cls-2" points="396.79 91.08 404.68 78.24 396.79 65.4 381.01 65.4 373.12 78.24 381.01 91.08 396.79 91.08"/></g><g id="Layer_2" data-name="Layer 2"><path d="M206.9,110.7a5.06,5.06,0,0,0,5.07,5c3,0,4.9-1.68,4.9-4.16,0-3.6-4.82-4.64-8.83-6-8.25-2.88-12.83-6.64-12.83-14.88,0-8.48,7.44-15.52,16.67-15.52,10.87,0,16,6.8,16.67,15.68H217.28a4.71,4.71,0,0,0-5.07-5c-2.61,0-5.15,1.52-5.15,4.64,0,3.6,4.5,4.24,8.66,5.44,8.75,2.56,12.83,7.36,12.83,14.88,0,8.48-7.35,15.52-16.58,15.52-10.71,0-16.76-7-16.76-15.68ZM212,124.14c7.59,0,13.8-6,13.8-13.28,0-8.08-4.9-11-12.42-13.12-4.82-1.36-9-2.48-9-7.2,0-4.16,3.18-6.88,7.6-6.88,5.06,0,6.78,3,7.51,5h6.13c-.49-4.72-4.08-11.2-13.64-11.2-7.6,0-14,6-14,13.28,0,5.92,2.29,9.68,11.28,12.8,4.66,1.68,10.29,2.88,10.29,8.08,0,4.24-3.75,6.4-7.59,6.4-4.17-.08-6.79-2.4-7.52-5h-6.38C198.24,118.94,204.2,124.14,212,124.14ZM198.81,89.82h4.74v.4h-4.74Zm0,1.6h4.74l.08.4h-4.82Zm.33-3.28h4.74l-.17.48H199Zm-.17,5h4.91l.16.4h-5Zm.41,1.6h5.48l-.09-.08.5.48h-5.81Zm.17-8.16h5l-.25.4h-4.82Zm.81-1.68H206l-.57.48h-5.31Zm-.16,11.52h6.62l.65.4h-7Zm1.22-13.12h7.19l-.89.4H201.1ZM201.51,98h9.39l1.56.4H201.91ZM203,81.66h9v.4h-9.48Zm.41,17.92h12.82l1.23.48H204.28Zm2-19.6H212v.4h-7.2Zm14.3,21.28.49.4h-13l-.66-.4Zm-9.48-22.88H212v.4h-3.68Zm11.68,24.48.41.48H211.15l-1.23-.48Zm-10,16.4h9.31l-.41.4H212Zm0,1.6h7.35l-.57.4H212Zm0,1.68h4.16l-1.55.4H212Zm11.35-18,.17.4h-7.93l-.9-.4Zm-6.37,13h5.8l-.24.32-.09.16H216Zm7.11-11.44.16.4h-6l-.49-.4ZM218.83,116h4.82l-.25.4h-5Zm.41-8.16h5.39l.16.4h-5.31Zm.65,6.48h4.5l-.17.48h-4.57Zm.16-4.88h4.83v.4h-4.74Zm.25,3.28h4.49l-.08.4h-4.49Zm.08-1.6H225l-.08.4h-4.5Z"/><path d="M260.91,87.18h-11V76.78H284v10.4H272.92v37.6h-12Zm9,35.36V84.94H281V79H252.9v5.92h11v37.6ZM253.72,80.22h26.47v.4H253.72Zm0,1.6h26.47v.4H253.72Zm0,1.6h26.47v.4H253.72Z"/><path d="M319.81,75.18h2.13l24,49.6H333.05l-2.45-5H311.23l-2.36,5H296Zm-13.15,47.36,13.73-29h1.14l13.57,29h6.61l-20.83-43-20.68,43ZM305.6,113h4.49l-.24.4h-4.5Zm.73-1.6h4.5l-.25.4h-4.41Zm.82-1.6h4.41l-.24.4H306.9Zm.74-1.6h4.41l-.25.4h-4.33Zm.81-1.6h4.41l-.24.4h-4.41Zm.74-1.6h4.41l-.25.4h-4.33Zm.73-1.6h4.42l-.25.4H310Zm.82-1.6h4.41l-.24.4h-4.42Zm.74-1.6h4.41l-.25.4h-4.33Zm17.89,17.44-1.88-4H313.93l-1.8,4Zm-17.08-19H317l-.24.4H312.3Zm.74-1.6h4.41l-.25.4h-4.33Zm.82-1.6h4.41l-.25.4h-4.41Zm0,20.8h13.23l.17.4H313.93Zm.73-22.4h4.41l-.24.4h-4.33Zm0,20.8h11.85l.24.4H314.67Zm11.6-3.28-5.55-12.08h-.17l-5.63,12.08ZM315.65,92.22H326l.25.4H315.4Zm.73-1.6h8.91l.16.4h-9.23Zm.74-1.6h7.35l.25.4H317Zm.82-1.6h5.8l.16.4h-6.21Zm.73-1.6h4.25l.24.4h-4.65Zm.82-1.6h2.69l.17.4h-3.11Zm.73-1.6h1.15l.24.4h-1.55Zm.66-1.36.16.32h-.33Zm1.71,12.56h4.25l.17.4h-4.17Zm.74,1.6h4.25l.24.4h-4.25Zm.73,1.6h4.33l.17.4h-4.25Zm.74,1.6h4.33l.25.4H325Zm.73,1.6H330l.16.4h-4.33Zm.74,1.6h4.41l.25.4h-4.41Zm.74,1.6h4.49l.16.4h-4.41Zm.73,1.6h4.49l.25.4H328Zm5.31,1.6.17.4h-4.5l-.24-.4Zm.74,1.6.24.4h-4.65l-.25-.4Zm.81,1.6.17.4h-4.66l-.24-.4Zm.74,1.6.25.4h-4.74l-.25-.4Zm.82,1.6.16.4H331.5l-.25-.4Z"/><path d="M367.53,76.78H388c10.54,0,17.4,6.24,17.4,15.28,0,8.4-4.33,13.12-11.6,14.88l13.24,17.84H392l-12.5-17.92v17.92h-12Zm9,45.76v-17.2h5.39l12,17.2H402L389.75,106v-.72c8.34-1,12.67-5,12.67-12.72C402.42,84.3,396.21,79,388,79H370.55v43.52Zm0-38h12.33a7.57,7.57,0,0,1,7.85,7.52,7.45,7.45,0,0,1-7.52,7.76H376.52Zm.08-4.64H388l3.84.4H376.6Zm0,1.6H395l.66.4h-19Zm0,1.6h20.83l.41.4H376.6Zm0,17.6h22.06l-.41.4H376.6Zm0,1.6h19.94l-.74.4H376.6Zm0,1.6h15.93l-2.12.4H376.6Zm12.58-6.32c2.7,0,4.5-2.72,4.5-5.52a5.12,5.12,0,0,0-4.83-5.28h-9.31v10.8ZM383,105.5h5.8v.4h-5.55Zm1.06,1.6h5.4l.41.4h-5.56Zm1.15,1.6h5.47l.33.4h-5.56Zm1.06,1.6h5.56l.4.4h-5.72Zm6.78,1.6.33.4h-5.72l-.25-.4Zm1.15,1.6.4.4h-5.88l-.24-.4Zm1.22,1.6.33.4h-5.88l-.25-.4Zm1.15,1.6.4.4h-6l-.25-.4Zm1.22,1.6.33.4h-6l-.24-.4ZM399,84.7l.32.4h-5.72l-.9-.4Zm-.09,35.2.41.4h-6l-.25-.4ZM394,99.1h6l-.33.4h-6.29Zm6.13,22.4.25.4h-6l-.24-.4Zm-.08-35.2.16.4h-4.57l-.58-.4Zm-4.33,11.2h5.06l-.24.4h-5.23Zm.57-9.6h4.49l.17.4h-4.41Zm.41,8h4.57l-.16.4h-4.66Zm.41-6.4h4.16v.4h-3.92Zm.08,4.8h4.25v.4h-4.33Zm.24-3.2h4.09v.4h-4.09Zm.09,1.6h4.08v.4h-4.08Z"/><path d="M435.59,87.18h-11V76.78h34.15v10.4H447.6v37.6h-12Zm9,35.36V84.94h11.11V79H427.58v5.92h11v37.6ZM428.4,80.22h26.47v.4H428.4Zm0,1.6h26.47v.4H428.4Zm0,1.6h26.47v.4H428.4Z"/></g></svg>